{
.formatVersion = 3;
axes = (
{
name = Weight;
tag = wght;
}
);
classes = (
{

glyphs = (
{
glyphname = .notdef;
layers = (
{
layerId = "E6FBA6FA-5C25-4A6C-B37B-1AAF22FBF472";
shapes = (
{
closed = 1;
nodes = (
(90,650,ls),
(90,704,o),
(126,730,o),
(180,730,cs),
(420,730,ls),
(474,730,o),
(510,704,o),
(510,650,cs),
(510,80,ls),
(510,26,o),
(474,0,o),
(420,0,cs),
(180,0,ls),
(126,0,o),
(90,26,o),
(90,80,cs)
);
},
{
closed = 1;
nodes = (
(370,120,ls),
(397,120,o),
(400,123,o),
(400,150,cs),
(400,580,ls),
(400,607,o),
(397,610,o),
(370,610,cs),
(230,610,ls),
(203,610,o),
(200,607,o),
(200,580,cs),
(200,150,ls),
(200,123,o),
(203,120,o),
(230,120,cs)
);
},
{
closed = 1;
nodes = (
(135,52,l),
(365,680,l),
(465,680,l),
(235,52,l)
);
},
{
closed = 1;
nodes = (
(365,52,l),
(135,680,l),
(235,680,l),
(465,52,l)
);
}
);
width = 600;
},
{
layerId = "044B5795-75D4-4E5A-ADC6-7EB8037CE6F5";
shapes = (
{
closed = 1;
nodes = (
(100,650,ls),
(100,704,o),
(126,730,o),
(180,730,cs),
(420,730,ls),
(474,730,o),
(500,704,o),
(500,650,cs),
(500,80,ls),
(500,26,o),
(474,0,o),
(420,0,cs),
(180,0,ls),
(126,0,o),
(100,26,o),
(100,80,cs)
);
},
{
closed = 1;
nodes = (
(370,90,ls),
(397,90,o),
(410,103,o),
(410,130,cs),
(410,600,ls),
(410,627,o),
(397,640,o),
(370,640,cs),
(230,640,ls),
(203,640,o),
(190,627,o),
(190,600,cs),
(190,130,ls),
(190,103,o),
(203,90,o),
(230,90,cs)
);
},
{
closed = 1;
nodes = (
(145,52,l),
(375,680,l),
(455,680,l),
(225,52,l)
);
},
{
closed = 1;
nodes = (
(375,52,l),
(145,680,l),
(225,680,l),
(455,52,l)
);
}
);
width = 600;
},
{
layerId = "50AD700C-E391-419B-B293-150AAD617642";
shapes = (
{
closed = 1;
nodes = (
(110,660,ls),
(110,704,o),
(136,730,o),
(180,730,cs),
(420,730,ls),
(464,730,o),
(490,704,o),
(490,660,cs),
(490,70,ls),
(490,26,o),
(464,0,o),
(420,0,cs),
(180,0,ls),
(136,0,o),
(110,26,o),
(110,70,cs)
);
},
{
closed = 1;
nodes = (
(370,60,ls),
(407,60,o),
(430,83,o),
(430,120,cs),
(430,610,ls),
(430,647,o),
(407,670,o),
(370,670,cs),
(230,670,ls),
(193,670,o),
(170,647,o),
(170,610,cs),
(170,120,ls),
(170,83,o),
(193,60,o),
(230,60,cs)
);
},
{
closed = 1;
nodes = (
(145,42,l),
(395,690,l),
(455,690,l),
(205,42,l)
);
},
{
closed = 1;
nodes = (
(395,42,l),
(145,690,l),
(205,690,l),
(455,42,l)
);
}
);
width = 600;
}
);
},
{
color = (153, 254, 255, 255);
glyphname = A;
layers = (
{
layerId = "E6FBA6FA-5C25-4A6C-B37B-1AAF22FBF472";
shapes = (
{
closed = 1;
nodes = (
(444,148,ls),
(445,168,o),
(435,177,o),
(415,177,cs),
(261,177,ls),
(241,177,o),
(227,168,o),
(216,148,cs),
(164,40,ls),
(147,6,o),
(113,-10,o),
(74,-10,cs),
(34,-10,o),
(17,7,o),
(25,43,cs),
(28,56,o),
(34,72,o),
(43,90,cs),
(339,664,ls),
(366,715,o),
(404,740,o),
(457,740,cs),
(510,740,o),
(538,715,o),
(543,664,cs),
(596,96,ls),
(598,79,o),
(597,63,o),
(595,50,cs),
(586,10,o),
(557,-10,o),
(513,-10,cs),
(472,-10,o),
(445,8,o),
(444,44,cs)
);
},
{
closed = 1;
nodes = (
(412,295,ls),
(428,295,o),
(437,301,o),
(440,313,cs),
(440,316,o),
(440,320,o),
(440,324,cs),
(425,518,ls),
(424,528,o),
(419,532,o),
(413,532,cs),
(407,532,o),
(400,528,o),
(395,518,cs),
(299,324,ls),
(297,320,o),
(295,316,o),
(295,313,cs),
(292,301,o),
(299,295,o),
(315,295,cs)
);
}
);
width = 600;
},
{
layerId = "044B5795-75D4-4E5A-ADC6-7EB8037CE6F5";
shapes = (
{
closed = 1;
nodes = (
(472,172,ls),
(470,185,o),
(464,191,o),
(451,191,cs),
(231,191,ls),
(218,191,o),
(208,185,o),
(202,172,cs),
(128,27,ls),
(115,2,o),
(97,-10,o),
(68,-10,cs),
(41,-10,o),
(25,4,o),
(31,33,cs),
(33,42,o),
(37,52,o),
(42,63,c),
(366,684,ls),
(386,722,o),
(417,741,o),
(457,741,cs),
(497,741,o),
(518,722,o),
(522,684,cs),
(584,63,l),
(585,52,o),
(585,42,o),
(583,33,cs),
(577,4,o),
(555,-10,o),
(528,-10,cs),
(499,-10,o),
(485,2,o),
(484,27,cs)
);
},
{
closed = 1;
nodes = (
(443,271,ls),
(453,271,o),
(459,275,o),
(461,283,cs),
(462,285,o),
(462,287,o),
(462,290,cs),
(441,598,ls),
(440,608,o),
(436,612,o),
(431,612,cs),
(425,612,o),
(419,608,o),
(414,598,cs),
(262,290,ls),
(260,287,o),
(259,284,o),
(259,282,cs),
(257,274,o),
(264,271,o),
(272,271,cs)
);
}
);
width = 600;
},
{
layerId = "50AD700C-E391-419B-B293-150AAD617642";
shapes = (
{
closed = 1;
nodes = (
(487,196,ls),
(486,202,o),
(481,206,o),
(474,206,cs),
(214,206,ls),
(207,206,o),
(199,202,o),
(196,196,cs),
(102,9,ls),
(95,-4,o),
(86,-10,o),
(73,-10,cs),
(56,-10,o),
(48,-2,o),
(51,13,cs),
(52,17,o),
(54,22,o),
(56,27,c),
(398,701,ls),
(412,727,o),
(430,740,o),
(457,740,cs),
(484,740,o),
(498,728,o),
(500,702,cs),
(557,28,l),
(558,22,o),
(558,17,o),
(557,12,cs),
(553,-3,o),
(542,-10,o),
(526,-10,cs),
(511,-10,o),
(502,-4,o),
(501,9,cs)
);
},
{
closed = 1;
nodes = (
(471,256,ls),
(477,256,o),
(480,258,o),
(481,262,cs),
(481,263,o),
(483,265,o),
(484,266,cs),
(453,653,ls),
(452,663,o),
(446,668,o),
(442,668,cs),
(438,668,o),
(430,663,o),
(425,653,cs),
(230,266,ls),
(229,265,o),
(231,263,o),
(231,262,cs),
(230,258,o),
(231,256,o),
(237,256,cs)
);
}
);
width = 600;
}
);
unicode = 65;
},
{
color = (153, 254, 255, 255);
glyphname = AE;
layers = (
{
layerId = "E6FBA6FA-5C25-4A6C-B37B-1AAF22FBF472";
shapes = (
{
closed = 1;
nodes = (
(24,0,o),
(9,23,o),
(28,70,cs),
(253,632,ls),
(279,698,o),
(325,730,o),
(392,730,cs),
(673,730,ls),
(715,730,o),
(731,710,o),
(722,668,cs),
(713,626,o),
(689,605,o),
(647,605,cs),
(570,605,ls),
(553,605,o),
(543,597,o),
(539,580,cs),
(514,461,ls),
(510,444,o),
(517,436,o),
(534,436,cs),
(582,436,ls),
(626,436,o),
(643,415,o),
(634,371,cs),
(625,327,o),
(598,305,o),
(554,305,cs),
(506,305,ls),
(489,305,o),
(479,297,o),
(476,280,cs),
(453,176,ls),
(446,142,o),
(460,126,o),
(493,126,cs),
(544,126,ls),
(586,126,o),
(602,105,o),
(593,63,cs),
(584,21,o),
(559,0,o),
(517,0,cs),
(391,0,ls),
(324,0,o),
(298,33,o),
(312,100,cs),
(321,140,ls),
(324,157,o),
(318,165,o),
(301,165,cs),
(229,165,ls),
(212,165,o),
(201,157,o),
(195,140,cs),
(169,71,ls),
(152,24,o),
(120,0,o),
(72,0,cs)
);
},
{
closed = 1;
nodes = (
(253,295,ls),
(246,278,o),
(251,270,o),
(268,270,cs),
(323,270,ls),
(340,270,o),
(350,278,o),
(354,295,cs),
(415,581,ls),
(418,597,o),
(412,605,o),
(396,605,cs),
(380,605,o),
(368,597,o),
(362,581,cs)
);
}
);
width = 600;
},
{
anchors = (
{
name = m.uni0308;
position = "{455, 730}";
},
{
name = m.uni0325_2;
position = "{300, 0}";
}
);
layerId = "044B5795-75D4-4E5A-ADC6-7EB8037CE6F5";
shapes = (
{
closed = 1;
nodes = (
(46,0,o),
(36,15,o),
(49,45,cs),
(298,652,ls),
(319,705,o),
(356,730,o),
(410,730,cs),
(685,730,ls),
(712,730,o),
(722,717,o),
(717,690,cs),
(711,663,o),
(695,648,o),
(668,648,cs),
(546,648,ls),
(533,648,o),
(524,641,o),
(522,628,cs),
(482,440,ls),
(479,427,o),
(484,420,o),
(497,420,cs),
(594,420,ls),
(621,420,o),
(632,407,o),
(626,380,cs),
(620,353,o),
(604,338,o),
(577,338,cs),
(480,338,ls),
(467,338,o),
(458,331,o),
(456,318,cs),
(414,122,ls),
(408,95,o),
(418,82,o),
(445,82,cs),
(547,82,ls),
(574,82,o),
(585,69,o),
(579,42,cs),
(573,15,o),
(557,0,o),
(530,0,cs),
(382,0,ls),
(328,0,o),
(308,26,o),
(319,80,cs),
(341,183,ls),
(344,196,o),
(338,203,o),
(325,203,cs),
(224,203,ls),
(211,203,o),
(202,196,o),
(196,183,cs),
(140,45,ls),
(127,15,o),
(106,0,o),
(76,0,c)
);
},
{
closed = 1;
nodes = (
(242,298,ls),
(237,285,o),
(241,278,o),
(254,278,cs),
(341,278,ls),
(354,278,o),
(363,285,o),
(365,298,cs),
(434,620,ls),
(438,639,o),
(431,648,o),
(412,648,c),
(393,648,o),
(381,639,o),
(373,621,cs)
);
}
);
width = 600;
},
{
layerId = "50AD700C-E391-419B-B293-150AAD617642";
shapes = (
{
closed = 1;
nodes = (
(42,0,o),
(38,8,o),
(45,24,cs),
(350,672,ls),
(368,711,o),
(397,730,o),
(437,730,cs),
(701,730,ls),
(716,730,o),
(723,723,o),
(720,708,cs),
(716,693,o),
(708,685,o),
(693,685,cs),
(521,685,ls),
(511,685,o),
(505,680,o),
(502,670,cs),
(449,417,ls),
(447,407,o),
(450,402,o),
(460,402,cs),
(596,402,ls),
(611,402,o),
(617,395,o),
(614,380,cs),
(611,365,o),
(602,357,o),
(587,357,cs),
(451,357,ls),
(441,357,o),
(435,352,o),
(433,342,cs),
(376,75,ls),
(372,55,o),
(380,45,o),
(400,45,cs),
(557,45,ls),
(572,45,o),
(577,38,o),
(574,23,cs),
(571,8,o),
(561,0,o),
(546,0,cs),
(370,0,ls),
(330,0,o),
(314,20,o),
(323,60,cs),
(353,200,ls),
(355,210,o),
(351,215,o),
(341,215,cs),
(201,215,ls),
(191,215,o),
(184,210,o),
(179,200,cs),
(95,24,ls),
(88,8,o),
(76,0,o),
(59,0,cs)
);
},
{
closed = 1;
nodes = (
(215,275,ls),
(211,265,o),
(213,260,o),
(223,260,cs),
(350,260,ls),
(360,260,o),
(366,265,o),
(368,275,cs),
(450,659,ls),
(454,676,o),
(448,685,o),
(431,685,cs),
(414,685,o),
(401,677,o),
(393,660,cs)
);
}
);
width = 600;
}
);
unicode = 198;
},
{
color = (153, 254, 255, 255);
glyphname = B;
layers = (
{
layerId = "E6FBA6FA-5C25-4A6C-B37B-1AAF22FBF472";
shapes = (
{
closed = 1;
nodes = (
(522,390,o),
(521,385,o),
(532,381,cs),
(555,374,o),
(571,359,qs),
(598,335,o),
(616,258,o),
(606,211,qs),
(592,148,o),
(509,53,o),
(385,0,o),
(310,0,qs),
(156,0,ls),
(106,0,o),
(75,40,o),
(85,90,cs),
(200,630,ls),
(215,700,o),
(251,730,o),
(321,730,cs),
(456,730,ls),
(529,730,o),
(628,683,o),
(671,599,o),
(659,542,qs),
(651,501,o),
(607,436,o),
(574,415,qs),
(555,402,o),
(535,395,qs)
);
},
{
closed = 1;
nodes = (
(309,318,ls),
(294,318,o),
(281,308,o),
(278,293,cs),
(250,160,ls),
(245,135,o),
(257,120,o),
(282,120,cs),
(331,120,ls),
(380,120,o),
(448,172,o),
(458,219,qs),
(467,265,o),
(422,318,o),
(373,318,qs)
);
},
{
closed = 1;
nodes = (
(314,463,ls),
(311,448,o),
(319,438,o),
(334,438,cs),
(392,438,ls),
(436,438,o),
(497,483,o),
(505,523,qs),
(514,564,o),
(473,610,o),
(429,610,qs),
(386,610,ls),
(361,610,o),
(342,595,o),
(337,570,cs)
);
}
);
width = 600;
},
{
layerId = "044B5795-75D4-4E5A-ADC6-7EB8037CE6F5";
shapes = (
{
closed = 1;
nodes = (
(480,381,o),
(480,378,o),
(489,375,cs),
(519,366,o),
(540,348,qs),
(569,324,o),
(585,259,o),
(575,213,qs),
(562,151,o),
(488,49,o),
(382,0,o),
(315,0,qs),
(172,0,ls),
(116,0,o),
(98,23,o),
(110,80,cs),
(231,650,ls),
(243,707,o),
(271,730,o),
(327,730,cs),
(454,730,ls),
(522,730,o),
(608,685,o),
(641,600,o),
(628,541,qs),
(620,504,o),
(581,441,o),
(553,418,qs),
(527,397,o),
(490,384,qs)
);
},
{
closed = 1;
nodes = (
(277,329,ls),
(260,329,o),
(250,321,o),
(247,304,cs),
(210,130,ls),
(204,102,o),
(213,90,o),
(241,90,cs),
(324,90,ls),
(387,90,o),
(475,158,o),
(487,216,qs),
(500,278,o),
(441,329,o),
(375,329,qs)
);
},
{
closed = 1;
nodes = (
(276,444,ls),
(273,427,o),
(279,419,o),
(296,419,cs),
(387,419,ls),
(456,419,o),
(526,481,o),
(538,534,qs),
(549,587,o),
(494,640,o),
(435,640,qs),
(358,640,ls),
(329,640,o),
(316,628,o),
(310,600,cs)
);
}
);
width = 600;
},
{
layerId = "50AD700C-E391-419B-B293-150AAD617642";
shapes = (
{
closed = 1;
nodes = (
(469,376,o),
(470,373,o),
(474,372,cs),
(509,362,o),
(526,341,qs),
(551,313,o),
(567,245,o),
(558,200,qs),
(545,139,o),
(472,49,o),
(367,0,o),
(301,0,qs),
(180,0,ls),
(136,0,o),
(116,26,o),
(125,70,cs),
(250,660,ls),
(260,704,o),
(291,730,o),
(335,730,cs),
(453,730,ls),
(514,730,o),
(593,684,o),
(625,599,o),
(613,542,qs),
(605,505,o),
(574,443,o),
(544,416,qs),
(521,394,o),
(474,378,qs)
);
},
{
closed = 1;
nodes = (
(249,348,ls),
(240,348,o),
(233,342,o),
(231,333,cs),
(178,85,ls),
(173,63,o),
(184,50,o),
(206,50,cs),
(312,50,ls),
(389,50,o),
(492,128,o),
(507,199,qs),
(522,270,o),
(448,348,o),
(375,348,qs)
);
},
{
closed = 1;
nodes = (
(248,413,ls),
(246,404,o),
(251,398,o),
(260,398,cs),
(383,398,ls),
(447,398,o),
(549,474,o),
(563,541,qs),
(577,608,o),
(513,680,o),
(443,680,qs),
(340,680,ls),
(318,680,o),
(302,667,o),
(297,645,cs)
);
}
);
width = 600;
}
);
unicode = 66;
},
{
color = (153, 254, 255, 255);
glyphname = C;
layers = (
{
layerId = "E6FBA6FA-5C25-4A6C-B37B-1AAF22FBF472";
shapes = (
{
closed = 1;
nodes = (
(171,567,o),
(291,740,o),
(520,740,cs),
(572,740,o),
(683,736,o),
(687,670,cs),
(688,660,o),
(687,650,o),
(685,640,cs),
(680,616,o),
(668,602,o),
(642,588,cs),
(632,583,o),
(624,583,o),
(616,583,cs),
(605,583,o),
(594,586,o),
(583,591,cs),
(559,603,o),
(533,608,o),
(498,608,cs),
(362,608,o),
(301,476,o),
(277,364,cs),
(255,260,o),
(251,122,o),
(381,122,cs),
(414,122,o),
(442,126,o),
(476,137,cs),
(490,141,o),
(503,143,o),
(516,143,cs),
(523,143,o),
(530,143,o),
(537,140,cs),
(560,131,o),
(566,110,o),
(561,85,cs),
(559,76,o),
(556,67,o),
(551,57,cs),
(518,-10,o),
(403,-10,o),
(347,-10,cs),
(131,-10,o),
(86,169,o),
(127,361,cs)
);
}
);
width = 600;
},
{
layerId = "044B5795-75D4-4E5A-ADC6-7EB8037CE6F5";
shapes = (
{
closed = 1;
nodes = (
(181,569,o),
(300,740,o),
(526,740,cs),
(574,740,o),
(679,733,o),
(680,686,cs),
(680,682,o),
(679,678,o),
(678,674,cs),
(675,657,o),
(663,639,o),
(648,633,cs),
(642,631,o),
(638,630,o),
(633,630,cs),
(626,630,o),
(619,632,o),
(615,634,cs),
(583,645,o),
(543,650,o),
(507,650,cs),
(354,650,o),
(255,496,o),
(227,362,cs),
(201,238,o),
(207,80,o),
(371,80,cs),
(410,80,o),
(440,82,o),
(477,94,cs),
(487,97,o),
(497,99,o),
(507,99,cs),
(514,99,o),
(522,98,o),
(527,95,cs),
(541,88,o),
(547,74,o),
(543,58,cs),
(542,50,o),
(538,42,o),
(531,34,cs),
(497,-10,o),
(404,-10,o),
(352,-10,cs),
(139,-10,o),
(96,168,o),
(137,362,cs)
);
}
);
width = 600;
},
{
layerId = "50AD700C-E391-419B-B293-150AAD617642";
shapes = (
{
closed = 1;
nodes = (
(191,569,o),
(308,740,o),
(531,740,cs),
(574,740,o),
(659,736,o),
(675,705,cs),
(676,702,o),
(676,698,o),
(676,694,cs),
(674,685,o),
(669,674,o),
(657,669,cs),
(652,667,o),
(648,667,o),
(646,667,cs),
(639,667,o),
(634,669,o),
(628,673,cs),
(611,683,o),
(572,690,o),
(521,690,cs),
(334,690,o),
(231,522,o),
(198,365,cs),
(167,220,o),
(188,40,o),
(367,40,cs),
(400,40,o),
(460,40,o),
(503,54,cs),
(509,56,o),
(513,57,o),
(518,57,cs),
(521,57,o),
(525,56,o),
(527,54,cs),
(534,48,o),
(536,39,o),
(535,31,cs),
(534,26,o),
(532,22,o),
(529,18,cs),
(508,-8,o),
(403,-10,o),
(356,-10,cs),
(147,-10,o),
(106,168,o),
(147,362,cs)
);
}
);
width = 600;
}
);
unicode = 67;
},
{
color = (153, 254, 255, 255);
glyphname = D;
layers = (
{
layerId = "E6FBA6FA-5C25-4A6C-B37B-1AAF22FBF472";
shapes = (
{
closed = 1;
nodes = (
(153,0,ls),
(93,0,o),
(69,30,o),
(82,90,cs),
(199,640,ls),
(212,700,o),
(248,730,o),
(308,730,cs),
(425,730,ls),
(524,730,o),
(623,672,o),
(657,551,o),
(655,485,qs),
(654,442,o),
(650,405,o),
(642,367,cs),
(634,328,o),
(621,289,o),
(604,245,cs),
(577,175,o),
(493,59,o),
(369,0,o),
(270,0,qs)
);
},
{
closed = 1;
nodes = (
(250,175,ls),
(244,148,o),
(255,135,o),
(282,135,cs),
(299,135,ls),
(368,135,o),
(441,206,o),
(458,245,qs),
(477,289,o),
(491,327,o),
(499,365,cs),
(507,403,o),
(510,442,o),
(509,485,cs),
(508,528,o),
(464,595,o),
(396,595,qs),
(379,595,ls),
(352,595,o),
(337,582,o),
(331,555,cs)
);
}
);
width = 600;
},
{
layerId = "044B5795-75D4-4E5A-ADC6-7EB8037CE6F5";
shapes = (
{
closed = 1;
nodes = (
(172,0,ls),
(118,0,o),
(98,26,o),
(109,80,cs),
(230,650,ls),
(242,704,o),
(273,730,o),
(327,730,cs),
(416,730,ls),
(487,730,o),
(588,680,o),
(619,577,o),
(621,511,qs),
(622,466,o),
(617,417,o),
(606,369,cs),
(596,318,o),
(579,268,o),
(559,220,cs),
(531,154,o),
(454,50,o),
(332,0,o),
(261,0,qs)
);
},
{
closed = 1;
nodes = (
(210,130,ls),
(204,103,o),
(214,90,o),
(241,90,cs),
(280,90,ls),
(350,90,o),
(448,165,o),
(478,230,qs),
(499,277,o),
(514,322,o),
(524,366,cs),
(533,411,o),
(537,455,o),
(536,501,cs),
(533,565,o),
(467,640,o),
(397,640,qs),
(358,640,ls),
(331,640,o),
(315,627,o),
(310,600,cs)
);
}
);
width = 600;
},
{
layerId = "50AD700C-E391-419B-B293-150AAD617642";
shapes = (
{
closed = 1;
nodes = (
(181,0,ls),
(133,0,o),
(115,23,o),
(125,70,cs),
(250,660,ls),
(260,707,o),
(288,730,o),
(336,730,cs),
(386,730,ls),
(473,730,o),
(581,665,o),
(607,566,o),
(601,500,qs),
(596,449,o),
(591,407,o),
(582,365,cs),
(573,323,o),
(561,282,o),
(544,230,cs),
(522,164,o),
(454,65,o),
(318,0,o),
(231,0,qs)
);
},
{
closed = 1;
nodes = (
(179,85,ls),
(174,62,o),
(184,50,o),
(207,50,cs),
(242,50,ls),
(350,50,o),
(468,151,o),
(494,230,qs),
(510,282,o),
(522,323,o),
(531,365,cs),
(540,407,o),
(545,449,o),
(551,500,cs),
(559,578,o),
(483,680,o),
(376,680,qs),
(341,680,ls),
(318,680,o),
(303,668,o),
(298,645,cs)
);
}
);
width = 600;
}
);
unicode = 68;
},
{
color = (153, 254, 255, 255);
glyphname = E;
layers = (
{
layerId = "E6FBA6FA-5C25-4A6C-B37B-1AAF22FBF472";
shapes = (
{
closed = 1;
nodes = (
(398,600,ls),
(369,600,o),
(355,588,o),
(349,560,cs),
(330,470,ls),
(325,448,o),
(332,440,o),
(354,440,cs),
(527,440,ls),
(569,440,o),
(588,417,o),
(579,375,cs),
(570,333,o),
(540,308,o),
(498,308,cs),
(325,308,ls),
(305,308,o),
(293,298,o),
(289,278,cs),
(266,170,ls),
(260,143,o),
(271,130,o),
(298,130,cs),
(493,130,ls),
(537,130,o),
(553,109,o),
(544,65,cs),
(534,21,o),
(509,0,o),
(465,0,cs),
(180,0,ls),
(113,0,o),
(87,33,o),
(101,100,cs),
(214,630,ls),
(228,697,o),
(268,730,o),
(335,730,cs),
(620,730,ls),
(664,730,o),
(681,709,o),
(671,665,cs),
(662,621,o),
(637,600,o),
(593,600,cs)
);
}
);
width = 600;
},
{
layerId = "044B5795-75D4-4E5A-ADC6-7EB8037CE6F5";
shapes = (
{
closed = 1;
nodes = (
(366,640,ls),
(339,640,o),
(323,627,o),
(318,600,cs),
(286,452,ls),
(282,435,o),
(289,427,o),
(306,427,cs),
(536,427,ls),
(563,427,o),
(577,409,o),
(571,382,cs),
(565,355,o),
(544,337,o),
(517,337,cs),
(287,337,ls),
(270,337,o),
(260,329,o),
(256,312,cs),
(218,130,ls),
(212,103,o),
(222,90,o),
(249,90,cs),
(498,90,ls),
(525,90,o),
(535,72,o),
(530,45,cs),
(524,18,o),
(506,0,o),
(479,0,cs),
(180,0,ls),
(126,0,o),
(106,26,o),
(117,80,cs),
(238,650,ls),
(250,704,o),
(281,730,o),
(335,730,cs),
(634,730,ls),
(661,730,o),
(671,712,o),
(666,685,cs),
(660,658,o),
(642,640,o),
(615,640,cs)
);
}
);
width = 600;
},
{
layerId = "50AD700C-E391-419B-B293-150AAD617642";
shapes = (
{
closed = 1;
nodes = (
(350,680,ls),
(327,680,o),
(312,668,o),
(307,645,cs),
(261,426,ls),
(258,413,o),
(263,406,o),
(276,406,cs),
(539,406,ls),
(554,406,o),
(559,396,o),
(556,381,cs),
(553,366,o),
(544,356,o),
(529,356,cs),
(266,356,ls),
(253,356,o),
(244,349,o),
(241,336,cs),
(188,85,ls),
(183,62,o),
(193,50,o),
(216,50,cs),
(498,50,ls),
(513,50,o),
(519,40,o),
(515,25,cs),
(512,10,o),
(502,0,o),
(487,0,cs),
(190,0,ls),
(143,0,o),
(125,23,o),
(135,70,cs),
(260,660,ls),
(270,707,o),
(298,730,o),
(345,730,cs),
(642,730,ls),
(657,730,o),
(663,720,o),
(660,705,cs),
(657,690,o),
(647,680,o),
(632,680,cs)
);
}
);
width = 600;
}
);
unicode = 69;
},
{
glyphname = Eopen;
layers = (
{
layerId = "E6FBA6FA-5C25-4A6C-B37B-1AAF22FBF472";
shapes = (
{
closed = 1;
nodes = (
(639,696,o),
(560,740,o),
(462,740,cs),
(341,740,o),
(208,676,o),
(179,541,cs),
(164,469,o),
(190,399,o),
(261,386,c),
(173,368,o),
(106,291,o),
(88,207,cs),
(57,59,o),
(175,-10,o),
(307,-10,cs),
(407,-10,o),
(512,31,o),
(571,114,cs),
(611,168,o),
(587,210,o),
(516,210,cs),
(493,210,o),
(474,198,o),
(444,163,cs),
(417,132,o),
(373,118,o),
(334,118,cs),
(274,118,o),
(228,152,o),
(242,217,cs),
(257,288,o),
(313,316,o),
(368,316,cs),
(396,316,ls),
(438,316,o),
(462,336,o),
(471,378,cs),
(480,420,o),
(465,440,o),
(423,440,cs),
(395,440,ls),
(348,440,o),
(313,465,o),
(326,529,cs),
(338,583,o),
(386,616,o),
(438,616,cs),
(477,616,o),
(503,598,o),
(512,568,cs),
(523,531,o),
(535,520,o),
(562,520,cs),
(633,520,o),
(674,561,o),
(660,616,cs)
);
}
);
width = 600;
},
{
anchors = (
{
name = m.uni0308;
position = "{455, 730}";
},
{
name = m.uni0325_2;
position = "{300, 0}";
}
);
layerId = "044B5795-75D4-4E5A-ADC6-7EB8037CE6F5";
shapes = (
{
closed = 1;
nodes = (
(642,685,o),
(568,740,o),
(462,740,cs),
(348,740,o),
(232,674,o),
(206,551,cs),
(190,477,o),
(217,403,o),
(288,384,c),
(194,368,o),
(127,286,o),
(108,199,cs),
(79,61,o),
(181,-10,o),
(307,-10,cs),
(414,-10,o),
(520,43,o),
(569,141,cs),
(588,178,o),
(573,200,o),
(531,200,cs),
(512,200,o),
(501,191,o),
(491,170,cs),
(462,104,o),
(392,70,o),
(323,70,cs),
(241,70,o),
(183,118,o),
(202,205,cs),
(220,292,o),
(298,340,o),
(380,340,cs),
(426,340,ls),
(453,340,o),
(469,353,o),
(475,380,cs),
(481,407,o),
(470,420,o),
(443,420,cs),
(397,420,ls),
(339,420,o),
(274,448,o),
(294,542,cs),
(310,616,o),
(374,660,o),
(445,660,cs),
(513,660,o),
(555,622,o),
(554,560,cs),
(554,539,o),
(562,530,o),
(581,530,cs),
(623,530,o),
(649,553,o),
(646,590,cs)
);
}
);
width = 600;
},
{
layerId = "50AD700C-E391-419B-B293-150AAD617642";
shapes = (
{
closed = 1;
nodes = (
(644,670,o),
(578,740,o),
(463,740,cs),
(348,740,o),
(244,665,o),
(219,547,cs),
(203,471,o),
(231,397,o),
(305,381,c),
(214,360,o),
(143,282,o),
(124,194,cs),
(96,63,o),
(185,-10,o),
(308,-10,cs),
(422,-10,o),
(530,52,o),
(570,163,cs),
(577,184,o),
(569,196,o),
(546,196,cs),
(535,196,o),
(527,190,o),
(524,179,cs),
(496,86,o),
(409,35,o),
(317,35,cs),
(220,35,o),
(153,93,o),
(175,196,cs),
(197,299,o),
(289,356,o),
(386,356,cs),
(428,356,ls),
(443,356,o),
(452,364,o),
(456,379,cs),
(459,394,o),
(453,401,o),
(438,401,cs),
(391,401,ls),
(302,401,o),
(250,458,o),
(270,549,cs),
(289,639,o),
(366,696,o),
(454,696,cs),
(546,696,o),
(595,635,o),
(583,547,cs),
(582,536,o),
(587,530,o),
(598,530,cs),
(621,530,o),
(634,541,o),
(636,563,cs)
);
}
);
width = 600;
}
);
unicode = 400;
},
{
color = (153, 254, 255, 255);
glyphname = Schwa;
layers = (
{
layerId = "E6FBA6FA-5C25-4A6C-B37B-1AAF22FBF472";
shapes = (
{
closed = 1;
nodes = (
(251,310,ls),
(242,310,o),
(237,305,o),
(236,296,cs),
(220,158,o),
(247,115,o),
(319,115,cs),
(388,115,o),
(444,157,o),
(487,294,cs),
(490,304,o),
(488,310,o),
(477,310,cs)
);
},
{
closed = 1;
nodes = (
(633,740,o),
(694,593,o),
(647,373,cs),
(598,143,o),
(475,-10,o),
(293,-10,cs),
(102,-10,o),
(65,131,o),
(115,365,cs),
(124,409,o),
(148,430,o),
(189,430,cs),
(502,430,ls),
(515,430,o),
(520,435,o),
(522,445,cs),
(534,565,o),
(487,620,o),
(417,620,cs),
(336,620,o),
(291,570,o),
(265,556,cs),
(251,548,o),
(238,542,o),
(228,542,cs),
(194,542,o),
(174,572,o),
(180,603,cs),
(184,620,o),
(194,633,o),
(208,645,cs),
(268,693,o),
(342,740,o),
(452,740,cs)
);
}
);
width = 600;
},
{
layerId = "044B5795-75D4-4E5A-ADC6-7EB8037CE6F5";
shapes = (
{
closed = 1;
nodes = (
(241,330,ls),
(230,330,o),
(225,327,o),
(222,314,cs),
(189,160,o),
(222,80,o),
(317,80,cs),
(416,80,o),
(498,180,o),
(527,316,cs),
(530,329,o),
(523,330,o),
(514,330,cs)
);
},
{
closed = 1;
nodes = (
(610,740,o),
(680,612,o),
(629,373,cs),
(581,145,o),
(473,-10,o),
(298,-10,cs),
(124,-10,o),
(85,127,o),
(137,373,cs),
(142,397,o),
(166,420,o),
(194,420,cs),
(531,420,ls),
(544,420,o),
(550,425,o),
(553,439,cs),
(580,563,o),
(527,650,o),
(428,650,cs),
(347,650,o),
(285,596,o),
(257,577,cs),
(247,571,o),
(245,568,o),
(235,568,cs),
(210,568,o),
(195,590,o),
(200,612,cs),
(203,624,o),
(210,634,o),
(219,642,cs),
(280,690,o),
(360,740,o),
(450,740,cs)
);
}
);
width = 600;
},
{
layerId = "50AD700C-E391-419B-B293-150AAD617642";
shapes = (
{
closed = 1;
nodes = (
(199,342,ls),
(193,342,o),
(190,339,o),
(189,332,cs),
(150,151,o),
(179,40,o),
(309,40,cs),
(439,40,o),
(518,161,o),
(555,332,cs),
(556,338,o),
(555,342,o),
(549,342,cs)
);
},
{
closed = 1;
nodes = (
(623,730,o),
(664,594,o),
(617,373,cs),
(568,142,o),
(478,-10,o),
(298,-10,cs),
(118,-10,o),
(95,128,o),
(145,362,cs),
(148,377,o),
(162,392,o),
(178,392,cs),
(560,392,ls),
(565,392,o),
(571,396,o),
(573,403,cs),
(609,572,o),
(554,680,o),
(440,680,cs),
(339,680,o),
(299,637,o),
(258,601,cs),
(247,591,o),
(241,586,o),
(233,586,cs),
(218,586,o),
(209,604,o),
(212,618,cs),
(214,625,o),
(218,631,o),
(224,636,cs),
(287,690,o),
(340,730,o),
(450,730,cs)
);
}
);
width = 600;
}
);
unicode = 399;
},
{
color = (153, 254, 255, 255);
glyphname = F;
layers = (
{
layerId = "E6FBA6FA-5C25-4A6C-B37B-1AAF22FBF472";
shapes = (
{
closed = 1;
nodes = (
(206,640,ls),
(219,700,o),
(255,730,o),
(315,730,cs),
(630,730,ls),
(674,730,o),
(691,709,o),
(681,665,cs),
(672,621,o),
(647,600,o),
(603,600,cs),
(388,600,ls),
(361,600,o),
(345,588,o),
(339,560,cs),
(319,466,ls),
(315,446,o),
(323,436,o),
(343,436,cs),
(545,436,ls),
(587,436,o),
(602,416,o),
(593,374,cs),
(585,332,o),
(560,312,o),
(518,312,cs),
(316,312,ls),
(296,312,o),
(284,302,o),
(280,282,cs),
(236,75,ls),
(225,25,o),
(195,0,o),
(145,0,cs),
(95,0,o),
(75,25,o),
(86,75,cs)
);
}
);
width = 600;
},
{
layerId = "044B5795-75D4-4E5A-ADC6-7EB8037CE6F5";
shapes = (
{
closed = 1;
nodes = (
(233,650,ls),
(245,704,o),
(276,730,o),
(330,730,cs),
(635,730,ls),
(665,730,o),
(677,715,o),
(671,685,cs),
(664,655,o),
(646,640,o),
(616,640,cs),
(361,640,ls),
(334,640,o),
(318,627,o),
(313,600,cs),
(281,452,ls),
(277,435,o),
(284,427,o),
(301,427,cs),
(550,427,ls),
(577,427,o),
(587,414,o),
(581,387,cs),
(576,360,o),
(560,347,o),
(533,347,cs),
(284,347,ls),
(267,347,o),
(257,339,o),
(253,322,cs),
(195,45,ls),
(188,15,o),
(170,0,o),
(140,0,cs),
(110,0,o),
(98,15,o),
(105,45,cs)
);
}
);
width = 600;
},
{
layerId = "50AD700C-E391-419B-B293-150AAD617642";
shapes = (
{
closed = 1;
nodes = (
(255,660,ls),
(265,707,o),
(293,730,o),
(340,730,cs),
(655,730,ls),
(672,730,o),
(678,722,o),
(675,705,cs),
(671,688,o),
(662,680,o),
(645,680,cs),
(345,680,ls),
(322,680,o),
(307,668,o),
(302,645,cs),
(256,426,ls),
(253,413,o),
(258,406,o),
(271,406,cs),
(551,406,ls),
(568,406,o),
(575,398,o),
(571,381,cs),
(567,364,o),
(558,356,o),
(541,356,cs),
(261,356,ls),
(248,356,o),
(239,349,o),
(236,336,cs),
(170,25,ls),
(167,8,o),
(157,0,o),
(140,0,cs),
(123,0,o),
(117,8,o),
(120,25,cs)
);
}
);
width = 600;
}
);
unicode = 70;
},
{
color = (153, 254, 255, 255);
glyphname = G;
layers = (
{
layerId = "E6FBA6FA-5C25-4A6C-B37B-1AAF22FBF472";
shapes = (
{
closed = 1;
nodes = (
(471,248,ls),
(476,275,o),
(466,288,o),
(439,288,cs),
(401,288,ls),
(361,288,o),
(345,308,o),
(354,348,cs),
(362,388,o),
(387,408,o),
(427,408,cs),
(515,408,ls),
(595,408,o),
(626,368,o),
(609,288,cs),
(593,210,ls),
(579,144,o),
(497,45,o),
(371,-10,o),
(298,-10,qs),
(226,-10,o),
(133,45,o),
(85,145,o),
(85,210,qs),
(85,319,o),
(105,401,o),
(148,510,cs),
(174,576,o),
(267,685,o),
(373,740,o),
(457,740,qs),
(520,740,o),
(624,685,o),
(643,636,q),
(647,627,o),
(650,616,q),
(667,559,o),
(630,520,o),
(559,520,cs),
(531,520,o),
(517,532,o),
(516,540,cs),
(512,568,o),
(488,588,qs),
(469,605,o),
(429,605,qs),
(384,605,o),
(303,524,o),
(284,471,qs),
(254,388,o),
(238,334,o),
(235,238,cs),
(233,186,o),
(284,125,o),
(327,125,qs),
(372,125,o),
(454,167,o),
(463,210,qs)
);
}
);
width = 600;
},
{
layerId = "044B5795-75D4-4E5A-ADC6-7EB8037CE6F5";
shapes = (
{
closed = 1;
nodes = (
(485,270,ls),
(491,297,o),
(479,300,o),
(452,300,cs),
(389,300,ls),
(359,300,o),
(347,315,o),
(353,345,cs),
(360,375,o),
(378,390,o),
(408,390,cs),
(521,390,ls),
(575,390,o),
(595,364,o),
(584,310,cs),
(561,200,ls),
(547,136,o),
(475,41,o),
(364,-10,o),
(298,-10,qs),
(234,-10,o),
(152,40,o),
(110,136,o),
(111,200,qs),
(111,316,o),
(134,405,o),
(179,520,cs),
(203,585,o),
(288,690,o),
(391,740,o),
(457,740,qs),
(513,740,o),
(602,689,o),
(618,642,qs),
(627,617,o),
(630,588,qs),
(634,551,o),
(612,530,o),
(571,530,cs),
(552,530,o),
(541,538,o),
(540,559,cs),
(537,608,o),
(511,627,qs),
(480,650,o),
(438,650,qs),
(384,650,o),
(293,577,o),
(271,521,qs),
(225,406,o),
(203,315,o),
(203,200,cs),
(203,139,o),
(266,80,o),
(317,80,qs),
(369,80,o),
(457,138,o),
(471,200,qs)
);
}
);
width = 600;
},
{
layerId = "50AD700C-E391-419B-B293-150AAD617642";
shapes = (
{
closed = 1;
nodes = (
(521,288,ls),
(525,308,o),
(518,318,o),
(498,318,cs),
(373,318,ls),
(356,318,o),
(349,326,o),
(353,343,cs),
(357,360,o),
(366,368,o),
(383,368,cs),
(528,368,ls),
(568,368,o),
(584,348,o),
(575,308,cs),
(553,200,ls),
(538,134,o),
(469,42,o),
(360,-10,o),
(298,-10,qs),
(239,-10,o),
(166,40,o),
(135,131,o),
(135,190,qs),
(136,312,o),
(162,408,o),
(208,530,cs),
(230,590,o),
(302,691,o),
(402,740,o),
(457,740,qs),
(517,740,o),
(596,688,o),
(611,641,qs),
(623,607,o),
(624,563,qs),
(624,542,o),
(613,530,o),
(590,530,cs),
(579,530,o),
(572,535,o),
(573,546,c),
(579,613,o),
(547,651,qs),
(515,690,o),
(447,690,qs),
(383,690,o),
(285,601,o),
(258,530,qs),
(212,408,o),
(187,312,o),
(185,190,cs),
(184,119,o),
(241,40,o),
(309,40,qs),
(381,40,o),
(486,122,o),
(503,200,qs)
);
}
);
width = 600;
}
);
unicode = 71;
},
{
color = (153, 254, 255, 255);
glyphname = H;
layers = (
{
layerId = "E6FBA6FA-5C25-4A6C-B37B-1AAF22FBF472";
shapes = (
{
closed = 1;
nodes = (
(89,-10,o),
(69,15,o),
(80,65,cs),
(207,665,ls),
(218,715,o),
(248,740,o),
(298,740,cs),
(348,740,o),
(368,715,o),
(357,665,cs),
(317,474,ls),
(313,457,o),
(319,449,o),
(336,449,cs),
(454,449,ls),
(471,449,o),
(481,457,o),
(485,474,cs),
(525,665,ls),
(536,715,o),
(566,740,o),
(616,740,cs),
(666,740,o),
(686,715,o),
(675,665,cs),
(548,65,ls),
(537,15,o),
(507,-10,o),
(457,-10,cs),
(407,-10,o),
(387,15,o),
(398,65,cs),
(444,284,ls),
(448,301,o),
(442,309,o),
(425,309,cs),
(307,309,ls),
(290,309,o),
(280,301,o),
(276,284,cs),
(230,65,ls),
(219,15,o),
(189,-10,o),
(139,-10,cs)
);
}
);
width = 600;
},
{
layerId = "044B5795-75D4-4E5A-ADC6-7EB8037CE6F5";
shapes = (
{
closed = 1;
nodes = (
(106,-10,o),
(94,5,o),
(100,35,cs),
(241,695,ls),
(247,725,o),
(265,740,o),
(295,740,cs),
(325,740,o),
(337,725,o),
(331,695,cs),
(277,442,ls),
(274,429,o),
(280,422,o),
(293,422,cs),
(487,422,ls),
(500,422,o),
(508,429,o),
(511,442,cs),
(565,695,ls),
(571,725,o),
(589,740,o),
(619,740,cs),
(649,740,o),
(661,725,o),
(655,695,cs),
(514,35,ls),
(508,5,o),
(490,-10,o),
(460,-10,cs),
(430,-10,o),
(418,5,o),
(424,35,cs),
(483,312,ls),
(486,325,o),
(481,332,o),
(468,332,cs),
(274,332,ls),
(261,332,o),
(252,325,o),
(249,312,cs),
(190,35,ls),
(184,5,o),
(166,-10,o),
(136,-10,cs)
);
}
);
width = 600;
},
{
layerId = "50AD700C-E391-419B-B293-150AAD617642";
shapes = (
{
closed = 1;
nodes = (
(116,-10,o),
(110,-2,o),
(113,15,cs),
(260,705,ls),
(263,722,o),
(273,730,o),
(290,730,cs),
(307,730,o),
(313,722,o),
(310,705,cs),
(249,420,ls),
(247,410,o),
(251,405,o),
(261,405,cs),
(511,405,ls),
(521,405,o),
(527,410,o),
(529,420,cs),
(590,705,ls),
(593,722,o),
(603,730,o),
(620,730,cs),
(637,730,o),
(643,722,o),
(640,705,cs),
(493,15,ls),
(490,-2,o),
(480,-10,o),
(463,-10,cs),
(446,-10,o),
(440,-2,o),
(443,15,cs),
(512,340,ls),
(514,350,o),
(510,355,o),
(500,355,cs),
(250,355,ls),
(240,355,o),
(234,350,o),
(232,340,cs),
(163,15,ls),
(160,-2,o),
(150,-10,o),
(133,-10,cs)
);
}
);
width = 600;
}
);
unicode = 72;
},
{
color = (153, 254, 255, 255);
glyphname = I;
layers = (
{
layerId = "E6FBA6FA-5C25-4A6C-B37B-1AAF22FBF472";
shapes = (
{
closed = 1;
nodes = (
(148,0,ls),
(103,0,o),
(85,23,o),
(94,68,cs),
(104,113,o),
(132,135,o),
(177,135,cs),
(229,135,ls),
(246,135,o),
(255,143,o),
(259,160,cs),
(346,570,ls),
(350,587,o),
(343,595,o),
(326,595,cs),
(274,595,ls),
(229,595,o),
(211,618,o),
(221,663,cs),
(231,708,o),
(258,730,o),
(303,730,cs),
(607,730,ls),
(652,730,o),
(671,708,o),
(661,663,cs),
(651,618,o),
(623,595,o),
(578,595,cs),
(526,595,ls),
(509,595,o),
(500,587,o),
(496,570,cs),
(409,160,ls),
(405,143,o),
(412,135,o),
(429,135,cs),
(481,135,ls),
(526,135,o),
(544,113,o),
(534,68,cs),
(525,23,o),
(497,0,o),
(452,0,cs)
);
}
);
width = 600;
},
{
layerId = "044B5795-75D4-4E5A-ADC6-7EB8037CE6F5";
shapes = (
{
closed = 1;
nodes = (
(150,0,ls),
(123,0,o),
(109,18,o),
(115,45,cs),
(120,72,o),
(142,90,o),
(169,90,cs),
(253,90,ls),
(266,90,o),
(275,97,o),
(277,110,cs),
(386,620,ls),
(389,633,o),
(383,640,o),
(370,640,cs),
(286,640,ls),
(259,640,o),
(245,658,o),
(251,685,cs),
(256,712,o),
(278,730,o),
(305,730,cs),
(605,730,ls),
(632,730,o),
(646,712,o),
(641,685,cs),
(635,658,o),
(613,640,o),
(586,640,cs),
(502,640,ls),
(489,640,o),
(481,633,o),
(478,620,cs),
(369,110,ls),
(367,97,o),
(372,90,o),
(385,90,cs),
(469,90,ls),
(496,90,o),
(510,72,o),
(505,45,cs),
(499,18,o),
(477,0,o),
(450,0,cs)
);
}
);
width = 600;
},
{
layerId = "50AD700C-E391-419B-B293-150AAD617642";
shapes = (
{
closed = 1;
nodes = (
(145,0,ls),
(130,0,o),
(122,10,o),
(125,25,cs),
(129,40,o),
(141,50,o),
(156,50,cs),
(272,50,ls),
(282,50,o),
(288,55,o),
(290,65,cs),
(417,665,ls),
(420,675,o),
(416,680,o),
(406,680,cs),
(290,680,ls),
(275,680,o),
(267,690,o),
(270,705,cs),
(273,720,o),
(285,730,o),
(300,730,cs),
(610,730,ls),
(625,730,o),
(633,720,o),
(630,705,cs),
(627,690,o),
(615,680,o),
(600,680,cs),
(484,680,ls),
(474,680,o),
(468,675,o),
(465,665,cs),
(338,65,ls),
(336,55,o),
(340,50,o),
(350,50,cs),
(466,50,ls),
(481,50,o),
(489,40,o),
(485,25,cs),
(482,10,o),
(470,0,o),
(455,0,cs)
);
}
);
width = 600;
}
);
unicode = 73;
},
{
color = (153, 254, 255, 255);
glyphname = IJ;
layers = (
{
layerId = "E6FBA6FA-5C25-4A6C-B37B-1AAF22FBF472";
shapes = (
{
closed = 1;
nodes = (
(80,116,o),
(117,151,o),
(180,151,cs),
(209,151,o),
(226,135,o),
(245,91,c),
(249,84,o),
(254,78,qs),
(275,51,o),
(321,50,q),
(367,50,o),
(432,103,o),
(442,149,qs),
(526,545,ls),
(533,579,o),
(519,595,o),
(486,595,cs),
(426,595,ls),
(409,595,o),
(400,587,o),
(396,570,cs),
(352,360,ls),
(348,343,o),
(354,335,o),
(371,335,cs),
(373,335,ls),
(418,335,o),
(437,313,o),
(427,268,cs),
(417,223,o),
(390,200,o),
(345,200,cs),
(141,200,ls),
(96,200,o),
(77,223,o),
(87,268,cs),
(97,313,o),
(124,335,o),
(169,335,cs),
(171,335,ls),
(188,335,o),
(198,343,o),
(202,360,cs),
(246,570,ls),
(250,587,o),
(243,595,o),
(226,595,cs),
(224,595,ls),
(179,595,o),
(161,618,o),
(171,663,cs),
(181,708,o),
(208,730,o),
(253,730,cs),
(595,730,ls),
(675,730,o),
(707,690,o),
(690,610,cs),
(592,149,ls),
(569,43,o),
(409,-80,o),
(293,-80,qs),
(179,-80,o),
(124,-17,qs),
(95,17,o),
(88,64,qs)
);
}
);
width = 600;
},
{
layerId = "044B5795-75D4-4E5A-ADC6-7EB8037CE6F5";
shapes = (
{
closed = 1;
nodes = (
(120,124,o),
(139,140,o),
(170,140,cs),
(198,140,o),
(209,127,o),
(210,95,cs),
(212,62,o),
(230,42,qs),
(259,10,o),
(322,10,qs),
(386,9,o),
(471,73,o),
(485,140,qs),
(583,600,ls),
(588,627,o),
(578,640,o),
(551,640,cs),
(405,640,ls),
(392,640,o),
(384,633,o),
(381,620,cs),
(315,310,ls),
(312,297,o),
(318,290,o),
(331,290,cs),
(365,290,ls),
(392,290,o),
(406,272,o),
(400,245,cs),
(394,218,o),
(373,200,o),
(346,200,cs),
(146,200,ls),
(119,200,o),
(104,218,o),
(110,245,cs),
(116,272,o),
(138,290,o),
(165,290,cs),
(199,290,ls),
(212,290,o),
(220,297,o),
(223,310,cs),
(289,620,ls),
(292,633,o),
(286,640,o),
(273,640,cs),
(239,640,ls),
(212,640,o),
(198,658,o),
(204,685,cs),
(209,712,o),
(231,730,o),
(258,730,cs),
(620,730,ls),
(674,730,o),
(695,704,o),
(683,650,cs),
(575,140,ls),
(553,38,o),
(407,-80,o),
(303,-80,qs),
(198,-80,o),
(151,-21,qs),
(114,24,o),
(118,95,qs)
);
}
);
width = 600;
},
{
layerId = "50AD700C-E391-419B-B293-150AAD617642";
shapes = (
{
closed = 1;
nodes = (
(146,121,o),
(156,130,o),
(173,130,cs),
(189,130,o),
(195,122,o),
(193,105,cs),
(187,46,o),
(215,12,qs),
(248,-30,o),
(319,-30,qs),
(390,-31,o),
(491,53,o),
(507,129,qs),
(618,650,ls),
(622,670,o),
(615,680,o),
(595,680,cs),
(384,680,ls),
(374,680,o),
(368,675,o),
(365,665,cs),
(280,265,ls),
(278,255,o),
(282,250,o),
(292,250,cs),
(378,250,ls),
(393,250,o),
(401,240,o),
(398,225,cs),
(395,210,o),
(383,200,o),
(368,200,cs),
(118,200,ls),
(103,200,o),
(95,210,o),
(98,225,cs),
(101,240,o),
(113,250,o),
(128,250,cs),
(214,250,ls),
(224,250,o),
(230,255,o),
(232,265,cs),
(317,665,ls),
(320,675,o),
(316,680,o),
(306,680,cs),
(220,680,ls),
(205,680,o),
(197,690,o),
(200,705,cs),
(203,720,o),
(215,730,o),
(230,730,cs),
(625,730,ls),
(665,730,o),
(681,710,o),
(672,670,cs),
(557,129,ls),
(537,32,o),
(403,-80,o),
(308,-80,qs),
(213,-80,o),
(170,-24,qs),
(133,25,o),
(143,105,qs)
);
}
);
width = 600;
}
);
unicode = 306;
},
{
color = (153, 254, 255, 255);
glyphname = J;
layers = (
{
layerId = "E6FBA6FA-5C25-4A6C-B37B-1AAF22FBF472";
shapes = (
{
closed = 1;
nodes = (
(55,186,o),
(92,221,o),
(155,221,cs),
(184,221,o),
(201,205,o),
(220,161,cs),
(224,154,o),
(228,148,qs),
(250,121,o),
(296,120,qs),
(342,120,o),
(407,173,o),
(417,219,qs),
(483,530,ls),
(490,564,o),
(476,580,o),
(443,580,cs),
(353,580,ls),
(303,580,o),
(284,605,o),
(294,655,cs),
(305,705,o),
(335,730,o),
(385,730,cs),
(555,730,ls),
(635,730,o),
(667,690,o),
(650,610,cs),
(567,219,ls),
(544,113,o),
(384,-10,o),
(268,-10,qs),
(154,-10,o),
(99,53,qs),
(69,87,o),
(62,134,qs)
);
}
);
width = 600;
},
{
layerId = "044B5795-75D4-4E5A-ADC6-7EB8037CE6F5";
shapes = (
{
closed = 1;
nodes = (
(85,194,o),
(104,210,o),
(135,210,cs),
(163,210,o),
(174,197,o),
(175,165,cs),
(177,132,o),
(195,112,qs),
(224,81,o),
(287,80,qs),
(351,80,o),
(435,143,o),
(450,210,qs),
(533,600,ls),
(538,627,o),
(528,640,o),
(501,640,cs),
(351,640,ls),
(321,640,o),
(309,655,o),
(316,685,cs),
(322,715,o),
(340,730,o),
(370,730,cs),
(570,730,ls),
(624,730,o),
(645,704,o),
(633,650,cs),
(540,210,ls),
(518,108,o),
(372,-10,o),
(268,-10,qs),
(163,-10,o),
(115,49,qs),
(79,94,o),
(83,165,qs)
);
}
);
width = 600;
},
{
layerId = "50AD700C-E391-419B-B293-150AAD617642";
shapes = (
{
closed = 1;
nodes = (
(111,191,o),
(121,200,o),
(138,200,cs),
(154,200,o),
(160,192,o),
(158,175,cs),
(152,116,o),
(179,82,qs),
(213,41,o),
(284,40,qs),
(356,40,o),
(456,123,o),
(472,199,qs),
(568,650,ls),
(572,670,o),
(565,680,o),
(545,680,cs),
(365,680,ls),
(348,680,o),
(341,688,o),
(345,705,cs),
(348,722,o),
(358,730,o),
(375,730,cs),
(575,730,ls),
(615,730,o),
(631,710,o),
(622,670,cs),
(522,199,ls),
(502,102,o),
(368,-10,o),
(273,-10,qs),
(178,-10,o),
(135,46,qs),
(98,95,o),
(108,175,qs)
);
}
);
width = 600;
}
);
unicode = 74;
},
{
color = (153, 254, 255, 255);
glyphname = K;
layers = (
{
layerId = "E6FBA6FA-5C25-4A6C-B37B-1AAF22FBF472";
shapes = (
{
closed = 1;
nodes = (
(206,665,ls),
(217,715,o),
(247,740,o),
(297,740,cs),
(347,740,o),
(367,715,o),
(356,665,cs),
(329,538,ls),
(327,527,o),
(334,524,o),
(343,533,cs),
(504,695,ls),
(533,725,o),
(565,740,o),
(603,740,cs),
(648,740,o),
(689,708,o),
(632,648,cs),
(433,438,ls),
(419,424,o),
(415,411,o),
(421,396,cs),
(543,88,ls),
(569,23,o),
(521,-10,o),
(465,-10,cs),
(427,-10,o),
(403,7,o),
(390,39,cs),
(294,273,ls),
(292,280,o),
(290,281,o),
(282,275,cs),
(281,274,ls),
(274,268,o),
(270,259,o),
(268,250,cs),
(229,65,ls),
(218,15,o),
(188,-10,o),
(138,-10,cs),
(88,-10,o),
(68,15,o),
(79,65,cs)
);
}
);
width = 600;
},
{
layerId = "044B5795-75D4-4E5A-ADC6-7EB8037CE6F5";
shapes = (
{
closed = 1;
nodes = (
(240,695,ls),
(246,725,o),
(264,740,o),
(294,740,cs),
(324,740,o),
(336,725,o),
(330,695,cs),
(275,436,ls),
(273,427,o),
(279,425,o),
(286,432,cs),
(555,712,ls),
(574,731,o),
(594,740,o),
(617,740,cs),
(637,740,o),
(671,722,o),
(634,684,cs),
(395,436,ls),
(384,425,o),
(381,415,o),
(386,403,cs),
(525,51,ls),
(541,10,o),
(514,-10,o),
(477,-10,cs),
(453,-10,o),
(438,0,o),
(430,20,cs),
(308,318,ls),
(303,330,o),
(296,330,o),
(286,319,cs),
(255,286,ls),
(244,275,o),
(238,263,o),
(235,250,cs),
(189,35,ls),
(183,5,o),
(165,-10,o),
(135,-10,cs),
(105,-10,o),
(93,5,o),
(99,35,cs)
);
}
);
width = 600;
},
{
layerId = "50AD700C-E391-419B-B293-150AAD617642";
shapes = (
{
closed = 1;
nodes = (
(262,715,ls),
(266,732,o),
(275,740,o),
(292,740,cs),
(309,740,o),
(316,732,o),
(312,715,cs),
(238,365,ls),
(236,359,o),
(242,358,o),
(246,362,cs),
(596,723,ls),
(610,737,o),
(620,740,o),
(637,740,cs),
(651,740,o),
(667,728,o),
(644,705,cs),
(382,438,ls),
(374,430,o),
(372,422,o),
(375,413,cs),
(525,25,ls),
(534,2,o),
(515,-10,o),
(498,-10,cs),
(485,-10,o),
(476,-5,o),
(471,7,cs),
(330,368,ls),
(327,377,o),
(321,377,o),
(313,369,cs),
(229,281,ls),
(221,273,o),
(216,264,o),
(214,254,cs),
(163,15,ls),
(160,-2,o),
(150,-10,o),
(133,-10,cs),
(116,-10,o),
(110,-2,o),
(113,15,cs)
);
}
);
width = 600;
}
);
unicode = 75;
},
{
color = (153, 254, 255, 255);
glyphname = L;
layers = (
{
layerId = "E6FBA6FA-5C25-4A6C-B37B-1AAF22FBF472";
shapes = (
{
closed = 1;
nodes = (
(235,0,ls),
(155,0,o),
(124,40,o),
(141,120,cs),
(256,665,ls),
(267,715,o),
(297,740,o),
(347,740,cs),
(397,740,o),
(417,715,o),
(406,665,cs),
(306,195,ls),
(298,155,o),
(314,135,o),
(354,135,cs),
(522,135,ls),
(567,135,o),
(584,113,o),
(574,68,cs),
(565,23,o),
(537,0,o),
(492,0,cs)
);
}
);
width = 600;
},
{
layerId = "044B5795-75D4-4E5A-ADC6-7EB8037CE6F5";
shapes = (
{
closed = 1;
nodes = (
(210,0,ls),
(156,0,o),
(136,26,o),
(147,80,cs),
(278,695,ls),
(284,725,o),
(302,740,o),
(332,740,cs),
(362,740,o),
(374,725,o),
(368,695,cs),
(248,130,ls),
(242,103,o),
(252,90,o),
(279,90,cs),
(524,90,ls),
(551,90,o),
(565,72,o),
(560,45,cs),
(554,18,o),
(532,0,o),
(505,0,cs)
);
}
);
width = 600;
},
{
layerId = "50AD700C-E391-419B-B293-150AAD617642";
shapes = (
{
closed = 1;
nodes = (
(200,0,ls),
(160,0,o),
(144,20,o),
(153,60,cs),
(292,715,ls),
(296,732,o),
(305,740,o),
(322,740,cs),
(339,740,o),
(346,732,o),
(342,715,cs),
(207,80,ls),
(203,60,o),
(211,50,o),
(231,50,cs),
(531,50,ls),
(546,50,o),
(554,40,o),
(550,25,cs),
(547,10,o),
(535,0,o),
(520,0,cs)
);
}
);
width = 600;
}
);
unicode = 76;
},
{
color = (153, 254, 255, 255);
glyphname = M;
layers = (
{
layerId = "E6FBA6FA-5C25-4A6C-B37B-1AAF22FBF472";
shapes = (
{
closed = 1;
nodes = (
(573,60,ls),
(563,13,o),
(535,-10,o),
(488,-10,cs),
(441,-10,o),
(423,13,o),
(433,60,cs),
(528,510,ls),
(532,527,o),
(526,527,o),
(519,510,cs),
(435,298,ls),
(420,259,o),
(391,240,o),
(351,240,cs),
(311,240,o),
(290,259,o),
(291,298,cs),
(297,510,ls),
(298,526,o),
(292,527,o),
(288,510,cs),
(193,60,ls),
(183,13,o),
(155,-10,o),
(108,-10,cs),
(61,-10,o),
(43,13,o),
(53,60,cs),
(169,608,ls),
(188,696,o),
(241,740,o),
(309,740,cs),
(378,740,o),
(398,713,o),
(396,658,cs),
(390,469,ls),
(388,429,o),
(395,430,o),
(411,469,cs),
(484,658,ls),
(506,713,o),
(546,740,o),
(611,740,cs),
(673,740,o),
(708,696,o),
(691,614,cs)
);
}
);
width = 600;
},
{
layerId = "044B5795-75D4-4E5A-ADC6-7EB8037CE6F5";
shapes = (
{
closed = 1;
nodes = (
(547,35,ls),
(541,5,o),
(523,-10,o),
(493,-10,cs),
(463,-10,o),
(451,5,o),
(457,35,cs),
(575,590,ls),
(580,612,o),
(574,612,o),
(562,590,cs),
(418,317,ls),
(405,292,o),
(386,280,o),
(360,280,cs),
(334,280,o),
(319,292,o),
(316,317,cs),
(288,590,ls),
(286,613,o),
(280,612,o),
(275,590,cs),
(157,35,ls),
(151,5,o),
(133,-10,o),
(103,-10,cs),
(73,-10,o),
(61,5,o),
(67,35,cs),
(199,655,ls),
(211,712,o),
(245,740,o),
(292,740,cs),
(338,740,o),
(360,722,o),
(363,685,cs),
(380,428,ls),
(381,402,o),
(389,402,o),
(402,428,cs),
(529,685,ls),
(546,722,o),
(576,740,o),
(622,740,cs),
(669,740,o),
(691,712,o),
(679,655,cs)
);
}
);
width = 600;
},
{
layerId = "50AD700C-E391-419B-B293-150AAD617642";
shapes = (
{
closed = 1;
nodes = (
(513,15,ls),
(510,-2,o),
(500,-10,o),
(483,-10,cs),
(466,-10,o),
(460,-2,o),
(463,15,cs),
(596,640,ls),
(600,660,o),
(594,660,o),
(583,640,cs),
(404,316,ls),
(394,298,o),
(381,290,o),
(362,290,cs),
(343,290,o),
(332,298,o),
(330,316,cs),
(289,640,ls),
(287,661,o),
(280,659,o),
(276,640,cs),
(143,15,ls),
(140,-2,o),
(130,-10,o),
(113,-10,cs),
(96,-10,o),
(90,-2,o),
(93,15,cs),
(237,692,ls),
(244,724,o),
(263,740,o),
(295,740,cs),
(319,740,o),
(332,729,o),
(335,706,cs),
(372,379,ls),
(374,360,o),
(380,360,o),
(390,379,cs),
(565,706,ls),
(578,729,o),
(595,740,o),
(619,740,cs),
(651,740,o),
(664,724,o),
(657,692,cs)
);
}
);
width = 600;
}
);
unicode = 77;
},
{
color = (153, 254, 255, 255);
glyphname = N;
layers = (
{
layerId = "E6FBA6FA-5C25-4A6C-B37B-1AAF22FBF472";
shapes = (
{
closed = 1;
nodes = (
(184,629,ls),
(199,703,o),
(244,740,o),
(318,740,cs),
(368,740,o),
(393,716,o),
(399,669,cs),
(451,240,ls),
(451,236,o),
(453,234,o),
(456,234,cs),
(459,234,o),
(460,236,o),
(461,240,cs),
(552,670,ls),
(562,717,o),
(590,740,o),
(637,740,cs),
(684,740,o),
(702,717,o),
(692,670,cs),
(571,101,ls),
(556,27,o),
(511,-10,o),
(437,-10,cs),
(387,-10,o),
(362,14,o),
(356,61,cs),
(304,490,ls),
(304,494,o),
(302,496,o),
(299,496,cs),
(296,496,o),
(295,494,o),
(294,490,cs),
(203,60,ls),
(193,13,o),
(165,-10,o),
(118,-10,cs),
(71,-10,o),
(53,13,o),
(63,60,cs)
);
}
);
width = 600;
},
{
layerId = "044B5795-75D4-4E5A-ADC6-7EB8037CE6F5";
shapes = (
{
closed = 1;
nodes = (
(221,662,ls),
(232,714,o),
(263,740,o),
(315,740,cs),
(350,740,o),
(368,723,o),
(373,690,cs),
(453,150,ls),
(453,146,o),
(454,144,o),
(457,144,cs),
(460,144,o),
(461,146,o),
(462,150,cs),
(578,695,ls),
(584,725,o),
(602,740,o),
(632,740,cs),
(662,740,o),
(674,725,o),
(668,695,cs),
(534,68,ls),
(523,16,o),
(492,-10,o),
(440,-10,cs),
(405,-10,o),
(387,7,o),
(383,40,cs),
(302,580,ls),
(302,584,o),
(302,586,o),
(299,586,cs),
(296,586,o),
(294,584,o),
(293,580,cs),
(177,35,ls),
(171,5,o),
(153,-10,o),
(123,-10,cs),
(93,-10,o),
(81,5,o),
(87,35,cs)
);
}
);
width = 600;
},
{
layerId = "50AD700C-E391-419B-B293-150AAD617642";
shapes = (
{
closed = 1;
nodes = (
(257,693,ls),
(264,724,o),
(283,740,o),
(314,740,cs),
(338,740,o),
(351,729,o),
(354,707,cs),
(447,80,ls),
(447,76,o),
(449,74,o),
(452,74,cs),
(455,74,o),
(456,76,o),
(457,80,cs),
(592,715,ls),
(596,732,o),
(605,740,o),
(622,740,cs),
(639,740,o),
(646,732,o),
(642,715,cs),
(498,37,ls),
(491,6,o),
(472,-10,o),
(441,-10,cs),
(417,-10,o),
(404,1,o),
(401,23,cs),
(308,650,ls),
(308,654,o),
(306,656,o),
(303,656,cs),
(300,656,o),
(299,654,o),
(298,650,cs),
(163,15,ls),
(160,-2,o),
(150,-10,o),
(133,-10,cs),
(116,-10,o),
(110,-2,o),
(113,15,cs)
);
}
);
width = 600;
}
);
unicode = 78;
},
{
color = (153, 254, 255, 255);
glyphname = O;
layers = (
{
layerId = "E6FBA6FA-5C25-4A6C-B37B-1AAF22FBF472";
shapes = (
{
closed = 1;
nodes = (
(419,115,o),
(465,283,o),
(483,365,cs),
(500,448,o),
(526,615,o),
(431,615,cs),
(337,615,o),
(290,447,o),
(273,365,cs),
(255,283,o),
(230,115,o),
(324,115,cs)
);
},
{
closed = 1;
nodes = (
(83,-10,o),
(89,208,o),
(123,365,cs),
(156,522,o),
(239,740,o),
(457,740,cs),
(673,740,o),
(666,524,o),
(634,371,cs),
(599,208,o),
(512,-10,o),
(298,-10,cs)
);
}
);
width = 600;
},
{
layerId = "044B5795-75D4-4E5A-ADC6-7EB8037CE6F5";
shapes = (
{
closed = 1;
nodes = (
(445,80,o),
(505,271,o),
(525,367,cs),
(545,460,o),
(567,650,o),
(438,650,cs),
(309,650,o),
(251,459,o),
(231,366,cs),
(211,271,o),
(189,80,o),
(317,80,cs)
);
},
{
closed = 1;
nodes = (
(98,-10,o),
(107,208,o),
(141,367,cs),
(174,522,o),
(255,740,o),
(457,740,cs),
(658,740,o),
(648,524,o),
(615,368,cs),
(581,208,o),
(497,-10,o),
(298,-10,cs)
);
}
);
width = 600;
},
{
layerId = "50AD700C-E391-419B-B293-150AAD617642";
shapes = (
{
closed = 1;
nodes = (
(462,40,o),
(535,260,o),
(558,367,cs),
(580,472,o),
(601,690,o),
(447,690,cs),
(293,690,o),
(220,470,o),
(198,365,cs),
(175,260,o),
(156,40,o),
(309,40,cs)
);
},
{
closed = 1;
nodes = (
(104,-10,o),
(114,208,o),
(148,367,cs),
(181,522,o),
(261,740,o),
(457,740,cs),
(653,740,o),
(641,524,o),
(608,369,cs),
(574,208,o),
(491,-10,o),
(298,-10,cs)
);
}
);
width = 600;
}
);
unicode = 79;
},
{
color = (153, 254, 255, 255);
glyphname = OE;
layers = (
{
layerId = "E6FBA6FA-5C25-4A6C-B37B-1AAF22FBF472";
shapes = (
{
closed = 1;
nodes = (
(319,115,o),
(365,283,o),
(383,365,cs),
(400,448,o),
(426,615,o),
(351,615,cs),
(277,615,o),
(230,447,o),
(213,365,cs),
(195,283,o),
(170,115,o),
(244,115,cs)
);
},
{
closed = 1;
nodes = (
(23,-10,o),
(29,208,o),
(63,365,cs),
(96,522,o),
(182,740,o),
(377,740,cs),
(576,740,o),
(566,524,o),
(533,365,cs),
(499,208,o),
(412,-10,o),
(218,-10,cs)
);
},
{
closed = 1;
nodes = (
(265,0,l),
(383,130,l),
(578,130,ls),
(622,130,o),
(638,109,o),
(629,65,cs),
(619,21,o),
(594,0,o),
(550,0,cs)
);
},
{
closed = 1;
nodes = (
(410,308,l),
(439,440,l),
(612,440,ls),
(654,440,o),
(673,417,o),
(664,375,cs),
(655,333,o),
(625,308,o),
(583,308,cs)
);
},
{
closed = 1;
nodes = (
(483,600,l),
(420,730,l),
(705,730,ls),
(749,730,o),
(766,709,o),
(756,665,cs),
(747,621,o),
(722,600,o),
(678,600,cs)
);
}
);
width = 600;
},
{
layerId = "044B5795-75D4-4E5A-ADC6-7EB8037CE6F5";
shapes = (
{
closed = 1;
nodes = (
(345,80,o),
(405,271,o),
(425,365,cs),
(445,460,o),
(467,650,o),
(358,650,cs),
(249,650,o),
(191,459,o),
(171,365,cs),
(151,271,o),
(129,80,o),
(237,80,cs)
);
},
{
closed = 1;
nodes = (
(38,-10,o),
(47,208,o),
(81,365,cs),
(114,522,o),
(197,740,o),
(377,740,cs),
(560,740,o),
(548,524,o),
(515,365,cs),
(481,208,o),
(397,-10,o),
(218,-10,cs)
);
},
{
closed = 1;
nodes = (
(260,0,l),
(329,90,l),
(578,90,ls),
(605,90,o),
(615,72,o),
(610,45,cs),
(604,18,o),
(586,0,o),
(559,0,cs)
);
},
{
closed = 1;
nodes = (
(457,337,l),
(476,427,l),
(616,427,ls),
(643,427,o),
(657,409,o),
(651,382,cs),
(645,355,o),
(624,337,o),
(597,337,cs)
);
},
{
closed = 1;
nodes = (
(446,640,l),
(415,730,l),
(714,730,ls),
(741,730,o),
(751,712,o),
(746,685,cs),
(740,658,o),
(722,640,o),
(695,640,cs)
);
}
);
width = 600;
},
{
layerId = "50AD700C-E391-419B-B293-150AAD617642";
shapes = (
{
closed = 1;
nodes = (
(362,40,o),
(429,260,o),
(452,365,cs),
(474,472,o),
(501,690,o),
(367,690,cs),
(233,690,o),
(166,470,o),
(144,365,cs),
(121,260,o),
(96,40,o),
(229,40,cs)
);
},
{
closed = 1;
nodes = (
(44,-10,o),
(60,208,o),
(94,365,cs),
(127,522,o),
(203,740,o),
(377,740,cs),
(555,740,o),
(535,524,o),
(502,365,cs),
(468,208,o),
(391,-10,o),
(218,-10,cs)
);
},
{
closed = 1;
nodes = (
(270,0,l),
(296,50,l),
(578,50,ls),
(593,50,o),
(599,40,o),
(595,25,cs),
(592,10,o),
(582,0,o),
(567,0,cs)
);
},
{
closed = 1;
nodes = (
(476,356,l),
(486,406,l),
(619,406,ls),
(634,406,o),
(639,396,o),
(636,381,cs),
(633,366,o),
(624,356,o),
(609,356,cs)
);
},
{
closed = 1;
nodes = (
(430,680,l),
(425,730,l),
(722,730,ls),
(737,730,o),
(743,720,o),
(740,705,cs),
(737,690,o),
(727,680,o),
(712,680,cs)
);
}
);
width = 600;
}
);
unicode = 338;
},
{
color = (153, 254, 255, 255);
glyphname = P;
layers = (
{
layerId = "E6FBA6FA-5C25-4A6C-B37B-1AAF22FBF472";
shapes = (
{
closed = 1;
nodes = (
(200,630,ls),
(214,697,o),
(254,730,o),
(321,730,cs),
(470,730,ls),
(547,730,o),
(650,672,o),
(693,578,o),
(678,508,qs),
(663,439,o),
(579,344,o),
(453,286,o),
(376,286,qs),
(302,286,ls),
(285,286,o),
(275,278,o),
(271,261,cs),
(230,65,ls),
(219,15,o),
(188,-10,o),
(138,-10,cs),
(88,-10,o),
(69,15,o),
(80,65,cs)
);
},
{
closed = 1;
nodes = (
(310,441,ls),
(306,424,o),
(312,416,o),
(329,416,cs),
(403,416,ls),
(451,416,o),
(519,464,o),
(528,508,qs),
(537,552,o),
(491,600,o),
(443,600,qs),
(394,600,ls),
(361,600,o),
(340,583,o),
(333,550,cs)
);
}
);
width = 600;
},
{
layerId = "044B5795-75D4-4E5A-ADC6-7EB8037CE6F5";
shapes = (
{
closed = 1;
nodes = (
(230,650,ls),
(242,704,o),
(273,730,o),
(327,730,cs),
(482,730,ls),
(550,730,o),
(639,677,o),
(676,591,o),
(662,525,qs),
(648,460,o),
(574,373,o),
(463,320,o),
(395,320,qs),
(275,320,ls),
(258,320,o),
(248,312,o),
(245,295,cs),
(189,35,ls),
(183,5,o),
(165,-10,o),
(135,-10,cs),
(105,-10,o),
(93,5,o),
(99,35,cs)
);
},
{
closed = 1;
nodes = (
(274,435,ls),
(271,418,o),
(277,410,o),
(294,410,cs),
(414,410,ls),
(473,410,o),
(558,473,o),
(569,525,qs),
(580,578,o),
(522,640,o),
(463,640,qs),
(358,640,ls),
(331,640,o),
(315,627,o),
(310,600,cs)
);
}
);
width = 600;
},
{
layerId = "50AD700C-E391-419B-B293-150AAD617642";
shapes = (
{
closed = 1;
nodes = (
(252,670,ls),
(261,710,o),
(285,730,o),
(325,730,cs),
(480,730,ls),
(544,730,o),
(628,680,o),
(662,599,o),
(649,537,qs),
(636,476,o),
(567,394,o),
(462,344,o),
(398,344,qs),
(253,344,ls),
(240,344,o),
(232,337,o),
(229,324,cs),
(163,15,ls),
(160,-2,o),
(150,-10,o),
(133,-10,cs),
(116,-10,o),
(110,-2,o),
(113,15,cs)
);
},
{
closed = 1;
nodes = (
(248,414,ls),
(245,401,o),
(251,394,o),
(264,394,cs),
(409,394,ls),
(482,394,o),
(585,469,o),
(599,537,qs),
(614,606,o),
(544,680,o),
(470,680,qs),
(335,680,ls),
(315,680,o),
(302,670,o),
(298,650,cs)
);
}
);
width = 600;
}
);
unicode = 80;
},
{
color = (153, 254, 255, 255);
glyphname = Thorn;
layers = (
{
layerId = "E6FBA6FA-5C25-4A6C-B37B-1AAF22FBF472";
shapes = (
{
closed = 1;
nodes = (
(95,0,o),
(75,25,o),
(86,75,cs),
(209,655,ls),
(220,705,o),
(250,730,o),
(300,730,cs),
(350,730,o),
(370,705,o),
(359,655,cs),
(352,620,ls),
(348,603,o),
(354,595,o),
(371,595,cs),
(466,595,ls),
(538,595,o),
(631,544,o),
(665,448,o),
(651,380,qs),
(630,280,o),
(482,165,o),
(375,165,qs),
(280,165,ls),
(263,165,o),
(253,157,o),
(250,140,cs),
(236,75,ls),
(225,25,o),
(195,0,o),
(145,0,cs)
);
},
{
closed = 1;
nodes = (
(287,315,ls),
(283,298,o),
(290,290,o),
(307,290,cs),
(377,290,ls),
(428,290,o),
(492,337,o),
(501,380,qs),
(510,424,o),
(466,470,o),
(415,470,qs),
(345,470,ls),
(328,470,o),
(318,462,o),
(315,445,cs)
);
}
);
width = 600;
},
{
layerId = "044B5795-75D4-4E5A-ADC6-7EB8037CE6F5";
shapes = (
{
closed = 1;
nodes = (
(105,0,o),
(93,15,o),
(100,45,cs),
(236,685,ls),
(242,715,o),
(260,730,o),
(290,730,cs),
(320,730,o),
(332,715,o),
(326,685,cs),
(308,600,ls),
(305,587,o),
(310,580,o),
(323,580,cs),
(456,580,ls),
(522,580,o),
(609,530,o),
(644,440,o),
(631,380,qs),
(611,289,o),
(470,180,o),
(371,180,qs),
(238,180,ls),
(225,180,o),
(217,173,o),
(214,160,cs),
(190,45,ls),
(183,15,o),
(165,0,o),
(135,0,cs)
);
},
{
closed = 1;
nodes = (
(240,280,ls),
(237,267,o),
(242,260,o),
(255,260,cs),
(388,260,ls),
(446,260,o),
(526,325,o),
(538,380,qs),
(550,436,o),
(496,500,o),
(439,500,qs),
(306,500,ls),
(293,500,o),
(285,493,o),
(282,480,cs)
);
}
);
width = 600;
},
{
layerId = "50AD700C-E391-419B-B293-150AAD617642";
shapes = (
{
closed = 1;
nodes = (
(113,0,o),
(107,8,o),
(110,25,cs),
(255,705,ls),
(258,722,o),
(268,730,o),
(285,730,cs),
(302,730,o),
(308,722,o),
(305,705,cs),
(278,580,ls),
(276,570,o),
(280,565,o),
(290,565,cs),
(453,565,ls),
(514,565,o),
(593,520,o),
(623,437,o),
(611,380,qs),
(593,295,o),
(465,195,o),
(374,195,qs),
(211,195,ls),
(201,195,o),
(195,190,o),
(193,180,cs),
(160,25,ls),
(157,8,o),
(147,0,o),
(130,0,cs)
);
},
{
closed = 1;
nodes = (
(209,256,ls),
(207,246,o),
(211,241,o),
(221,241,cs),
(384,241,ls),
(452,241,o),
(547,316,o),
(561,380,qs),
(575,445,o),
(512,520,o),
(444,520,qs),
(281,520,ls),
(271,520,o),
(264,515,o),
(262,505,cs)
);
}
);
width = 600;
}
);
unicode = 222;
},
{
color = (153, 254, 255, 255);
glyphname = Q;
layers = (
{
layerId = "B5C1BF20-9872-4D4C-86C3-1DD8ABDF9697";
name = "#instance";
shapes = (
{
closed = 1;
nodes = (
(462,40,o),
(535,260,o),
(558,367,cs),
(580,472,o),
(601,690,o),
(447,690,cs),
(293,690,o),
(220,470,o),
(198,365,cs),
(175,260,o),
(156,40,o),
(309,40,cs)
);
},
{
closed = 1;
nodes = (
(104,-10,o),
(114,208,o),
(148,367,cs),
(181,522,o),
(261,740,o),
(457,740,cs),
(653,740,o),
(641,524,o),
(608,369,cs),
(574,208,o),
(491,-10,o),
(298,-10,cs)
);
},
{
closed = 1;
nodes = (
(265,-124,l),
(252,-121,o),
(249,-114,o),
(251,-104,cs),
(252,-101,o),
(252,-97,o),
(254,-92,cs),
(260,-81,o),
(268,-75,o),
(279,-75,cs),
(282,-75,o),
(285,-75,o),
(288,-76,cs),
(470,-127,ls),
(482,-130,o),
(486,-139,o),
(484,-150,cs),
(483,-153,o),
(483,-156,o),
(481,-160,cs),
(475,-172,o),
(467,-177,o),
(456,-177,cs),
(453,-177,o),
(449,-177,o),
(447,-176,cs)
);
}
);
width = 600;
},
{
layerId = "E6FBA6FA-5C25-4A6C-B37B-1AAF22FBF472";
shapes = (
{
closed = 1;
nodes = (
(419,115,o),
(465,283,o),
(483,365,cs),
(500,448,o),
(526,615,o),
(431,615,cs),
(337,615,o),
(290,447,o),
(273,365,cs),
(255,283,o),
(230,115,o),
(324,115,cs)
);
},
{
closed = 1;
nodes = (
(83,-10,o),
(89,208,o),
(123,365,cs),
(156,522,o),
(239,740,o),
(457,740,cs),
(673,740,o),
(666,524,o),
(634,371,cs),
(599,208,o),
(512,-10,o),
(298,-10,cs)
);
},
{
closed = 1;
nodes = (
(270,-177,ls),
(242,-168,o),
(229,-151,o),
(235,-124,cs),
(236,-117,o),
(239,-109,o),
(244,-100,cs),
(258,-69,o),
(280,-53,o),
(306,-53,cs),
(313,-53,o),
(321,-54,o),
(328,-56,cs),
(479,-102,ls),
(508,-111,o),
(522,-128,o),
(516,-156,cs),
(514,-163,o),
(512,-171,o),
(507,-180,cs),
(492,-211,o),
(471,-227,o),
(446,-227,cs),
(440,-227,o),
(435,-227,o),
(421,-223,cs)
);
}
);
width = 600;
},
{
layerId = "044B5795-75D4-4E5A-ADC6-7EB8037CE6F5";
shapes = (
{
closed = 1;
nodes = (
(445,80,o),
(505,271,o),
(525,367,cs),
(545,460,o),
(567,650,o),
(438,650,cs),
(309,650,o),
(251,459,o),
(231,366,cs),
(211,271,o),
(189,80,o),
(317,80,cs)
);
},
{
closed = 1;
nodes = (
(98,-10,o),
(107,208,o),
(141,367,cs),
(174,522,o),
(255,740,o),
(457,740,cs),
(658,740,o),
(648,524,o),
(615,368,cs),
(581,208,o),
(497,-10,o),
(298,-10,cs)
);
},
{
closed = 1;
nodes = (
(267,-154,ls),
(246,-148,o),
(237,-136,o),
(241,-117,cs),
(242,-112,o),
(245,-105,o),
(248,-99,cs),
(259,-76,o),
(274,-65,o),
(291,-65,cs),
(296,-65,o),
(299,-66,o),
(302,-67,cs),
(472,-113,ls),
(494,-119,o),
(503,-132,o),
(499,-152,cs),
(498,-157,o),
(495,-163,o),
(492,-169,cs),
(481,-192,o),
(466,-202,o),
(447,-202,cs),
(442,-202,o),
(436,-202,o),
(430,-200,cs)
);
}
);
width = 600;
},
{
layerId = "50AD700C-E391-419B-B293-150AAD617642";
shapes = (
{
closed = 1;
nodes = (
(462,40,o),
(535,260,o),
(558,367,cs),
(580,472,o),
(601,690,o),
(447,690,cs),
(293,690,o),
(220,470,o),
(198,365,cs),
(175,260,o),
(156,40,o),
(309,40,cs)
);
},
{
closed = 1;
nodes = (
(104,-10,o),
(114,208,o),
(148,367,cs),
(181,522,o),
(261,740,o),
(457,740,cs),
(653,740,o),
(641,524,o),
(608,369,cs),
(574,208,o),
(491,-10,o),
(298,-10,cs)
);
},
{
closed = 1;
nodes = (
(265,-124,ls),
(252,-121,o),
(249,-114,o),
(251,-104,cs),
(252,-101,o),
(252,-97,o),
(254,-92,cs),
(260,-81,o),
(268,-75,o),
(279,-75,cs),
(282,-75,o),
(285,-75,o),
(288,-76,cs),
(470,-127,ls),
(482,-130,o),
(486,-139,o),
(484,-150,cs),
(483,-153,o),
(483,-156,o),
(481,-160,cs),
(475,-172,o),
(467,-177,o),
(456,-177,cs),
(453,-177,o),
(449,-177,o),
(447,-176,cs)
);
}
);
width = 600;
}
);
unicode = 81;
},
{
color = (153, 254, 255, 255);
glyphname = R;
layers = (
{
layerId = "E6FBA6FA-5C25-4A6C-B37B-1AAF22FBF472";
shapes = (
{
closed = 1;
nodes = (
(88,-10,o),
(69,14,o),
(80,64,cs),
(200,630,ls),
(214,697,o),
(254,730,o),
(322,730,cs),
(456,730,ls),
(533,730,o),
(636,676,o),
(678,579,o),
(665,519,qs),
(651,450,o),
(598,392,qs),
(565,355,o),
(528,336,qs),
(511,327,o),
(503,319,o),
(501,311,cs),
(500,307,o),
(501,302,o),
(502,298,cs),
(561,86,ls),
(568,64,o),
(569,46,o),
(566,32,cs),
(560,4,o),
(536,-10,o),
(494,-10,cs),
(448,-10,o),
(423,6,o),
(415,38,cs),
(354,274,ls),
(350,289,o),
(341,296,o),
(324,296,cs),
(304,296,ls),
(287,296,o),
(277,288,o),
(274,271,cs),
(230,64,ls),
(219,14,o),
(190,-10,o),
(139,-10,cs)
);
},
{
closed = 1;
nodes = (
(312,451,ls),
(308,434,o),
(315,426,o),
(332,426,cs),
(392,426,ls),
(441,426,o),
(504,466,o),
(514,511,qs),
(524,558,o),
(478,600,o),
(429,600,qs),
(393,600,ls),
(360,600,o),
(340,583,o),
(333,550,cs)
);
}
);
width = 600;
},
{
layerId = "044B5795-75D4-4E5A-ADC6-7EB8037CE6F5";
shapes = (
{
closed = 1;
nodes = (
(106,-10,o),
(94,5,o),
(100,35,cs),
(231,650,ls),
(243,704,o),
(274,730,o),
(328,730,cs),
(473,730,ls),
(538,730,o),
(625,677,o),
(661,593,o),
(649,537,qs),
(636,477,o),
(592,421,qs),
(549,368,o),
(504,352,qs),
(484,345,o),
(477,337,o),
(475,329,cs),
(474,325,o),
(474,321,o),
(475,317,cs),
(549,48,ls),
(552,35,o),
(554,25,o),
(552,16,cs),
(549,-1,o),
(533,-10,o),
(507,-10,cs),
(480,-10,o),
(466,-1,o),
(460,19,cs),
(380,308,ls),
(377,323,o),
(365,330,o),
(348,330,cs),
(277,330,ls),
(260,330,o),
(250,322,o),
(247,305,cs),
(189,35,ls),
(183,5,o),
(166,-10,o),
(136,-10,cs)
);
},
{
closed = 1;
nodes = (
(277,445,ls),
(273,428,o),
(279,420,o),
(296,420,cs),
(407,420,ls),
(463,420,o),
(544,481,o),
(555,530,qs),
(565,580,o),
(510,640,o),
(454,640,qs),
(358,640,ls),
(331,640,o),
(315,627,o),
(310,600,cs)
);
}
);
width = 600;
},
{
layerId = "50AD700C-E391-419B-B293-150AAD617642";
shapes = (
{
closed = 1;
nodes = (
(116,-10,o),
(110,-2,o),
(113,15,cs),
(252,670,ls),
(261,710,o),
(285,730,o),
(325,730,cs),
(470,730,ls),
(535,730,o),
(619,681,o),
(653,602,o),
(642,548,qs),
(627,481,o),
(577,425,qs),
(525,366,o),
(464,357,qs),
(447,355,o),
(441,351,o),
(439,344,cs),
(438,341,o),
(439,338,o),
(440,335,cs),
(535,25,ls),
(538,17,o),
(538,10,o),
(537,5,cs),
(535,-5,o),
(527,-10,o),
(512,-10,cs),
(495,-10,o),
(485,-4,o),
(482,8,cs),
(386,332,ls),
(382,344,o),
(372,350,o),
(359,350,cs),
(254,350,ls),
(241,350,o),
(233,343,o),
(230,330,cs),
(163,15,ls),
(160,-2,o),
(150,-10,o),
(133,-10,cs)
);
},
{
closed = 1;
nodes = (
(249,420,ls),
(247,407,o),
(252,400,o),
(265,400,cs),
(400,400,ls),
(473,400,o),
(576,475,o),
(590,540,qs),
(604,607,o),
(533,680,o),
(460,680,qs),
(335,680,ls),
(315,680,o),
(302,670,o),
(298,650,cs)
);
}
);
width = 600;
}
);
unicode = 82;
},
{
color = (153, 254, 255, 255);
glyphname = S;
layers = (
{
layerId = "E6FBA6FA-5C25-4A6C-B37B-1AAF22FBF472";
shapes = (
{
closed = 1;
nodes = (
(77,170,o),
(119,210,o),
(189,210,cs),
(212,210,o),
(226,197,o),
(241,163,cs),
(246,153,o),
(254,145,qs),
(279,121,o),
(328,120,qs),
(377,120,o),
(442,167,o),
(450,206,qs),
(456,237,o),
(431,286,o),
(398,294,qs),
(313,315,ls),
(231,335,o),
(155,450,o),
(172,530,qs),
(185,595,o),
(262,689,o),
(380,740,o),
(453,740,qs),
(527,740,o),
(624,689,o),
(643,642,qs),
(646,634,o),
(648,626,qs),
(664,572,o),
(623,531,o),
(552,531,cs),
(532,531,o),
(516,546,o),
(500,578,cs),
(496,585,o),
(491,591,qs),
(470,613,o),
(426,612,qs),
(383,612,o),
(326,570,o),
(319,535,qs),
(313,506,o),
(341,470,o),
(372,462,qs),
(460,441,ls),
(542,422,o),
(616,295,o),
(597,206,qs),
(583,141,o),
(501,43,o),
(377,-10,o),
(300,-10,qs),
(223,-10,o),
(121,45,o),
(99,94,qs),
(95,105,o),
(91,115,qs)
);
}
);
width = 600;
},
{
layerId = "044B5795-75D4-4E5A-ADC6-7EB8037CE6F5";
shapes = (
{
closed = 1;
nodes = (
(110,184,o),
(129,200,o),
(160,200,cs),
(187,200,o),
(198,187,o),
(201,155,cs),
(204,125,o),
(223,105,qs),
(255,71,o),
(319,70,qs),
(381,70,o),
(470,142,o),
(483,200,qs),
(492,244,o),
(459,309,o),
(417,321,qs),
(313,352,ls),
(248,372,o),
(191,475,o),
(206,545,qs),
(218,603,o),
(289,691,o),
(393,740,o),
(454,740,qs),
(516,740,o),
(601,692,o),
(619,648,qs),
(628,623,o),
(629,592,qs),
(629,564,o),
(611,547,o),
(579,547,cs),
(553,547,o),
(542,558,o),
(536,591,cs),
(532,613,o),
(518,629,qs),
(491,661,o),
(437,660,qs),
(384,660,o),
(305,597,o),
(294,547,qs),
(286,507,o),
(317,450,o),
(353,439,qs),
(461,407,ls),
(529,387,o),
(587,276,o),
(571,200,qs),
(557,136,o),
(482,42,o),
(370,-10,o),
(302,-10,qs),
(232,-10,o),
(139,41,o),
(120,88,qs),
(108,118,o),
(109,155,qs)
);
}
);
width = 600;
},
{
layerId = "50AD700C-E391-419B-B293-150AAD617642";
shapes = (
{
closed = 1;
nodes = (
(125,192,o),
(136,200,o),
(153,200,cs),
(169,200,o),
(174,193,o),
(172,176,cs),
(167,119,o),
(199,81,qs),
(237,35,o),
(312,35,qs),
(383,35,o),
(491,116,o),
(504,180,qs),
(517,238,o),
(473,325,o),
(423,341,qs),
(328,372,ls),
(266,392,o),
(209,489,o),
(223,555,qs),
(234,609,o),
(303,694,o),
(402,740,o),
(461,740,qs),
(520,740,o),
(600,691,o),
(616,647,qs),
(628,612,o),
(623,569,qs),
(622,553,o),
(612,545,o),
(595,545,cs),
(579,545,o),
(572,552,o),
(574,569,cs),
(579,621,o),
(552,655,qs),
(520,697,o),
(451,696,qs),
(385,696,o),
(285,618,o),
(273,559,qs),
(262,508,o),
(304,434,o),
(350,418,qs),
(445,386,ls),
(510,364,o),
(569,255,o),
(554,183,qs),
(542,126,o),
(470,39,o),
(366,-10,o),
(303,-10,qs),
(238,-10,o),
(150,44,o),
(132,91,qs),
(118,129,o),
(123,176,qs)
);
}
);
width = 600;
}
);
unicode = 83;
},
{
color = (153, 254, 255, 255);
glyphname = Germandbls;
layers = (
{
layerId = "E6FBA6FA-5C25-4A6C-B37B-1AAF22FBF472";
shapes = (
{
closed = 1;
nodes = (
(83,0,o),
(65,23,o),
(74,68,cs),
(169,511,ls),
(199,652,o),
(316,730,o),
(451,730,cs),
(607,730,ls),
(670,730,o),
(695,699,o),
(681,636,cs),
(675,605,o),
(658,577,o),
(632,554,cs),
(522,458,ls),
(495,434,o),
(496,420,o),
(526,407,cs),
(597,375,o),
(624,305,o),
(605,215,cs),
(575,74,o),
(451,4,o),
(321,0,cs),
(280,-1,o),
(263,21,o),
(272,63,cs),
(281,103,o),
(303,122,o),
(348,128,cs),
(399,135,o),
(441,157,o),
(456,227,cs),
(470,291,o),
(443,314,o),
(401,323,cs),
(351,333,o),
(334,355,o),
(344,401,cs),
(350,426,o),
(362,447,o),
(383,465,cs),
(499,568,ls),
(527,593,o),
(525,605,o),
(491,605,cs),
(424,605,ls),
(366,605,o),
(316,571,o),
(304,511,cs),
(209,68,ls),
(200,23,o),
(173,0,o),
(128,0,cs)
);
}
);
width = 600;
},
{
layerId = "044B5795-75D4-4E5A-ADC6-7EB8037CE6F5";
shapes = (
{
closed = 1;
nodes = (
(107,0,o),
(95,15,o),
(102,45,cs),
(203,524,ls),
(230,650,o),
(332,730,o),
(457,730,cs),
(625,730,ls),
(664,730,o),
(680,710,o),
(672,671,cs),
(667,651,o),
(659,634,o),
(643,618,cs),
(488,455,ls),
(468,434,o),
(470,424,o),
(496,417,cs),
(580,393,o),
(606,310,o),
(586,215,cs),
(553,63,o),
(439,0,o),
(299,0,cs),
(272,0,o),
(261,14,o),
(267,41,cs),
(272,68,o),
(288,82,o),
(317,83,cs),
(397,87,o),
(468,107,o),
(491,215,cs),
(511,310,o),
(463,336,o),
(395,343,cs),
(360,346,o),
(347,363,o),
(354,397,cs),
(358,414,o),
(366,430,o),
(379,444,cs),
(541,616,ls),
(562,638,o),
(559,648,o),
(532,648,cs),
(440,648,ls),
(364,648,o),
(309,599,o),
(293,524,cs),
(192,45,ls),
(185,15,o),
(167,0,o),
(137,0,cs)
);
}
);
width = 600;
},
{
layerId = "50AD700C-E391-419B-B293-150AAD617642";
shapes = (
{
closed = 1;
nodes = (
(118,0,o),
(112,8,o),
(115,25,cs),
(225,543,ls),
(250,660,o),
(345,730,o),
(460,730,cs),
(641,730,ls),
(662,730,o),
(670,720,o),
(666,699,cs),
(663,689,o),
(659,680,o),
(651,672,cs),
(426,431,ls),
(410,415,o),
(413,408,o),
(432,405,cs),
(532,392,o),
(588,322,o),
(565,210,cs),
(530,48,o),
(412,0,o),
(270,0,cs),
(255,0,o),
(250,8,o),
(253,23,cs),
(256,38,o),
(265,45,o),
(280,45,cs),
(388,47,o),
(485,69,o),
(514,208,cs),
(540,329,o),
(474,362,o),
(377,367,cs),
(358,368,o),
(350,378,o),
(354,397,cs),
(357,407,o),
(360,415,o),
(368,423,cs),
(590,661,ls),
(605,677,o),
(602,685,o),
(582,685,cs),
(451,685,ls),
(364,685,o),
(294,631,o),
(275,543,cs),
(165,25,ls),
(162,8,o),
(152,0,o),
(135,0,cs)
);
}
);
width = 600;
}
);
unicode = 7838;
},
{
color = (153, 254, 255, 255);
glyphname = T;
layers = (
{
layerId = "E6FBA6FA-5C25-4A6C-B37B-1AAF22FBF472";
shapes = (
{
closed = 1;
nodes = (
(250,0,o),
(230,25,o),
(241,75,cs),
(346,570,ls),
(350,587,o),
(343,595,o),
(326,595,cs),
(234,595,ls),
(189,595,o),
(171,618,o),
(181,663,cs),
(191,708,o),
(217,730,o),
(262,730,cs),
(648,730,ls),
(693,730,o),
(711,708,o),
(701,663,cs),
(691,618,o),
(663,595,o),
(618,595,cs),
(526,595,ls),
(509,595,o),
(500,587,o),
(496,570,cs),
(391,75,ls),
(380,25,o),
(350,0,o),
(300,0,cs)
);
}
);
width = 600;
},
{
layerId = "044B5795-75D4-4E5A-ADC6-7EB8037CE6F5";
shapes = (
{
closed = 1;
nodes = (
(268,-10,o),
(256,5,o),
(262,35,cs),
(387,620,ls),
(390,633,o),
(384,640,o),
(371,640,cs),
(236,640,ls),
(209,640,o),
(195,658,o),
(201,685,cs),
(206,712,o),
(228,730,o),
(255,730,cs),
(655,730,ls),
(682,730,o),
(696,712,o),
(691,685,cs),
(685,658,o),
(663,640,o),
(636,640,cs),
(501,640,ls),
(488,640,o),
(480,633,o),
(477,620,cs),
(352,35,ls),
(346,5,o),
(328,-10,o),
(298,-10,cs)
);
}
);
width = 600;
},
{
layerId = "50AD700C-E391-419B-B293-150AAD617642";
shapes = (
{
closed = 1;
nodes = (
(282,-10,o),
(276,-2,o),
(279,15,cs),
(417,665,ls),
(420,675,o),
(416,680,o),
(406,680,cs),
(230,680,ls),
(215,680,o),
(207,690,o),
(210,705,cs),
(213,720,o),
(225,730,o),
(240,730,cs),
(670,730,ls),
(685,730,o),
(693,720,o),
(690,705,cs),
(687,690,o),
(674,680,o),
(659,680,cs),
(486,680,ls),
(476,680,o),
(470,675,o),
(467,665,cs),
(329,15,ls),
(326,-2,o),
(316,-10,o),
(299,-10,cs)
);
}
);
width = 600;
}
);
unicode = 84;
},
{
color = (153, 254, 255, 255);
glyphname = U;
layers = (
{
layerId = "E6FBA6FA-5C25-4A6C-B37B-1AAF22FBF472";
shapes = (
{
closed = 1;
nodes = (
(199,655,ls),
(210,705,o),
(240,730,o),
(290,730,cs),
(340,730,o),
(360,705,o),
(349,655,cs),
(258,225,ls),
(248,179,o),
(283,120,o),
(326,120,qs),
(368,120,o),
(428,179,o),
(438,225,qs),
(529,655,ls),
(540,705,o),
(570,730,o),
(620,730,cs),
(670,730,o),
(690,705,o),
(679,655,cs),
(588,224,ls),
(566,121,o),
(409,-10,o),
(298,-10,qs),
(187,-10,o),
(86,120,o),
(108,224,qs)
);
}
);
width = 600;
},
{
layerId = "044B5795-75D4-4E5A-ADC6-7EB8037CE6F5";
shapes = (
{
closed = 1;
nodes = (
(236,685,ls),
(242,715,o),
(260,730,o),
(290,730,cs),
(320,730,o),
(332,715,o),
(326,685,cs),
(225,210,ls),
(212,150,o),
(256,80,o),
(317,80,qs),
(377,80,o),
(452,150,o),
(465,210,qs),
(566,685,ls),
(572,715,o),
(590,730,o),
(620,730,cs),
(650,730,o),
(662,715,o),
(656,685,cs),
(555,210,ls),
(534,112,o),
(401,-10,o),
(298,-10,qs),
(196,-10,o),
(114,113,o),
(135,210,qs)
);
}
);
width = 600;
},
{
layerId = "50AD700C-E391-419B-B293-150AAD617642";
shapes = (
{
closed = 1;
nodes = (
(258,705,ls),
(261,722,o),
(271,730,o),
(288,730,cs),
(305,730,o),
(311,722,o),
(308,705,cs),
(201,200,ls),
(185,127,o),
(242,40,o),
(309,40,qs),
(376,40,o),
(469,127,o),
(485,200,qs),
(592,705,ls),
(595,722,o),
(605,730,o),
(622,730,cs),
(639,730,o),
(645,722,o),
(642,705,cs),
(535,200,ls),
(515,109,o),
(385,-10,o),
(298,-10,qs),
(210,-10,o),
(131,109,o),
(151,200,qs)
);
}
);
width = 600;
}
);
unicode = 85;
},
{
color = (153, 254, 255, 255);
glyphname = V;
layers = (
{
layerId = "E6FBA6FA-5C25-4A6C-B37B-1AAF22FBF472";
shapes = (
{
closed = 1;
nodes = (
(187,662,ls),
(184,714,o),
(219,740,o),
(263,740,cs),
(299,740,o),
(324,723,o),
(324,688,cs),
(337,263,ls),
(338,230,o),
(360,230,o),
(375,263,cs),
(568,688,ls),
(584,723,o),
(615,740,o),
(651,740,cs),
(695,740,o),
(720,714,o),
(695,662,cs),
(407,62,ls),
(384,13,o),
(348,-10,o),
(298,-10,cs),
(248,-10,o),
(222,13,o),
(219,62,cs)
);
}
);
width = 600;
},
{
layerId = "044B5795-75D4-4E5A-ADC6-7EB8037CE6F5";
shapes = (
{
closed = 1;
nodes = (
(210,688,ls),
(209,714,o),
(220,740,o),
(259,740,cs),
(285,740,o),
(303,728,o),
(304,705,cs),
(324,185,ls),
(326,155,o),
(340,155,o),
(354,185,cs),
(596,705,ls),
(607,728,o),
(629,740,o),
(655,740,cs),
(694,740,o),
(695,714,o),
(682,688,cs),
(371,38,ls),
(355,6,o),
(332,-10,o),
(298,-10,cs),
(265,-10,o),
(247,6,o),
(245,38,cs)
);
}
);
width = 600;
},
{
layerId = "50AD700C-E391-419B-B293-150AAD617642";
shapes = (
{
closed = 1;
nodes = (
(229,711,ls),
(229,727,o),
(237,740,o),
(257,740,cs),
(270,740,o),
(283,734,o),
(283,721,cs),
(311,100,ls),
(312,80,o),
(322,80,o),
(331,100,cs),
(623,721,ls),
(629,734,o),
(644,740,o),
(657,740,cs),
(677,740,o),
(681,727,o),
(673,711,cs),
(342,19,ls),
(333,0,o),
(318,-10,o),
(298,-10,cs),
(278,-10,o),
(267,0,o),
(266,19,cs)
);
}
);
width = 600;
}
);
unicode = 86;
},
{
color = (153, 254, 255, 255);
glyphname = W;
layers = (
{
layerId = "E6FBA6FA-5C25-4A6C-B37B-1AAF22FBF472";
shapes = (
{
closed = 1;
nodes = (
(149,670,ls),
(154,717,o),
(180,740,o),
(225,740,cs),
(267,740,o),
(284,720,o),
(279,680,cs),
(215,225,ls),
(213,211,o),
(223,209,o),
(230,224,cs),
(343,515,ls),
(358,552,o),
(383,570,o),
(421,570,cs),
(459,570,o),
(476,552,o),
(475,515,cs),
(466,224,ls),
(465,209,o),
(477,210,o),
(481,225,cs),
(612,688,ls),
(622,723,o),
(644,740,o),
(683,740,cs),
(731,740,o),
(749,714,o),
(732,662,cs),
(541,71,ls),
(524,17,o),
(488,-10,o),
(434,-10,cs),
(380,-10,o),
(354,16,o),
(358,70,cs),
(375,311,ls),
(376,325,o),
(362,326,o),
(357,311,cs),
(273,73,ls),
(253,18,o),
(216,-10,o),
(160,-10,cs),
(104,-10,o),
(79,17,o),
(85,73,cs)
);
}
);
width = 600;
},
{
layerId = "044B5795-75D4-4E5A-ADC6-7EB8037CE6F5";
shapes = (
{
closed = 1;
nodes = (
(163,685,ls),
(165,722,o),
(186,740,o),
(220,740,cs),
(248,740,o),
(259,728,o),
(256,703,cs),
(198,145,ls),
(196,133,o),
(204,132,o),
(209,144,cs),
(355,523,ls),
(368,555,o),
(389,570,o),
(421,570,cs),
(453,570,o),
(468,555,o),
(467,523,cs),
(453,145,ls),
(452,134,o),
(460,134,o),
(464,146,cs),
(642,703,ls),
(651,728,o),
(666,740,o),
(694,740,cs),
(728,740,o),
(741,722,o),
(729,685,cs),
(515,50,ls),
(501,10,o),
(475,-10,o),
(434,-10,cs),
(393,-10,o),
(374,10,o),
(376,50,cs),
(392,401,ls),
(393,412,o),
(383,412,o),
(378,401,cs),
(246,51,ls),
(230,10,o),
(203,-10,o),
(162,-10,cs),
(121,-10,o),
(102,10,o),
(106,51,cs)
);
}
);
width = 600;
},
{
layerId = "50AD700C-E391-419B-B293-150AAD617642";
shapes = (
{
closed = 1;
nodes = (
(190,710,ls),
(191,730,o),
(202,740,o),
(222,740,cs),
(237,740,o),
(242,734,o),
(241,720,cs),
(181,55,l),
(181,50,o),
(184,49,o),
(187,55,cs),
(377,539,ls),
(385,560,o),
(400,570,o),
(421,570,cs),
(442,570,o),
(453,560,o),
(453,539,cs),
(439,55,ls),
(439,50,o),
(443,50,o),
(445,55,c),
(665,720,ls),
(670,734,o),
(677,740,o),
(692,740,cs),
(712,740,o),
(719,730,o),
(712,710,cs),
(481,27,ls),
(472,2,o),
(456,-10,o),
(431,-10,cs),
(406,-10,o),
(393,2,o),
(394,27,cs),
(407,485,ls),
(407,490,o),
(401,490,o),
(399,485,cs),
(218,27,ls),
(207,2,o),
(191,-10,o),
(166,-10,cs),
(141,-10,o),
(128,2,o),
(131,27,cs)
);
}
);
width = 600;
}
);
unicode = 87;
},
{
color = (153, 254, 255, 255);
glyphname = X;
layers = (
{
layerId = "E6FBA6FA-5C25-4A6C-B37B-1AAF22FBF472";
shapes = (
{
closed = 1;
nodes = (
(217,40,ls),
(192,7,o),
(165,-10,o),
(128,-10,cs),
(74,-10,o),
(41,23,o),
(89,88,cs),
(527,690,ls),
(550,724,o),
(577,740,o),
(614,740,cs),
(668,740,o),
(700,708,o),
(653,642,cs)
);
},
{
closed = 1;
nodes = (
(549,88,ls),
(568,22,o),
(522,-10,o),
(468,-10,cs),
(431,-10,o),
(409,7,o),
(401,40,cs),
(219,642,ls),
(199,707,o),
(246,740,o),
(300,740,cs),
(337,740,o),
(357,723,o),
(367,690,cs)
);
}
);
width = 600;
},
{
layerId = "044B5795-75D4-4E5A-ADC6-7EB8037CE6F5";
shapes = (
{
closed = 1;
nodes = (
(159,20,ls),
(145,0,o),
(127,-10,o),
(105,-10,cs),
(75,-10,o),
(52,9,o),
(82,48,cs),
(586,711,ls),
(601,731,o),
(618,740,o),
(640,740,cs),
(669,740,o),
(692,721,o),
(662,682,cs)
);
},
{
closed = 1;
nodes = (
(538,49,ls),
(552,10,o),
(521,-10,o),
(491,-10,cs),
(469,-10,o),
(455,0,o),
(449,20,cs),
(227,682,ls),
(213,720,o),
(245,740,o),
(274,740,cs),
(296,740,o),
(310,731,o),
(316,711,cs)
);
}
);
width = 600;
},
{
layerId = "50AD700C-E391-419B-B293-150AAD617642";
shapes = (
{
closed = 1;
nodes = (
(118,6,ls),
(110,-5,o),
(100,-10,o),
(88,-10,cs),
(73,-10,o),
(59,1,o),
(76,22,cs),
(621,724,ls),
(629,735,o),
(639,740,o),
(652,740,cs),
(667,740,o),
(682,729,o),
(664,707,cs)
);
},
{
closed = 1;
nodes = (
(534,22,ls),
(541,1,o),
(523,-10,o),
(508,-10,cs),
(496,-10,o),
(488,-5,o),
(484,6,cs),
(236,707,ls),
(228,729,o),
(247,740,o),
(262,740,cs),
(275,740,o),
(283,735,o),
(287,724,cs)
);
}
);
width = 600;
}
);
unicode = 88;
},
{
color = (153, 254, 255, 255);
glyphname = Y;
layers = (
{
layerId = "E6FBA6FA-5C25-4A6C-B37B-1AAF22FBF472";
shapes = (
{
closed = 1;
nodes = (
(248,-10,o),
(228,15,o),
(239,65,cs),
(274,230,ls),
(278,250,o),
(278,269,o),
(274,287,cs),
(191,655,ls),
(181,704,o),
(223,740,o),
(265,740,cs),
(307,740,o),
(330,721,o),
(338,683,cs),
(384,448,ls),
(388,429,o),
(394,429,o),
(406,448,cs),
(552,683,ls),
(576,721,o),
(607,740,o),
(649,740,cs),
(691,740,o),
(719,704,o),
(687,655,cs),
(448,287,ls),
(436,269,o),
(428,250,o),
(424,230,cs),
(389,65,ls),
(378,15,o),
(348,-10,o),
(298,-10,cs)
);
}
);
width = 600;
},
{
layerId = "044B5795-75D4-4E5A-ADC6-7EB8037CE6F5";
shapes = (
{
closed = 1;
nodes = (
(268,-10,o),
(256,5,o),
(262,35,cs),
(308,248,ls),
(311,265,o),
(311,281,o),
(307,296,cs),
(206,690,ls),
(199,716,o),
(226,740,o),
(248,740,cs),
(273,740,o),
(285,735,o),
(293,706,cs),
(373,390,ls),
(377,375,o),
(383,375,o),
(393,390,cs),
(607,706,ls),
(627,735,o),
(641,740,o),
(666,740,cs),
(688,740,o),
(705,716,o),
(688,690,cs),
(419,296,ls),
(409,281,o),
(401,265,o),
(398,248,cs),
(352,35,ls),
(346,5,o),
(328,-10,o),
(298,-10,cs)
);
}
);
width = 600;
},
{
layerId = "50AD700C-E391-419B-B293-150AAD617642";
shapes = (
{
closed = 1;
nodes = (
(281,-10,o),
(275,-2,o),
(278,15,cs),
(330,260,ls),
(333,273,o),
(333,286,o),
(329,298,cs),
(215,711,ls),
(211,727,o),
(228,740,o),
(239,740,cs),
(253,740,o),
(265,734,o),
(268,721,cs),
(367,356,ls),
(370,344,o),
(376,344,o),
(385,356,cs),
(638,721,ls),
(647,734,o),
(661,740,o),
(675,740,cs),
(686,740,o),
(699,727,o),
(687,711,cs),
(397,298,ls),
(389,286,o),
(383,273,o),
(380,260,cs),
(328,15,ls),
(325,-2,o),
(315,-10,o),
(298,-10,cs)
);
}
);
width = 600;
}
);
unicode = 89;
},
{
color = (153, 254, 255, 255);
glyphname = Z;
layers = (
{
layerId = "E6FBA6FA-5C25-4A6C-B37B-1AAF22FBF472";
shapes = (
{
closed = 1;
nodes = (
(176,0,ls),
(108,0,o),
(82,33,o),
(96,101,cs),
(101,124,o),
(112,144,o),
(127,164,cs),
(449,569,ls),
(463,586,o),
(459,595,o),
(439,595,cs),
(276,595,ls),
(231,595,o),
(214,618,o),
(224,663,cs),
(234,708,o),
(261,730,o),
(306,730,cs),
(568,730,ls),
(636,730,o),
(662,697,o),
(648,629,cs),
(643,606,o),
(634,586,o),
(617,566,cs),
(294,161,ls),
(281,144,o),
(284,135,o),
(304,135,cs),
(487,135,ls),
(532,135,o),
(549,113,o),
(539,68,cs),
(530,23,o),
(503,0,o),
(458,0,cs)
);
}
);
width = 600;
},
{
layerId = "044B5795-75D4-4E5A-ADC6-7EB8037CE6F5";
shapes = (
{
closed = 1;
nodes = (
(153,0,ls),
(108,0,o),
(90,23,o),
(99,68,cs),
(103,83,o),
(108,96,o),
(119,109,cs),
(522,618,ls),
(533,632,o),
(532,640,o),
(515,640,cs),
(271,640,ls),
(244,640,o),
(230,658,o),
(236,685,cs),
(241,712,o),
(263,730,o),
(290,730,cs),
(592,730,ls),
(637,730,o),
(656,708,o),
(646,663,cs),
(643,648,o),
(637,634,o),
(626,621,cs),
(223,112,ls),
(212,98,o),
(213,90,o),
(230,90,cs),
(489,90,ls),
(516,90,o),
(530,72,o),
(525,45,cs),
(519,18,o),
(497,0,o),
(470,0,cs)
);
}
);
width = 600;
},
{
layerId = "50AD700C-E391-419B-B293-150AAD617642";
shapes = (
{
closed = 1;
nodes = (
(127,0,ls),
(102,0,o),
(93,13,o),
(98,38,cs),
(100,46,o),
(103,54,o),
(109,61,cs),
(574,663,ls),
(584,675,o),
(581,680,o),
(568,680,cs),
(266,680,ls),
(251,680,o),
(241,690,o),
(244,705,cs),
(247,720,o),
(261,730,o),
(276,730,cs),
(609,730,ls),
(638,730,o),
(649,716,o),
(643,687,cs),
(641,677,o),
(637,669,o),
(631,661,cs),
(171,67,ls),
(162,55,o),
(165,50,o),
(178,50,cs),
(496,50,ls),
(511,50,o),
(519,40,o),
(515,25,cs),
(512,10,o),
(500,0,o),
(485,0,cs)
);
}
);
width = 600;
}
);
unicode = 90;
},
{
color = (153, 254, 255, 255);
glyphname = a;
layers = (
{
layerId = "E6FBA6FA-5C25-4A6C-B37B-1AAF22FBF472";
shapes = (
{
closed = 1;
nodes = (
(133,-10,o),
(61,53,o),
(96,215,cs),
(143,437,o),
(274,560,o),
(429,560,cs),
(554,560,o),
(610,449,o),
(580,305,cs),
(531,73,o),
(333,-10,o),
(228,-10,cs)
);
},
{
closed = 1;
nodes = (
(352,125,o),
(408,200,o),
(428,295,cs),
(446,382,o),
(435,425,o),
(390,425,cs),
(345,425,o),
(279,370,o),
(246,215,cs),
(231,145,o),
(257,125,o),
(287,125,cs)
);
},
{
closed = 1;
nodes = (
(523,538,o),
(555,560,o),
(601,560,cs),
(646,560,o),
(660,539,o),
(642,494,cs),
(585,352,o),
(548,222,o),
(560,54,cs),
(564,10,o),
(545,-10,o),
(500,-10,cs),
(454,-10,o),
(427,11,o),
(424,54,cs),
(412,222,o),
(449,352,o),
(506,494,cs)
);
}
);
width = 600;
},
{
layerId = "044B5795-75D4-4E5A-ADC6-7EB8037CE6F5";
shapes = (
{
closed = 1;
nodes = (
(114,-10,o),
(75,70,o),
(104,206,cs),
(149,420,o),
(283,560,o),
(429,560,cs),
(576,560,o),
(576,430,o),
(546,286,cs),
(511,120,o),
(343,-10,o),
(228,-10,cs)
);
},
{
closed = 1;
nodes = (
(341,80,o),
(433,180,o),
(456,286,cs),
(476,380,o),
(495,470,o),
(400,470,cs),
(325,470,o),
(229,370,o),
(194,205,cs),
(173,110,o),
(203,80,o),
(267,80,cs)
);
},
{
closed = 1;
nodes = (
(534,546,o),
(555,560,o),
(585,560,cs),
(615,560,o),
(624,546,o),
(613,516,cs),
(553,358,o),
(521,214,o),
(527,34,cs),
(528,5,o),
(514,-10,o),
(484,-10,cs),
(454,-10,o),
(438,5,o),
(437,34,cs),
(431,214,o),
(463,358,o),
(523,516,cs)
);
}
);
width = 600;
},
{
layerId = "50AD700C-E391-419B-B293-150AAD617642";
shapes = (
{
closed = 1;
nodes = (
(103.874,-10,o),
(97.433,82,o),
(121.457,195,cs),
(167.591,412,o),
(293.056,560,o),
(429.056,560,cs),
(565.056,560,o),
(548.867,418,o),
(519.103,278,cs),
(489.339,138,o),
(360.874,-10,o),
(227.874,-10,cs)
);
},
{
closed = 1;
nodes = (
(329.504,40,o),
(445.504,167,o),
(469.103,278,cs),
(492.276,387,o),
(522.426,510,o),
(408.426,510,cs),
(315.426,510,o),
(211.001,381,o),
(171.457,195,cs),
(149.772,93,o),
(166.504,40,o),
(248.504,40,cs)
);
},
{
closed = 1;
nodes = (
(547.355,552,o),
(559.056,560,o),
(576.056,560,cs),
(593.056,560,o),
(597.355,552,o),
(591.741,535,cs),
(525.41,350,o),
(497.221,208,o),
(498.976,14,cs),
(499.575,-2,o),
(491.874,-10,o),
(474.874,-10,cs),
(457.874,-10,o),
(449.575,-2,o),
(448.976,14,cs),
(447.221,208,o),
(477.41,350,o),
(541.741,535,cs)
);
}
);
width = 600;
}
);
unicode = 97;
},
{
color = (153, 254, 255, 255);
glyphname = ae;
layers = (
{
layerId = "E6FBA6FA-5C25-4A6C-B37B-1AAF22FBF472";
shapes = (
{
closed = 1;
nodes = (
(288,330,ls),
(305,330,o),
(315,338,o),
(318,355,cs),
(328,400,ls),
(334,428,o),
(330,463,o),
(296,463,cs),
(278,463,o),
(264,453,o),
(254,439,cs),
(233,409,o),
(220,400,o),
(198,400,cs),
(141,400,o),
(121,433,o),
(152,478,cs),
(184,527,o),
(237,560,o),
(300,560,cs),
(358,560,o),
(407,530,o),
(400,468,c),
(421,530,o),
(483,560,o),
(540,560,cs),
(633,560,o),
(674,489,o),
(655,400,cs),
(644,350,ls),
(630,283,o),
(590,250,o),
(523,250,cs),
(439,250,ls),
(422,250,o),
(412,242,o),
(409,225,cs),
(393,150,ls),
(387,122,o),
(390,87,o),
(424,87,cs),
(442,87,o),
(457,97,o),
(467,111,cs),
(488,141,o),
(501,150,o),
(523,150,cs),
(580,150,o),
(599,117,o),
(569,72,cs),
(537,23,o),
(485,-10,o),
(422,-10,cs),
(366,-10,o),
(312,20,o),
(318,81,c),
(298,18,o),
(234,-10,o),
(176,-10,cs),
(78,-10,o),
(42,68,o),
(62,159,cs),
(83,261,o),
(166,330,o),
(268,330,cs)
);
},
{
closed = 1;
nodes = (
(291,225,ls),
(294,242,o),
(288,250,o),
(271,250,cs),
(251,250,ls),
(209,250,o),
(190,201,o),
(183,168,cs),
(176,136,o),
(174,87,o),
(215,87,cs),
(249,87,o),
(269,121,o),
(275,150,cs)
);
},
{
closed = 1;
nodes = (
(436,355,ls),
(433,338,o),
(439,330,o),
(456,330,cs),
(496,330,ls),
(513,330,o),
(523,338,o),
(526,355,cs),
(536,400,ls),
(542,428,o),
(538,463,o),
(504,463,cs),
(470,463,o),
(452,428,o),
(446,400,cs)
);
}
);
width = 600;
},
{
anchors = (
{
name = m.uni0308;
position = "{417, 550}";
}
);
layerId = "044B5795-75D4-4E5A-ADC6-7EB8037CE6F5";
shapes = (
{
closed = 1;
nodes = (
(312,324,ls),
(325,324,o),
(333,331,o),
(336,344,cs),
(348,399,ls),
(357,443,o),
(348,485,o),
(298,485,cs),
(265,485,o),
(238,467,o),
(224,440,cs),
(214,421,o),
(204,414,o),
(188,414,cs),
(151,414,o),
(136,434,o),
(153,466,cs),
(182,521,o),
(235,560,o),
(301,560,cs),
(357,560,o),
(409,532,o),
(404,471,c),
(424,530,o),
(484,560,o),
(539,560,cs),
(632,560,o),
(669,488,o),
(650,400,cs),
(636,336,ls),
(625,282,o),
(593,256,o),
(539,256,cs),
(417,256,ls),
(404,256,o),
(396,249,o),
(393,236,cs),
(375,150,ls),
(366,106,o),
(376,65,o),
(426,65,cs),
(459,65,o),
(485,82,o),
(500,109,cs),
(511,129,o),
(521,137,o),
(538,137,cs),
(578,137,o),
(592,115,o),
(573,82,cs),
(543,26,o),
(485,-10,o),
(418,-10,cs),
(363,-10,o),
(320,24,o),
(321,80,c),
(296,21,o),
(233,-10,o),
(176,-10,cs),
(80,-10,o),
(46,70,o),
(65,159,cs),
(84,250,o),
(155,324,o),
(251,324,cs)
);
},
{
closed = 1;
nodes = (
(313,236,ls),
(316,249,o),
(310,256,o),
(297,256,cs),
(238,256,ls),
(186,256,o),
(158,203,o),
(149,160,cs),
(139,112,o),
(151,65,o),
(205,65,cs),
(255,65,o),
(285,105,o),
(295,150,cs)
);
},
{
closed = 1;
nodes = (
(416,344,ls),
(413,331,o),
(419,324,o),
(432,324,cs),
(530,324,ls),
(543,324,o),
(551,331,o),
(554,344,cs),
(566,400,ls),
(575,443,o),
(564,485,o),
(515,485,cs),
(466,485,o),
(437,443,o),
(428,400,cs)
);
}
);
width = 600;
},
{
layerId = "50AD700C-E391-419B-B293-150AAD617642";
shapes = (
{
closed = 1;
nodes = (
(330,312,ls),
(340,312,o),
(346,317,o),
(349,327,cs),
(366,410,ls),
(377,462,o),
(363,517,o),
(304,517,cs),
(251,517,o),
(213,477,o),
(198,430,cs),
(195,419,o),
(188,414,o),
(178,414,cs),
(156,414,o),
(149,426,o),
(156,446,cs),
(180,510,o),
(234,560,o),
(306,560,cs),
(360,560,o),
(407,531,o),
(404,474,c),
(428,530,o),
(487,560,o),
(541,560,cs),
(629,560,o),
(665,494,o),
(647,410,cs),
(630,329,ls),
(621,289,o),
(597,269,o),
(557,269,cs),
(399,269,ls),
(389,269,o),
(383,264,o),
(381,254,cs),
(357,140,ls),
(344,82,o),
(368,34,o),
(430,34,cs),
(483,34,o),
(523,73,o),
(538,121,cs),
(541,132,o),
(548,137,o),
(558,137,cs),
(580,137,o),
(589,125,o),
(580,105,cs),
(555,39,o),
(498,-10,o),
(424,-10,cs),
(371,-10,o),
(319,19,o),
(319,75,c),
(295,16,o),
(226,-10,o),
(172,-10,cs),
(81,-10,o),
(56,74,o),
(73,155,cs),
(90,235,o),
(147,312,o),
(236,312,cs)
);
},
{
closed = 1;
nodes = (
(333,254,ls),
(335,264,o),
(331,269,o),
(321,269,cs),
(227,269,ls),
(166,269,o),
(132,206,o),
(121,155,cs),
(109,97,o),
(123,31,o),
(190,31,cs),
(253,31,o),
(296,81,o),
(309,140,cs)
);
},
{
closed = 1;
nodes = (
(397,327,ls),
(394,317,o),
(398,312,o),
(408,312,cs),
(563,312,ls),
(573,312,o),
(579,317,o),
(582,327,cs),
(599,410,ls),
(611,466,o),
(590,517,o),
(529,517,cs),
(468,517,o),
(426,466,o),
(414,410,cs)
);
}
);
width = 600;
}
);
unicode = 230;
},
{
color = (153, 254, 255, 255);
glyphname = b;
layers = (
{
layerId = "E6FBA6FA-5C25-4A6C-B37B-1AAF22FBF472";
shapes = (
{
closed = 1;
nodes = (
(81,-10,o),
(63,14,o),
(73,63,cs),
(201,665,ls),
(212,715,o),
(242,740,o),
(292,740,cs),
(342,740,o),
(362,715,o),
(351,665,cs),
(312,479,l),
(351,533,o),
(396,560,o),
(465,560,cs),
(630,560,o),
(640,406,o),
(612,274,cs),
(585,148,o),
(512,-10,o),
(352,-10,cs),
(275,-10,o),
(226,27,o),
(220,69,c),
(218,63,ls),
(208,14,o),
(181,-10,o),
(131,-10,cs)
);
},
{
closed = 1;
nodes = (
(422,140,o),
(448,207,o),
(462,273,cs),
(476,341,o),
(480,420,o),
(399,420,cs),
(337,420,o),
(289,373,o),
(277,315,cs),
(260,235,ls),
(248,181,o),
(286,140,o),
(346,140,cs)
);
}
);
width = 600;
},
{
layerId = "044B5795-75D4-4E5A-ADC6-7EB8037CE6F5";
shapes = (
{
closed = 1;
nodes = (
(103,-10,o),
(91,5,o),
(98,36,cs),
(238,695,ls),
(244,725,o),
(262,740,o),
(292,740,cs),
(322,740,o),
(334,725,o),
(328,695,cs),
(281,476,l),
(305,522,o),
(365,560,o),
(444,560,cs),
(606,560,o),
(606,400,o),
(580,276,cs),
(553,152,o),
(485,-10,o),
(326,-10,cs),
(256,-10,o),
(219,21,o),
(197,80,c),
(188,36,ls),
(181,5,o),
(163,-10,o),
(133,-10,cs)
);
},
{
closed = 1;
nodes = (
(432,75,o),
(473,197,o),
(491,282,cs),
(508,364,o),
(518,475,o),
(404,475,cs),
(332,475,o),
(261,380,o),
(247,316,cs),
(224,206,ls),
(210,143,o),
(262,75,o),
(335,75,cs)
);
}
);
width = 600;
},
{
layerId = "50AD700C-E391-419B-B293-150AAD617642";
shapes = (
{
closed = 1;
nodes = (
(116,-10,o),
(110,-2,o),
(113,15,cs),
(262,715,ls),
(266,732,o),
(275,740,o),
(292,740,cs),
(309,740,o),
(316,732,o),
(312,715,cs),
(260,469,l),
(300,531,o),
(366,560,o),
(429,560,cs),
(580,560,o),
(589,394,o),
(563,275,cs),
(538,155,o),
(459,-10,o),
(311,-10,cs),
(193,-10,o),
(178,57,o),
(177,78,c),
(163,15,ls),
(160,-2,o),
(150,-10,o),
(133,-10,cs)
);
},
{
closed = 1;
nodes = (
(436,38,o),
(493,177,o),
(513,275,cs),
(534,373,o),
(537,512,o),
(412,512,cs),
(338,512,o),
(250,425,o),
(235,355,cs),
(201,194,ls),
(185,119,o),
(232,38,o),
(320,38,cs)
);
}
);
width = 600;
}
);
unicode = 98;
},
{
color = (153, 254, 255, 255);
glyphname = c;
layers = (
{
layerId = "E6FBA6FA-5C25-4A6C-B37B-1AAF22FBF472";
shapes = (
{
closed = 1;
nodes = (
(157,479,o),
(283,560,o),
(432,560,cs),
(484,560,o),
(610,531,o),
(615,461,cs),
(616,452,o),
(615,446,o),
(615,445,cs),
(608,416,o),
(593,389,o),
(565,379,cs),
(557,376,o),
(549,374,o),
(538,374,cs),
(515,374,o),
(503,383,o),
(494,392,cs),
(466,418,o),
(445,425,o),
(416,425,cs),
(353,425,o),
(287,387,o),
(263,274,cs),
(241,169,o),
(282,125,o),
(342,125,cs),
(379,125,o),
(409,130,o),
(448,157,cs),
(466,169,o),
(476,173,o),
(494,173,cs),
(506,173,o),
(515,171,o),
(523,168,cs),
(547,158,o),
(552,132,o),
(547,109,cs),
(546,102,o),
(543,94,o),
(538,86,cs),
(500,13,o),
(363,-10,o),
(307,-10,cs),
(161,-10,o),
(72,78,o),
(114,278,cs)
);
}
);
width = 600;
},
{
layerId = "044B5795-75D4-4E5A-ADC6-7EB8037CE6F5";
shapes = (
{
closed = 1;
nodes = (
(182,479,o),
(312,560,o),
(458,560,cs),
(526,560,o),
(599,535,o),
(606,489,cs),
(607,484,o),
(607,477,o),
(606,470,cs),
(602,453,o),
(592,440,o),
(573,432,cs),
(570,431,o),
(566,430,o),
(559,430,cs),
(553,430,o),
(547,431,o),
(539,438,cs),
(519,456,o),
(501,470,o),
(443,470,cs),
(366,470,o),
(256,406,o),
(227,267,cs),
(201,148,o),
(257,80,o),
(357,80,cs),
(389,80,o),
(405,87,o),
(429,99,cs),
(456,113,o),
(471,119,o),
(491,119,cs),
(498,119,o),
(505,118,o),
(511,115,cs),
(525,108,o),
(531,95,o),
(528,79,cs),
(526,71,o),
(521,61,o),
(514,52,cs),
(481,10,o),
(404,-10,o),
(335,-10,cs),
(189,-10,o),
(97,78,o),
(139,278,cs)
);
}
);
width = 600;
},
{
layerId = "50AD700C-E391-419B-B293-150AAD617642";
shapes = (
{
closed = 1;
nodes = (
(202,479,o),
(320,560,o),
(463,560,cs),
(526,560,o),
(586,533,o),
(600,507,cs),
(602,502,o),
(603,497,o),
(601,491,cs),
(599,481,o),
(591,472,o),
(577,468,cs),
(574,467,o),
(571,466,o),
(567,466,cs),
(554,466,o),
(545,474,o),
(540,479,cs),
(516,503,o),
(482,510,o),
(448,510,cs),
(345,510,o),
(242,432,o),
(209,277,cs),
(178,130,o),
(218,40,o),
(349,40,cs),
(380,40,o),
(430,48,o),
(467,68,cs),
(488,79,o),
(494,82,o),
(500,82,cs),
(504,82,o),
(511,81,o),
(516,74,cs),
(520,69,o),
(521,62,o),
(519,54,cs),
(518,49,o),
(516,43,o),
(509,37,cs),
(488,20,o),
(403,-10,o),
(327,-10,cs),
(198,-10,o),
(117,78,o),
(159,278,cs)
);
}
);
width = 600;
}
);
unicode = 99;
},
{
color = (153, 254, 255, 255);
glyphname = d;
layers = (
{
layerId = "B5C1BF20-9872-4D4C-86C3-1DD8ABDF9697";
name = "#instance";
shapes = (
{
closed = 1;
nodes = (
(446,-10,o),
(440,-2,o),
(443,15,c),
(457,78,l),
(446,57,o),
(403,-10,o),
(285,-10,cs),
(137,-10,o),
(128,155,o),
(153,275,cs),
(179,394,o),
(258,560,o),
(409,560,cs),
(472,560,o),
(526,531,o),
(540,469,c),
(592,715,ls),
(596,732,o),
(605,740,o),
(622,740,cs),
(639,740,o),
(646,732,o),
(642,715,cs),
(493,15,l),
(490,-2,o),
(480,-10,o),
(463,-10,cs)
);
},
{
closed = 1;
nodes = (
(384,38,o),
(465,119,o),
(481,194,cs),
(515,355,ls),
(530,425,o),
(480,512,o),
(406,512,cs),
(281,512,o),
(224,373,o),
(203,275,cs),
(183,177,o),
(180,38,o),
(296,38,cs)
);
}
);
width = 600;
},
{
layerId = "E6FBA6FA-5C25-4A6C-B37B-1AAF22FBF472";
shapes = (
{
closed = 1;
nodes = (
(414,-10,o),
(397,14,o),
(407,63,cs),
(409,69,l),
(385,27,o),
(320,-10,o),
(243,-10,cs),
(83,-10,o),
(76,148,o),
(103,274,cs),
(131,406,o),
(207,560,o),
(372,560,cs),
(441,560,o),
(474,533,o),
(491,479,c),
(530,665,ls),
(541,715,o),
(571,740,o),
(621,740,cs),
(671,740,o),
(691,715,o),
(680,665,cs),
(552,63,ls),
(542,14,o),
(514,-10,o),
(464,-10,cs)
);
},
{
closed = 1;
nodes = (
(373,140,o),
(427,181,o),
(439,235,cs),
(456,315,ls),
(468,373,o),
(440,420,o),
(378,420,cs),
(297,420,o),
(267,341,o),
(253,273,cs),
(239,207,o),
(237,140,o),
(313,140,cs)
);
}
);
width = 600;
},
{
layerId = "044B5795-75D4-4E5A-ADC6-7EB8037CE6F5";
shapes = (
{
closed = 1;
nodes = (
(422,-10,o),
(410,5,o),
(417,36,cs),
(426,80,l),
(378,21,o),
(330,-10,o),
(260,-10,cs),
(101,-10,o),
(101,152,o),
(128,276,cs),
(154,400,o),
(222,560,o),
(384,560,cs),
(463,560,o),
(506,522,o),
(510,476,c),
(557,695,ls),
(563,725,o),
(581,740,o),
(611,740,cs),
(641,740,o),
(653,725,o),
(647,695,cs),
(507,36,ls),
(500,5,o),
(482,-10,o),
(452,-10,cs)
);
},
{
closed = 1;
nodes = (
(360,75,o),
(439,143,o),
(453,206,cs),
(476,316,ls),
(490,380,o),
(460,475,o),
(388,475,cs),
(274,475,o),
(236,364,o),
(219,282,cs),
(201,197,o),
(190,75,o),
(287,75,cs)
);
}
);
width = 600;
},
{
layerId = "50AD700C-E391-419B-B293-150AAD617642";
shapes = (
{
closed = 1;
nodes = (
(446,-10,o),
(440,-2,o),
(443,15,cs),
(457,78,l),
(446,57,o),
(403,-10,o),
(285,-10,cs),
(137,-10,o),
(128,155,o),
(153,275,cs),
(179,394,o),
(258,560,o),
(409,560,cs),
(472,560,o),
(526,531,o),
(540,469,c),
(592,715,ls),
(596,732,o),
(605,740,o),
(622,740,cs),
(639,740,o),
(646,732,o),
(642,715,cs),
(493,15,ls),
(490,-2,o),
(480,-10,o),
(463,-10,cs)
);
},
{
closed = 1;
nodes = (
(384,38,o),
(465,119,o),
(481,194,cs),
(515,355,ls),
(530,425,o),
(480,512,o),
(406,512,cs),
(281,512,o),
(224,373,o),
(203,275,cs),
(183,177,o),
(180,38,o),
(296,38,cs)
);
}
);
width = 600;
}
);
unicode = 100;
},
{
color = (153, 254, 255, 255);
glyphname = eth;
layers = (
{
layerId = "E6FBA6FA-5C25-4A6C-B37B-1AAF22FBF472";
shapes = (
{
closed = 1;
nodes = (
(308,632,ls),
(326,638,o),
(330,646,o),
(324,660,cs),
(323,663,ls),
(302,708,o),
(322,730,o),
(384,730,cs),
(426,730,o),
(458,717,o),
(464,707,cs),
(467,702,ls),
(472,693,o),
(481,690,o),
(493,694,cs),
(581,723,ls),
(628,739,o),
(647,724,o),
(637,677,cs),
(632,654,o),
(618,638,o),
(594,630,cs),
(548,614,ls),
(530,608,o),
(525,599,o),
(533,586,cs),
(560,537,ls),
(619,430,o),
(632,337,o),
(613,251,cs),
(580,96,o),
(459,0,o),
(300,0,cs),
(143,0,o),
(60,94,o),
(90,236,cs),
(118,368,o),
(219,456,o),
(340,456,cs),
(409,456,o),
(452,410,o),
(465,375,c),
(471,375,l),
(473,380,o),
(460,414,o),
(418,489,cs),
(390,538,ls),
(383,551,o),
(371,556,o),
(354,550,cs),
(284,526,ls),
(236,510,o),
(218,525,o),
(228,572,cs),
(232,595,o),
(247,611,o),
(271,619,cs)
);
},
{
closed = 1;
nodes = (
(394,125,o),
(446,168,o),
(460,235,cs),
(474,301,o),
(439,345,o),
(373,345,cs),
(306,345,o),
(254,302,o),
(240,235,cs),
(226,168,o),
(260,125,o),
(327,125,cs)
);
}
);
width = 600;
},
{
layerId = "044B5795-75D4-4E5A-ADC6-7EB8037CE6F5";
shapes = (
{
closed = 1;
nodes = (
(351,623,ls),
(365,629,o),
(368,636,o),
(363,647,cs),
(349,674,ls),
(330,712,o),
(343,730,o),
(389,730,cs),
(412,730,o),
(429,720,o),
(438,701,cs),
(447,682,ls),
(453,671,o),
(461,668,o),
(474,674,cs),
(564,712,ls),
(600,727,o),
(614,718,o),
(606,682,cs),
(602,664,o),
(591,651,o),
(574,644,cs),
(504,614,ls),
(490,608,o),
(486,601,o),
(491,590,cs),
(538,493,ls),
(579,408,o),
(595,308,o),
(577,223,cs),
(548,83,o),
(436,-10,o),
(297,-10,cs),
(160,-10,o),
(87,80,o),
(116,215,cs),
(144,348,o),
(247,436,o),
(374,436,cs),
(432,436,o),
(466,404,o),
(476,380,c),
(490,380,l),
(487,393,o),
(472,429,o),
(447,480,cs),
(410,555,ls),
(404,566,o),
(395,569,o),
(382,563,cs),
(275,518,ls),
(240,503,o),
(226,512,o),
(233,548,cs),
(237,566,o),
(248,578,o),
(266,586,cs)
);
},
{
closed = 1;
nodes = (
(399,70,o),
(467,128,o),
(486,215,cs),
(504,302,o),
(461,360,o),
(376,360,cs),
(293,360,o),
(224,302,o),
(206,215,cs),
(187,128,o),
(231,70,o),
(314,70,cs)
);
}
);
width = 600;
},
{
layerId = "50AD700C-E391-419B-B293-150AAD617642";
shapes = (
{
closed = 1;
nodes = (
(379,617,ls),
(389,621,o),
(392,627,o),
(388,635,cs),
(358,694,ls),
(346,718,o),
(354,730,o),
(383,730,cs),
(398,730,o),
(408,724,o),
(414,712,c),
(441,657,ls),
(445,649,o),
(453,647,o),
(462,651,cs),
(587,704,l),
(604,712,o),
(611,706,o),
(607,688,cs),
(605,679,o),
(600,673,o),
(591,669,c),
(478,621,ls),
(468,617,o),
(465,611,o),
(469,603,cs),
(511,517,ls),
(567,402,o),
(584,302,o),
(565,213,cs),
(537,78,o),
(432,-10,o),
(298,-10,cs),
(165,-10,o),
(97,79,o),
(126,215,cs),
(154,350,o),
(254,436,o),
(383,436,cs),
(456,436,o),
(502,385,o),
(516,347,c),
(519,347,l),
(517,366,o),
(500,419,o),
(462,491,cs),
(416,581,ls),
(412,589,o),
(405,591,o),
(395,587,cs),
(253,526,ls),
(235,518,o),
(228,524,o),
(232,542,cs),
(234,551,o),
(239,557,o),
(248,561,c)
);
},
{
closed = 1;
nodes = (
(409,40,o),
(488,109,o),
(511,216,cs),
(533,318,o),
(478,390,o),
(383,390,cs),
(282,390,o),
(203,322,o),
(181,215,cs),
(158,108,o),
(208,40,o),
(309,40,cs)
);
}
);
width = 600;
}
);
unicode = 240;
},
{
color = (153, 254, 255, 255);
glyphname = dcaron;
layers = (
{
layerId = "E6FBA6FA-5C25-4A6C-B37B-1AAF22FBF472";
shapes = (
{
closed = 1;
nodes = (
(337,47,o),
(322,34,qs),
(272,-10,o),
(216,-10,qs),
(131,-10,o),
(48,131,o),
(78,275,qs),
(109,419,o),
(236,560,o),
(321,560,qs),
(392,560,o),
(429,505,qs),
(435,498,o),
(437,492,qs),
(439,485,o),
(447,486,o),
(452,506,cs),
(485,665,ls),
(496,715,o),
(526,740,o),
(576,740,cs),
(626,740,o),
(646,715,o),
(635,665,cs),
(507,63,ls),
(497,14,o),
(468,-10,o),
(419,-10,cs),
(370,-10,o),
(352,13,o),
(362,62,cs),
(363,64,ls),
(364,69,o),
(360,69,o),
(356,65,cs)
);
},
{
closed = 1;
nodes = (
(319,140,o),
(386,199,o),
(394,235,qs),
(411,315,ls),
(421,361,o),
(378,420,o),
(335,420,qs),
(299,420,o),
(245,354,o),
(228,275,qs),
(212,197,o),
(240,140,o),
(276,140,qs)
);
},
{
closed = 1;
nodes = (
(633,550,o),
(619,569,o),
(630,607,cs),
(648,669,ls),
(660,710,o),
(686,730,o),
(727,730,cs),
(768,730,o),
(782,710,o),
(768,669,cs),
(748,607,ls),
(736,569,o),
(711,550,o),
(672,550,cs)
);
}
);
width = 600;
},
{
layerId = "044B5795-75D4-4E5A-ADC6-7EB8037CE6F5";
shapes = (
{
closed = 1;
nodes = (
(370,45,o),
(344,27,qs),
(291,-10,o),
(236,-10,qs),
(163,-10,o),
(94,125,o),
(125,275,qs),
(157,425,o),
(284,560,o),
(357,560,qs),
(424,560,o),
(449,523,qs),
(464,500,o),
(475,476,qs),
(477,473,o),
(479,473,o),
(479,476,cs),
(526,695,ls),
(532,725,o),
(550,740,o),
(580,740,cs),
(610,740,o),
(622,725,o),
(616,695,cs),
(475,35,ls),
(469,5,o),
(451,-10,o),
(421,-10,cs),
(391,-10,o),
(379,5,o),
(385,35,cs),
(394,74,ls),
(394,76,o),
(391,77,o),
(390,74,cs)
);
},
{
closed = 1;
nodes = (
(316,73,o),
(413,163,o),
(422,205,qs),
(445,315,ls),
(459,381,o),
(405,475,o),
(366,475,qs),
(321,475,o),
(241,393,o),
(215,275,qs),
(191,158,o),
(237,73,o),
(274,73,qs)
);
},
{
closed = 1;
nodes = (
(645,550,o),
(635,562,o),
(643,587,cs),
(673,688,ls),
(681,716,o),
(699,730,o),
(727,730,cs),
(755,730,o),
(764,716,o),
(754,688,cs),
(720,587,ls),
(711,562,o),
(695,550,o),
(670,550,cs)
);
}
);
width = 600;
},
{
layerId = "50AD700C-E391-419B-B293-150AAD617642";
shapes = (
{
closed = 1;
nodes = (
(395,51,o),
(368,31,qs),
(311,-10,o),
(255,-10,qs),
(182,-10,o),
(112,129,o),
(143,275,qs),
(174,420,o),
(303,560,o),
(376,560,qs),
(442,560,o),
(471,519,qs),
(488,497,o),
(496,474,qs),
(497,471,o),
(500,471,o),
(501,475,cs),
(552,715,ls),
(556,732,o),
(565,740,o),
(582,740,cs),
(599,740,o),
(606,732,o),
(602,715,cs),
(453,15,ls),
(450,-2,o),
(440,-10,o),
(423,-10,cs),
(406,-10,o),
(400,-2,o),
(403,15,cs),
(416,75,ls),
(417,79,o),
(414,80,o),
(411,76,cs)
);
},
{
closed = 1;
nodes = (
(317,38,o),
(428,131,o),
(441,194,qs),
(475,355,ls),
(487,409,o),
(429,512,o),
(376,512,qs),
(319,512,o),
(221,404,o),
(193,275,qs),
(166,145,o),
(218,38,o),
(275,38,qs)
);
},
{
closed = 1;
nodes = (
(654,550,o),
(649,557,o),
(654,571,cs),
(701,704,ls),
(706,721,o),
(719,730,o),
(736,730,cs),
(753,730,o),
(758,721,o),
(752,704,cs),
(697,571,ls),
(691,557,o),
(682,550,o),
(668,550,cs)
);
}
);
width = 600;
}
);
unicode = 271;
},
{
color = (153, 254, 255, 255);
glyphname = dcroat;
layers = (
{
anchors = (
{
name = t.uni0308;
position = "{559, 700}";
}
);
layerId = "E6FBA6FA-5C25-4A6C-B37B-1AAF22FBF472";
shapes = (
{
closed = 1;
nodes = (
(378,46,o),
(362,34,qs),
(302,-10,o),
(236,-10,qs),
(156,-10,o),
(66,121,o),
(94,255,qs),
(121,379,o),
(270,510,o),
(350,510,qs),
(424,510,o),
(456,475,qs),
(462,468,o),
(468,464,qs),
(473,460,o),
(482,461,o),
(484,469,cs),
(525,665,ls),
(536,715,o),
(566,740,o),
(616,740,cs),
(666,740,o),
(686,715,o),
(675,665,cs),
(547,63,ls),
(537,14,o),
(508,-10,o),
(459,-10,cs),
(410,-10,o),
(392,13,o),
(402,62,cs),
(403,64,ls),
(404,69,o),
(400,69,o),
(396,65,cs)
);
},
{
closed = 1;
nodes = (
(359,140,o),
(426,199,o),
(434,235,qs),
(440,265,ls),
(450,311,o),
(412,370,o),
(365,370,qs),
(324,370,o),
(258,319,o),
(244,255,qs),
(231,192,o),
(275,140,o),
(316,140,qs)
);
},
{
closed = 1;
nodes = (
(413,555,ls),
(376,555,o),
(362,573,o),
(370,610,cs),
(378,647,o),
(399,665,o),
(436,665,cs),
(696,665,ls),
(733,665,o),
(748,647,o),
(740,610,cs),
(732,573,o),
(710,555,o),
(673,555,cs)
);
}
);
width = 600;
},
{
anchors = (
{
name = _m.uni0308;
position = "{524, 488}";
},
{
name = _t.uni0308;
position = "{524, 488}";
},
{
name = t.uni0308;
position = "{569, 703}";
}
);
layerId = "044B5795-75D4-4E5A-ADC6-7EB8037CE6F5";
shapes = (
{
closed = 1;
nodes = (
(410,45,o),
(384,27,qs),
(331,-10,o),
(266,-10,qs),
(183,-10,o),
(106,135,o),
(131,255,qs),
(157,375,o),
(293,510,o),
(376,510,qs),
(451,510,o),
(479,473,qs),
(495,451,o),
(505,426,qs),
(506,423,o),
(508,423,o),
(509,426,cs),
(566,695,ls),
(572,725,o),
(590,740,o),
(620,740,cs),
(650,740,o),
(662,725,o),
(656,695,cs),
(515,35,ls),
(509,5,o),
(491,-10,o),
(461,-10,cs),
(431,-10,o),
(419,5,o),
(425,35,cs),
(434,74,ls),
(434,76,o),
(431,77,o),
(430,74,cs)
);
},
{
closed = 1;
nodes = (
(356,73,o),
(453,163,o),
(462,205,qs),
(474,265,ls),
(488,331,o),
(432,425,o),
(385,425,qs),
(330,425,o),
(240,343,o),
(221,255,qs),
(203,168,o),
(257,73,o),
(304,73,qs)
);
},
{
closed = 1;
nodes = (
(419,572,ls),
(394,572,o),
(384,585,o),
(390,610,cs),
(395,635,o),
(410,647,o),
(435,647,cs),
(690,647,ls),
(715,647,o),
(725,635,o),
(720,610,cs),
(714,585,o),
(699,572,o),
(674,572,cs)
);
}
);
width = 600;
},
{
anchors = (
{
name = t.uni0308;
position = "{586, 687}";
}
);
layerId = "50AD700C-E391-419B-B293-150AAD617642";
shapes = (
{
closed = 1;
nodes = (
(435,51,o),
(408,31,qs),
(351,-10,o),
(285,-10,qs),
(202,-10,o),
(122,129,o),
(149,255,qs),
(174,370,o),
(312,510,o),
(395,510,qs),
(471,510,o),
(501,469,qs),
(517,447,o),
(525,424,qs),
(526,421,o),
(529,421,o),
(530,425,cs),
(592,715,ls),
(596,732,o),
(605,740,o),
(622,740,cs),
(639,740,o),
(646,732,o),
(642,715,cs),
(493,15,ls),
(490,-2,o),
(480,-10,o),
(463,-10,cs),
(446,-10,o),
(440,-2,o),
(443,15,cs),
(456,75,ls),
(457,79,o),
(454,80,o),
(451,76,cs)
);
},
{
closed = 1;
nodes = (
(357,38,o),
(468,131,o),
(481,194,qs),
(505,305,ls),
(516,359,o),
(458,462,o),
(395,462,qs),
(328,462,o),
(220,354,o),
(199,255,qs),
(176,145,o),
(238,38,o),
(305,38,qs)
);
},
{
closed = 1;
nodes = (
(436,588,ls),
(422,588,o),
(417,596,o),
(420,610,cs),
(423,624,o),
(431,631,o),
(445,631,cs),
(693,631,ls),
(707,631,o),
(713,624,o),
(710,610,cs),
(707,596,o),
(698,588,o),
(684,588,cs)
);
}
);
width = 600;
}
);
unicode = 273;
},
{
color = (153, 254, 255, 255);
glyphname = e;
layers = (
{
layerId = "E6FBA6FA-5C25-4A6C-B37B-1AAF22FBF472";
shapes = (
{
closed = 1;
nodes = (
(529,169,o),
(495,165,o),
(478,155,cs),
(433,128,o),
(387,119,o),
(326,119,cs),
(283,119,o),
(245,149,o),
(245,194,cs),
(245,293,o),
(296,434,o),
(420,434,cs),
(466,434,o),
(482,414,o),
(486,384,cs),
(494,320,o),
(283,313,o),
(161,315,c),
(152,188,l),
(329,183,o),
(632,196,o),
(609,430,cs),
(600,520,o),
(540,560,o),
(439,560,cs),
(214,560,o),
(118,371,o),
(118,180,cs),
(118,67,o),
(195,-10,o),
(303,-10,cs),
(391,-10,o),
(479,-1,o),
(541,53,cs),
(559,69,o),
(567,108,o),
(545,143,cs)
);
}
);
width = 600;
},
{
layerId = "044B5795-75D4-4E5A-ADC6-7EB8037CE6F5";
shapes = (
{
closed = 1;
nodes = (
(534,137,o),
(515,138,o),
(483,117,cs),
(441,91,o),
(385,80,o),
(325,80,cs),
(268,80,o),
(220,118,o),
(221,184,cs),
(225,408,o),
(340,470,o),
(435,470,cs),
(493,470,o),
(525,449,o),
(527,409,cs),
(531,303,o),
(277,288,o),
(152,292,c),
(146,202,l),
(283,199,o),
(638,216,o),
(622,412,cs),
(614,504,o),
(564,560,o),
(446,560,cs),
(287,560,o),
(131,455,o),
(131,178,cs),
(131,66,o),
(204,-10,o),
(310,-10,cs),
(391,-10,o),
(471,1,o),
(532,44,cs),
(560,63,o),
(567,89,o),
(549,115,cs)
);
}
);
width = 600;
},
{
layerId = "50AD700C-E391-419B-B293-150AAD617642";
shapes = (
{
closed = 1;
nodes = (
(533,108,o),
(522,108,o),
(506,94,cs),
(455,49,o),
(392,40,o),
(316,40,cs),
(250,40,o),
(196,90,o),
(196,163,cs),
(196,409,o),
(320,509,o),
(440,509,cs),
(493,509,o),
(544,492,o),
(546,437,cs),
(551,294,o),
(277,270,o),
(159,272,c),
(154,219,l),
(274,217,o),
(601,245,o),
(596,430,cs),
(595,520,o),
(534,560,o),
(445,560,cs),
(294,560,o),
(145,438,o),
(146,167,cs),
(145,62,o),
(218,-10,o),
(310,-10,cs),
(398,-10,o),
(473,2,o),
(532,53,cs),
(547,66,o),
(550,81,o),
(541,95,cs)
);
}
);
width = 600;
}
);
unicode = 101;
},
{
color = (153, 254, 255, 255);
glyphname = schwa;
layers = (
{
layerId = "E6FBA6FA-5C25-4A6C-B37B-1AAF22FBF472";
shapes = (
{
closed = 1;
nodes = (
(221,381,o),
(255,385,o),
(272,395,cs),
(317,422,o),
(363,431,o),
(424,431,cs),
(467,431,o),
(505,401,o),
(505,356,cs),
(505,257,o),
(454,116,o),
(330,116,cs),
(284,116,o),
(268,136,o),
(264,166,cs),
(256,230,o),
(467,237,o),
(589,235,c),
(598,362,l),
(421,367,o),
(118,354,o),
(141,120,cs),
(150,30,o),
(210,-10,o),
(311,-10,cs),
(536,-10,o),
(632,179,o),
(632,370,cs),
(632,483,o),
(555,560,o),
(447,560,cs),
(359,560,o),
(271,551,o),
(209,497,cs),
(191,481,o),
(183,442,o),
(205,407,cs)
);
}
);
width = 600;
},
{
layerId = "044B5795-75D4-4E5A-ADC6-7EB8037CE6F5";
shapes = (
{
closed = 1;
nodes = (
(235,413,o),
(254,412,o),
(286,433,cs),
(328,459,o),
(384,470,o),
(444,470,cs),
(501,470,o),
(549,432,o),
(548,366,cs),
(544,142,o),
(429,80,o),
(334,80,cs),
(276,80,o),
(244,101,o),
(242,141,cs),
(238,247,o),
(492,262,o),
(617,258,c),
(623,348,l),
(486,351,o),
(131,334,o),
(147,138,cs),
(155,46,o),
(205,-10,o),
(323,-10,cs),
(482,-10,o),
(638,95,o),
(638,372,cs),
(638,484,o),
(565,560,o),
(459,560,cs),
(378,560,o),
(298,549,o),
(237,506,cs),
(209,487,o),
(202,461,o),
(220,435,cs)
);
}
);
width = 600;
},
{
layerId = "50AD700C-E391-419B-B293-150AAD617642";
shapes = (
{
closed = 1;
nodes = (
(213,442,o),
(224,442,o),
(240,456,cs),
(291,501,o),
(354,510,o),
(430,510,cs),
(496,510,o),
(550,460,o),
(550,387,cs),
(550,141,o),
(426,41,o),
(306,41,cs),
(253,41,o),
(202,58,o),
(200,113,cs),
(195,256,o),
(469,280,o),
(587,278,c),
(592,331,l),
(472,333,o),
(146,305,o),
(150,120,cs),
(152,30,o),
(212,-10,o),
(301,-10,cs),
(452,-10,o),
(600,112,o),
(600,383,cs),
(600,488,o),
(528,560,o),
(436,560,cs),
(348,560,o),
(273,548,o),
(214,497,cs),
(199,484,o),
(196,469,o),
(205,455,cs)
);
}
);
width = 600;
}
);
unicode = 601;
},
{
color = (153, 254, 255, 255);
glyphname = f;
layers = (
{
layerId = "E6FBA6FA-5C25-4A6C-B37B-1AAF22FBF472";
shapes = (
{
closed = 1;
nodes = (
(605,475,ls),
(650,475,o),
(667,453,o),
(658,408,cs),
(648,363,o),
(621,340,o),
(576,340,cs),
(193,340,ls),
(148,340,o),
(131,363,o),
(141,408,cs),
(150,453,o),
(177,475,o),
(222,475,cs)
);
},
{
closed = 1;
nodes = (
(380,-10,ls),
(352,-143,o),
(205,-235,o),
(115,-235,qs),
(64,-235,ls),
(20,-235,o),
(3,-214,o),
(13,-170,cs),
(22,-126,o),
(47,-105,o),
(91,-105,cs),
(142,-105,ls),
(167,-105,o),
(218,-65,o),
(230,-10,qs),
(346,545,ls),
(363,627,o),
(500,730,o),
(590,730,qs),
(631,730,ls),
(675,730,o),
(692,709,o),
(682,665,cs),
(673,621,o),
(648,600,o),
(604,600,cs),
(563,600,ls),
(538,600,o),
(501,570,o),
(496,545,qs)
);
}
);
width = 600;
},
{
layerId = "044B5795-75D4-4E5A-ADC6-7EB8037CE6F5";
shapes = (
{
closed = 1;
nodes = (
(616,470,ls),
(643,470,o),
(656,452,o),
(650,425,cs),
(645,398,o),
(624,380,o),
(597,380,cs),
(190,380,ls),
(163,380,o),
(150,398,o),
(155,425,cs),
(161,452,o),
(182,470,o),
(209,470,cs)
);
},
{
closed = 1;
nodes = (
(331,-20,ls),
(306,-137,o),
(185,-210,o),
(108,-210,qs),
(63,-210,ls),
(36,-210,o),
(21,-192,o),
(26,-165,cs),
(32,-138,o),
(55,-120,o),
(82,-120,cs),
(127,-120,ls),
(163,-120,o),
(229,-75,o),
(241,-20,qs),
(366,570,ls),
(381,640,o),
(497,730,o),
(574,730,qs),
(639,730,ls),
(666,730,o),
(681,712,o),
(676,685,cs),
(670,658,o),
(647,640,o),
(620,640,cs),
(555,640,ls),
(519,640,o),
(462,596,o),
(456,570,qs)
);
}
);
width = 600;
},
{
layerId = "50AD700C-E391-419B-B293-150AAD617642";
shapes = (
{
closed = 1;
nodes = (
(622,469,ls),
(637,469,o),
(645,460,o),
(642,445,cs),
(639,430,o),
(626,419,o),
(611,419,cs),
(188,419,ls),
(173,419,o),
(166,430,o),
(169,445,cs),
(172,460,o),
(184,469,o),
(199,469,cs)
);
},
{
closed = 1;
nodes = (
(311,-20,ls),
(293,-107,o),
(186,-185,o),
(125,-185,qs),
(66,-185,ls),
(51,-185,o),
(44,-175,o),
(47,-160,cs),
(50,-145,o),
(61,-135,o),
(76,-135,cs),
(135,-135,ls),
(173,-135,o),
(250,-72,o),
(261,-20,qs),
(391,595,ls),
(403,653,o),
(499,730,o),
(560,730,qs),
(649,730,ls),
(664,730,o),
(671,720,o),
(668,705,cs),
(665,690,o),
(654,680,o),
(639,680,cs),
(550,680,ls),
(512,680,o),
(448,627,o),
(441,595,qs)
);
}
);
width = 600;
}
);
unicode = 102;
},
{
color = (153, 254, 255, 255);
glyphname = g;
layers = (
{
layerId = "E6FBA6FA-5C25-4A6C-B37B-1AAF22FBF472";
shapes = (
{
closed = 1;
nodes = (
(494,487,ls),
(504,537,o),
(531,560,o),
(579,560,cs),
(628,560,o),
(648,537,o),
(638,487,cs),
(546,56,ls),
(507,-126,o),
(420,-270,o),
(217,-270,cs),
(138,-270,o),
(73,-241,o),
(33,-181,cs),
(23,-167,o),
(20,-148,o),
(23,-130,cs),
(31,-93,o),
(74,-53,o),
(116,-53,cs),
(129,-53,o),
(142,-57,o),
(151,-67,cs),
(177,-98,o),
(212,-135,o),
(262,-135,cs),
(347,-135,o),
(375,-44,o),
(389,24,cs),
(395,52,l),
(361,10,o),
(291,0,o),
(249,0,cs),
(84,0,o),
(70,143,o),
(99,277,cs),
(126,404,o),
(199,560,o),
(358,560,cs),
(454,560,o),
(491,503,o),
(493,484,c)
);
},
{
closed = 1;
nodes = (
(292,425,o),
(263,343,o),
(249,277,cs),
(234,209,o),
(232,135,o),
(313,135,cs),
(376,135,o),
(424,187,o),
(436,245,cs),
(451,315,ls),
(462,369,o),
(429,425,o),
(369,425,cs)
);
}
);
width = 600;
},
{
layerId = "044B5795-75D4-4E5A-ADC6-7EB8037CE6F5";
shapes = (
{
closed = 1;
nodes = (
(525,503,ls),
(532,536,o),
(544,560,o),
(582,560,cs),
(612,560,o),
(624,545,o),
(617,515,cs),
(501,-33,ls),
(476,-152,o),
(360,-240,o),
(249,-240,cs),
(146,-240,o),
(100,-198,o),
(73,-152,cs),
(65,-140,o),
(62,-132,o),
(64,-120,cs),
(69,-98,o),
(93,-64,o),
(123,-64,cs),
(138,-64,o),
(146,-71,o),
(152,-80,cs),
(171,-106,o),
(215,-150,o),
(265,-150,cs),
(319,-150,o),
(394,-111,o),
(408,-47,cs),
(436,85,l),
(394,33,o),
(332,0,o),
(263,0,cs),
(112,0,o),
(108,148,o),
(136,276,cs),
(163,404,o),
(231,560,o),
(387,560,cs),
(457,560,o),
(508,529,o),
(519,473,c)
);
},
{
closed = 1;
nodes = (
(283,477,o),
(243,357,o),
(225,274,cs),
(209,197,o),
(199,90,o),
(299,90,cs),
(385,90,o),
(455,175,o),
(470,246,cs),
(491,345,ls),
(505,408,o),
(455,477,o),
(381,477,cs)
);
}
);
width = 600;
},
{
layerId = "50AD700C-E391-419B-B293-150AAD617642";
shapes = (
{
closed = 1;
nodes = (
(554,535,ls),
(557,552,o),
(566,560,o),
(584,560,cs),
(601,560,o),
(607,552,o),
(604,535,cs),
(476,-64,ls),
(454,-167,o),
(344,-220,o),
(258,-220,cs),
(162,-220,o),
(120,-189,o),
(92,-153,cs),
(85,-144,o),
(83,-137,o),
(86,-124,cs),
(89,-107,o),
(101,-95,o),
(116,-95,cs),
(128,-95,o),
(133,-101,o),
(138,-108,cs),
(150,-123,o),
(200,-170,o),
(262,-170,cs),
(320,-170,o),
(411,-136,o),
(426,-68,cs),
(458,85,l),
(421,34,o),
(344,0,o),
(288,0,cs),
(133,0,o),
(127,151,o),
(153,275,cs),
(180,400,o),
(252,560,o),
(400,560,cs),
(467,560,o),
(528,527,o),
(540,469,c)
);
},
{
closed = 1;
nodes = (
(275,512,o),
(224,372,o),
(203,275,cs),
(183,180,o),
(177,50,o),
(302,50,cs),
(379,50,o),
(468,130,o),
(484,205,cs),
(516,356,ls),
(532,435,o),
(483,512,o),
(394,512,cs)
);
}
);
width = 600;
}
);
unicode = 103;
},
{
color = (153, 254, 255, 255);
glyphname = h;
layers = (
{
layerId = "E6FBA6FA-5C25-4A6C-B37B-1AAF22FBF472";
shapes = (
{
closed = 1;
nodes = (
(217.379,665,ls),
(228.009,715,o),
(255.324,740,o),
(305.324,740,cs),
(355.324,740,o),
(373.009,715,o),
(362.379,665,cs),
(323.686,483,l),
(333.087,499,o),
(371.056,560,o),
(466.056,560,cs),
(585.056,560,o),
(625.709,469,o),
(601.473,355,cs),
(539.819,65,ls),
(529.189,15,o),
(498.874,-10,o),
(448.874,-10,cs),
(398.874,-10,o),
(379.189,15,o),
(389.819,65,cs),
(446.158,330,ls),
(455.938,376,o),
(450.355,425,o),
(405.355,425,cs),
(356.355,425,o),
(304.237,368,o),
(291.906,310,cs),
(239.819,65,ls),
(229.189,15,o),
(198.874,-10,o),
(148.874,-10,cs),
(98.874,-10,o),
(79.189,15,o),
(89.819,65,cs)
);
}
);
width = 600;
},
{
layerId = "044B5795-75D4-4E5A-ADC6-7EB8037CE6F5";
shapes = (
{
closed = 1;
nodes = (
(239.757,695,ls),
(246.135,725,o),
(264.324,740,o),
(294.324,740,cs),
(324.324,740,o),
(336.135,725,o),
(329.757,695,cs),
(283.623,478,l),
(322.741,535,o),
(386.056,560,o),
(449.056,560,cs),
(563.056,560,o),
(612.898,484,o),
(588.662,370,cs),
(517.441,35,ls),
(511.063,5,o),
(492.874,-10,o),
(462.874,-10,cs),
(432.874,-10,o),
(421.063,5,o),
(427.441,35,cs),
(493.134,344,ls),
(507.804,413,o),
(485.922,470,o),
(409.922,470,cs),
(328.922,470,o),
(267.89,404,o),
(252.158,330,cs),
(189.441,35,ls),
(183.063,5,o),
(164.874,-10,o),
(134.874,-10,cs),
(104.874,-10,o),
(93.063,5,o),
(99.441,35,cs)
);
}
);
width = 600;
},
{
layerId = "50AD700C-E391-419B-B293-150AAD617642";
shapes = (
{
closed = 1;
nodes = (
(262,715,ls),
(266,732,o),
(275,740,o),
(292,740,cs),
(309,740,o),
(316,732,o),
(312,715,cs),
(263,483,l),
(312,533,o),
(364,560,o),
(441,560,cs),
(549,560,o),
(593,476,o),
(570,367,cs),
(495,15,ls),
(492,-2,o),
(482,-10,o),
(465,-10,cs),
(448,-10,o),
(442,-2,o),
(445,15,cs),
(517,355,ls),
(535,438,o),
(509,510,o),
(418,510,cs),
(324,510,o),
(252,432,o),
(233,345,cs),
(163,15,ls),
(160,-2,o),
(150,-10,o),
(133,-10,cs),
(116,-10,o),
(110,-2,o),
(113,15,cs)
);
}
);
width = 600;
}
);
unicode = 104;
},
{
color = (153, 254, 255, 255);
glyphname = idotless;
layers = (
{
layerId = "E6FBA6FA-5C25-4A6C-B37B-1AAF22FBF472";
shapes = (
{
closed = 1;
nodes = (
(403,194,ls),
(391,155,o),
(402,124,o),
(429,124,cs),
(456,124,o),
(475,141,o),
(504,172,cs),
(532,202,o),
(558,202,o),
(586,178,cs),
(616,152,o),
(613,127,o),
(591,97,cs),
(534,20,o),
(459,-9,o),
(374,-9,cs),
(264,-9,o),
(214,66,o),
(248,170,cs),
(304,339,ls),
(316,376,o),
(302,390,o),
(263,378,cs),
(221,365,ls),
(174,351,o),
(160,387,o),
(169,430,cs),
(179,477,o),
(207,488,o),
(254,500,cs),
(375,530,ls),
(455,550,o),
(493,490,o),
(469,410,cs)
);
}
);
width = 600;
},
{
layerId = "044B5795-75D4-4E5A-ADC6-7EB8037CE6F5";
shapes = (
{
closed = 1;
nodes = (
(388,224,ls),
(358,125,o),
(365,80,o),
(409,80,cs),
(446,80,o),
(484,103,o),
(513,134,cs),
(537,158,o),
(558,155,o),
(574,141,cs),
(590,127,o),
(592,101,o),
(571,79,cs),
(516,24,o),
(464,-10,o),
(391,-10,cs),
(291,-10,o),
(254,59,o),
(284,161,cs),
(353,390,ls),
(359,411,o),
(345,417,o),
(321,410,cs),
(232,383,ls),
(206,375,o),
(182,398,o),
(188,445,cs),
(191,472,o),
(212,482,o),
(241,490,cs),
(393,530,ls),
(448,545,o),
(472,504,o),
(456,450,cs)
);
}
);
width = 600;
},
{
layerId = "50AD700C-E391-419B-B293-150AAD617642";
shapes = (
{
closed = 1;
nodes = (
(358,196,ls),
(323,73,o),
(349,40,o),
(398,40,cs),
(433,40,o),
(475,71,o),
(513,112,cs),
(524,124,o),
(539,124,o),
(548,118,cs),
(558,111,o),
(561,92,o),
(550,81,cs),
(494,23,o),
(453,-10,o),
(380,-10,cs),
(298,-10,o),
(272,59,o),
(299,155,cs),
(382,450,ls),
(387,470,o),
(378,476,o),
(358,470,cs),
(226,430,ls),
(210,425,o),
(204,450,o),
(207,465,cs),
(210,480,o),
(221,486,o),
(237,490,cs),
(389,530,ls),
(429,541,o),
(447,510,o),
(436,470,cs)
);
}
);
width = 600;
}
);
unicode = 305;
},
{
color = (153, 254, 255, 255);
glyphname = ij;
layers = (
{
layerId = "E6FBA6FA-5C25-4A6C-B37B-1AAF22FBF472";
shapes = (
{
closed = 1;
nodes = (
(114,-180,ls),
(69,-180,o),
(51,-158,o),
(61,-113,cs),
(71,-68,o),
(97,-45,o),
(142,-45,cs),
(270,-45,ls),
(308,-45,o),
(366,5,o),
(375,45,qs),
(466,475,ls),
(477,525,o),
(507,550,o),
(557,550,cs),
(607,550,o),
(627,525,o),
(616,475,cs),
(524,40,ls),
(502,-62,o),
(357,-180,o),
(253,-180,qs)
);
},
{
closed = 1;
nodes = (
(186,475,ls),
(197,525,o),
(227,550,o),
(277,550,cs),
(327,550,o),
(347,525,o),
(336,475,cs),
(265,140,ls),
(254,90,o),
(224,65,o),
(174,65,cs),
(124,65,o),
(104,90,o),
(115,140,cs)
);
},
{
closed = 1;
nodes = (
(254,637,o),
(214,679,o),
(222,715,qs),
(230,751,o),
(288,793,o),
(329,793,qs),
(370,793,o),
(410,751,o),
(402,715,qs),
(394,679,o),
(336,637,o),
(295,637,qs)
);
},
{
closed = 1;
nodes = (
(534,637,o),
(494,679,o),
(502,715,qs),
(510,751,o),
(568,793,o),
(609,793,qs),
(650,793,o),
(690,751,o),
(682,715,qs),
(674,679,o),
(616,637,o),
(575,637,qs)
);
}
);
width = 600;
},
{
layerId = "044B5795-75D4-4E5A-ADC6-7EB8037CE6F5";
shapes = (
{
closed = 1;
nodes = (
(111,-180,ls),
(84,-180,o),
(73,-166,o),
(78,-139,cs),
(84,-112,o),
(101,-98,o),
(128,-98,cs),
(253,-98,ls),
(315,-98,o),
(399,-30,o),
(412,31,qs),
(512,505,ls),
(519,535,o),
(537,550,o),
(567,550,cs),
(597,550,o),
(609,535,o),
(602,505,cs),
(502,31,ls),
(481,-66,o),
(337,-180,o),
(236,-180,qs)
);
},
{
closed = 1;
nodes = (
(215,505,ls),
(222,535,o),
(240,550,o),
(270,550,cs),
(300,550,o),
(312,535,o),
(305,505,cs),
(208,45,ls),
(201,15,o),
(183,0,o),
(153,0,cs),
(123,0,o),
(111,15,o),
(118,45,cs)
);
},
{
closed = 1;
nodes = (
(256,649,o),
(225,683,o),
(231,712,qs),
(238,742,o),
(283,777,o),
(316,777,qs),
(349,777,o),
(380,742,o),
(373,712,qs),
(367,683,o),
(322,649,o),
(289,649,qs)
);
},
{
closed = 1;
nodes = (
(554,649,o),
(523,683,o),
(529,712,qs),
(536,742,o),
(581,777,o),
(614,777,qs),
(647,777,o),
(678,742,o),
(671,712,qs),
(665,683,o),
(620,649,o),
(587,649,qs)
);
}
);
width = 600;
},
{
layerId = "50AD700C-E391-419B-B293-150AAD617642";
shapes = (
{
closed = 1;
nodes = (
(112,-180,ls),
(97,-180,o),
(90,-173,o),
(93,-158,cs),
(97,-143,o),
(106,-135,o),
(121,-135,cs),
(252,-135,ls),
(323,-135,o),
(412,-60,o),
(427,10,qs),
(537,525,ls),
(540,542,o),
(550,550,o),
(567,550,cs),
(584,550,o),
(590,542,o),
(587,525,cs),
(477,10,ls),
(458,-79,o),
(335,-180,o),
(243,-180,qs)
);
},
{
closed = 1;
nodes = (
(239,525,ls),
(242,542,o),
(252,550,o),
(269,550,cs),
(286,550,o),
(292,542,o),
(289,525,cs),
(182,25,ls),
(179,8,o),
(169,0,o),
(152,0,cs),
(135,0,o),
(129,8,o),
(132,25,cs)
);
},
{
closed = 1;
nodes = (
(265,655,o),
(240,685,o),
(245,710,qs),
(250,735,o),
(289,765,o),
(315,765,qs),
(341,765,o),
(366,735,o),
(361,710,qs),
(356,685,o),
(317,655,o),
(291,655,qs)
);
},
{
closed = 1;
nodes = (
(561,655,o),
(536,685,o),
(541,710,qs),
(546,735,o),
(585,765,o),
(611,765,qs),
(637,765,o),
(662,735,o),
(657,710,qs),
(652,685,o),
(613,655,o),
(587,655,qs)
);
}
);
width = 600;
}
);
unicode = 307;
},
{
color = (153, 254, 255, 255);
glyphname = ij_acute;
layers = (
{
anchors = (
{
name = m.uni0308;
position = "{662, 785}";
}
);
layerId = "E6FBA6FA-5C25-4A6C-B37B-1AAF22FBF472";
shapes = (
{
closed = 1;
nodes = (
(71,-68,o),
(97,-45,o),
(142,-45,cs),
(270,-45,ls),
(308,-45,o),
(366,5,o),
(375,45,qs),
(466,475,ls),
(477,525,o),
(507,550,o),
(557,550,cs),
(607,550,o),
(627,525,o),
(616,475,cs),
(524,40,ls),
(502,-62,o),
(357,-180,o),
(253,-180,qs),
(114,-180,ls),
(69,-180,o),
(51,-158,o),
(61,-113,cs)
);
},
{
closed = 1;
nodes = (
(124,65,o),
(104,90,o),
(115,140,cs),
(186,475,ls),
(197,525,o),
(227,550,o),
(277,550,cs),
(327,550,o),
(347,525,o),
(336,475,cs),
(265,140,ls),
(254,90,o),
(224,65,o),
(174,65,cs)
);
},
{
closed = 1;
nodes = (
(531,645,o),
(525,671,o),
(576,724,cs),
(595,745,ls),
(626,778,o),
(656,785,o),
(695,785,cs),
(762,785,o),
(768,759,o),
(714,708,cs),
(688,683,ls),
(662,657,o),
(631,645,o),
(598,645,cs)
);
},
{
closed = 1;
nodes = (
(247,645,o),
(241,671,o),
(292,724,cs),
(311,745,ls),
(342,778,o),
(372,785,o),
(411,785,cs),
(478,785,o),
(484,759,o),
(430,708,cs),
(404,683,ls),
(378,657,o),
(347,645,o),
(314,645,cs)
);
}
);
width = 600;
},
{
anchors = (
{
name = m.uni0308;
position = "{662, 785}";
}
);
layerId = "044B5795-75D4-4E5A-ADC6-7EB8037CE6F5";
shapes = (
{
closed = 1;
nodes = (
(84,-112,o),
(101,-98,o),
(128,-98,cs),
(253,-98,ls),
(315,-98,o),
(399,-30,o),
(412,31,qs),
(512,505,ls),
(519,535,o),
(537,550,o),
(567,550,cs),
(597,550,o),
(609,535,o),
(602,505,cs),
(502,31,ls),
(481,-66,o),
(337,-180,o),
(236,-180,qs),
(111,-180,ls),
(84,-180,o),
(73,-166,o),
(78,-139,cs)
);
},
{
closed = 1;
nodes = (
(123,0,o),
(111,15,o),
(118,45,cs),
(215,505,ls),
(222,535,o),
(240,550,o),
(270,550,cs),
(300,550,o),
(312,535,o),
(305,505,cs),
(208,45,ls),
(201,15,o),
(183,0,o),
(153,0,cs)
);
},
{
closed = 1;
nodes = (
(554,645,o),
(549,661,o),
(582,694,cs),
(644,759,ls),
(661,776,o),
(680,785,o),
(702,785,cs),
(745,785,o),
(750,768,o),
(716,734,cs),
(650,669,ls),
(634,653,o),
(616,645,o),
(595,645,cs)
);
},
{
closed = 1;
nodes = (
(265,645,o),
(260,661,o),
(293,694,cs),
(355,759,ls),
(372,776,o),
(391,785,o),
(413,785,cs),
(456,785,o),
(461,768,o),
(427,734,cs),
(361,669,ls),
(345,653,o),
(327,645,o),
(306,645,cs)
);
}
);
width = 600;
},
{
anchors = (
{
name = m.uni0308;
position = "{666, 785}";
}
);
layerId = "50AD700C-E391-419B-B293-150AAD617642";
shapes = (
{
closed = 1;
nodes = (
(97,-143,o),
(106,-135,o),
(121,-135,cs),
(252,-135,ls),
(323,-135,o),
(412,-60,o),
(427,10,qs),
(537,525,ls),
(540,542,o),
(550,550,o),
(567,550,cs),
(584,550,o),
(590,542,o),
(587,525,cs),
(477,10,ls),
(458,-79,o),
(335,-180,o),
(243,-180,qs),
(112,-180,ls),
(97,-180,o),
(90,-173,o),
(93,-158,cs)
);
},
{
closed = 1;
nodes = (
(135,0,o),
(129,8,o),
(132,25,cs),
(239,525,ls),
(242,542,o),
(252,550,o),
(269,550,cs),
(286,550,o),
(292,542,o),
(289,525,cs),
(182,25,ls),
(179,8,o),
(169,0,o),
(152,0,cs)
);
},
{
closed = 1;
nodes = (
(568,645,o),
(566,654,o),
(584,673,cs),
(677,769,ls),
(688,780,o),
(700,785,o),
(713,785,cs),
(739,785,o),
(741,775,o),
(720,754,cs),
(624,659,ls),
(615,650,o),
(604,645,o),
(592,645,cs)
);
},
{
closed = 1;
nodes = (
(273,645,o),
(271,654,o),
(289,673,cs),
(382,769,ls),
(393,780,o),
(405,785,o),
(418,785,cs),
(444,785,o),
(446,775,o),
(425,754,cs),
(329,659,ls),
(320,650,o),
(309,645,o),
(297,645,cs)
);
}
);
width = 600;
}
);
},
{
color = (153, 254, 255, 255);
glyphname = jdotless;
layers = (
{
layerId = "E6FBA6FA-5C25-4A6C-B37B-1AAF22FBF472";
shapes = (
{
closed = 1;
nodes = (
(475,46,ls),
(431,-162,o),
(352,-270,o),
(168,-270,cs),
(125,-270,o),
(62,-264,o),
(4,-181,cs),
(-7,-167,o),
(-9,-145,o),
(-5,-129,cs),
(2,-95,o),
(44,-53,o),
(84,-53,cs),
(105,-53,o),
(118,-66,o),
(135,-87,cs),
(148,-106,o),
(165,-135,o),
(205,-135,cs),
(261,-135,o),
(296,-89,o),
(320,22,cs),
(387,339,ls),
(395,376,o),
(385,389,o),
(346,378,cs),
(274,357,ls),
(225,343,o),
(214,379,o),
(223,422,cs),
(233,469,o),
(261,480,o),
(308,492,cs),
(458,530,ls),
(538,550,o),
(569,490,o),
(552,410,cs)
);
}
);
width = 600;
},
{
layerId = "044B5795-75D4-4E5A-ADC6-7EB8037CE6F5";
shapes = (
{
closed = 1;
nodes = (
(433,-33,ls),
(407,-157,o),
(301,-240,o),
(189,-240,cs),
(111,-240,o),
(64,-199,o),
(30,-148,cs),
(23,-140,o),
(23,-129,o),
(24,-121,cs),
(29,-99,o),
(52,-68,o),
(84,-68,cs),
(101,-68,o),
(111,-81,o),
(118,-92,cs),
(139,-123,o),
(161,-150,o),
(206,-150,cs),
(264,-150,o),
(326,-113,o),
(340,-47,cs),
(433,390,ls),
(437,411,o),
(424,416,o),
(401,410,cs),
(292,383,ls),
(266,376,o),
(242,398,o),
(248,445,cs),
(251,472,o),
(273,483,o),
(301,490,cs),
(473,530,ls),
(527,543,o),
(547,504,o),
(536,450,cs)
);
}
);
width = 600;
},
{
layerId = "50AD700C-E391-419B-B293-150AAD617642";
shapes = (
{
closed = 1;
nodes = (
(403,-63,ls),
(383,-156,o),
(292,-220,o),
(192,-220,cs),
(104,-220,o),
(64,-170,o),
(44,-144,cs),
(40,-139,o),
(41,-131,o),
(42,-127,cs),
(45,-114,o),
(60,-94,o),
(72,-94,cs),
(79,-94,o),
(86,-101,o),
(93,-111,cs),
(123,-146,o),
(152,-170,o),
(201,-170,cs),
(270,-170,o),
(340,-123,o),
(352,-67,cs),
(462,450,ls),
(466,470,o),
(458,475,o),
(438,470,cs),
(286,430,ls),
(271,426,o),
(264,450,o),
(267,465,cs),
(270,480,o),
(281,486,o),
(297,490,cs),
(469,530,ls),
(509,539,o),
(524,510,o),
(516,470,cs)
);
}
);
width = 600;
}
);
unicode = 567;
},
{
color = (153, 254, 255, 255);
glyphname = k;
layers = (
{
layerId = "E6FBA6FA-5C25-4A6C-B37B-1AAF22FBF472";
shapes = (
{
closed = 1;
nodes = (
(239,65,ls),
(228,15,o),
(198,-10,o),
(148,-10,cs),
(98,-10,o),
(78,15,o),
(89,65,cs),
(216,665,ls),
(227,715,o),
(257,740,o),
(307,740,cs),
(357,740,o),
(377,715,o),
(366,665,cs),
(310,398,ls),
(307,387,o),
(315,382,o),
(325,391,cs),
(485,527,ls),
(511,549,o),
(539,560,o),
(570,560,cs),
(618,560,o),
(646,508,o),
(593,459,cs),
(470,346,ls),
(456,333,o),
(451,320,o),
(457,306,cs),
(551,86,ls),
(572,38,o),
(521,-10,o),
(476,-10,cs),
(438,-10,o),
(410,1,o),
(397,33,cs),
(328,198,ls),
(323,211,o),
(313,214,o),
(299,202,c),
(282,187,ls),
(262,169,o),
(259,161,o),
(256,144,cs)
);
}
);
width = 600;
},
{
layerId = "044B5795-75D4-4E5A-ADC6-7EB8037CE6F5";
shapes = (
{
closed = 1;
nodes = (
(197,35,ls),
(191,5,o),
(173,-10,o),
(143,-10,cs),
(113,-10,o),
(101,5,o),
(107,35,cs),
(248,695,ls),
(254,725,o),
(272,740,o),
(302,740,cs),
(332,740,o),
(344,725,o),
(338,695,cs),
(261,332,ls),
(259,323,o),
(264,318,o),
(273,326,cs),
(530,539,ls),
(547,553,o),
(564,560,o),
(583,560,cs),
(619,560,o),
(627,524,o),
(597,497,cs),
(433,356,ls),
(421,346,o),
(417,336,o),
(422,324,cs),
(528,46,ls),
(539,16,o),
(513,-10,o),
(489,-10,cs),
(467,-10,o),
(444,-10,o),
(434,18,cs),
(342,261,ls),
(338,273,o),
(332,274,o),
(319,263,cs),
(247,202,ls),
(234,191,o),
(228,180,o),
(226,167,cs)
);
}
);
width = 600;
},
{
layerId = "50AD700C-E391-419B-B293-150AAD617642";
shapes = (
{
closed = 1;
nodes = (
(173,15,ls),
(170,-2,o),
(160,-10,o),
(143,-10,cs),
(126,-10,o),
(120,-2,o),
(123,15,cs),
(272,715,ls),
(276,732,o),
(285,740,o),
(302,740,cs),
(319,740,o),
(326,732,o),
(322,715,cs),
(231,285,ls),
(229,279,o),
(234,276,o),
(240,281,cs),
(554,546,ls),
(565,555,o),
(576,560,o),
(589,560,cs),
(607,560,o),
(617,536,o),
(597,519,cs),
(405,355,ls),
(398,348,o),
(395,340,o),
(398,331,cs),
(515,23,ls),
(521,8,o),
(505,-10,o),
(489,-10,cs),
(476,-10,o),
(467,-4,o),
(463,7,c),
(356,297,ls),
(353,306,o),
(347,306,o),
(339,299,cs),
(223,200,ls),
(214,193,o),
(209,184,o),
(207,174,cs)
);
}
);
width = 600;
}
);
unicode = 107;
},
{
color = (153, 254, 255, 255);
glyphname = l;
layers = (
{
layerId = "E6FBA6FA-5C25-4A6C-B37B-1AAF22FBF472";
shapes = (
{
closed = 1;
nodes = (
(554,124,o),
(552,152,o),
(522,178,cs),
(494,202,o),
(470,200,o),
(440,172,cs),
(411,145,o),
(390,128,o),
(365,128,cs),
(347,128,o),
(329,158,o),
(333,197,cs),
(356,444,o),
(423,605,o),
(471,605,cs),
(494,605,o),
(492,562,o),
(486,538,cs),
(453,406,o),
(334,301,o),
(110,207,cs),
(69,190,o),
(53,162,o),
(61,119,cs),
(69,76,o),
(93,62,o),
(134,78,cs),
(427,197,o),
(577,331,o),
(624,536,cs),
(647,635,o),
(627,740,o),
(505,740,cs),
(317,740,o),
(235,532,o),
(194,170,cs),
(182,65,o),
(220,-10,o),
(330,-10,cs),
(405,-10,o),
(463,32,o),
(527,97,cs)
);
}
);
width = 600;
},
{
layerId = "044B5795-75D4-4E5A-ADC6-7EB8037CE6F5";
shapes = (
{
closed = 1;
nodes = (
(528,101,o),
(530,123,o),
(510,141,cs),
(491,157,o),
(473,153,o),
(449,129,cs),
(420,98,o),
(394,76,o),
(352,76,cs),
(308,76,o),
(294,115,o),
(302,203,cs),
(332,539,o),
(437,655,o),
(491,655,cs),
(519,655,o),
(532,626,o),
(524,585,cs),
(488,389,o),
(348,259,o),
(84,151,cs),
(53,138,o),
(41,119,o),
(47,91,cs),
(53,62,o),
(70,54,o),
(101,66,cs),
(414,191,o),
(565,336,o),
(615,589,cs),
(630,664,o),
(613,740,o),
(514,740,cs),
(376,740,o),
(258,601,o),
(212,161,cs),
(201,60,o),
(227,-10,o),
(327,-10,cs),
(400,-10,o),
(452,24,o),
(507,79,cs)
);
}
);
width = 600;
},
{
layerId = "50AD700C-E391-419B-B293-150AAD617642";
shapes = (
{
closed = 1;
nodes = (
(526,92,o),
(526,103,o),
(514,114,cs),
(502,124,o),
(492,123,o),
(481,111,cs),
(443,70,o),
(408,41,o),
(353,41,cs),
(294,41,o),
(268,93,o),
(283,196,cs),
(336,568,o),
(441,694,o),
(521,694,cs),
(563,694,o),
(573,650,o),
(565,608,cs),
(514,335,o),
(360,227,o),
(72,110,cs),
(55,103,o),
(49,92,o),
(52,74,cs),
(55,56,o),
(64,50,o),
(81,57,cs),
(400,185,o),
(569,324,o),
(616,616,cs),
(625,672,o),
(616,740,o),
(527,740,cs),
(378,740,o),
(281,572,o),
(229,155,cs),
(217,59,o),
(243,-10,o),
(335,-10,cs),
(408,-10,o),
(459,23,o),
(515,81,cs)
);
}
);
width = 600;
}
);
unicode = 108;
},
{
color = (153, 254, 255, 255);
glyphname = m;
layers = (
{
layerId = "E6FBA6FA-5C25-4A6C-B37B-1AAF22FBF472";
shapes = (
{
closed = 1;
nodes = (
(59,-10,o),
(35,10,o),
(44,54,cs),
(139,499,ls),
(148,541,o),
(179,560,o),
(216,560,cs),
(257,560,o),
(277,537,o),
(269,499,cs),
(267,490,l),
(297,536,o),
(328,560,o),
(374,560,cs),
(422,560,o),
(448,534,o),
(456,493,c),
(479,534,o),
(520,560,o),
(572,560,cs),
(639,560,o),
(676,515,o),
(661,440,cs),
(578,54,ls),
(569,10,o),
(538,-10,o),
(496,-10,cs),
(453,-10,o),
(429,11,o),
(439,55,cs),
(511,393,ls),
(515,412,o),
(509,436,o),
(488,436,cs),
(466,436,o),
(453,412,o),
(449,393,cs),
(375,49,ls),
(367,8,o),
(337,-10,o),
(298,-10,cs),
(259,-10,o),
(237,8,o),
(245,49,cs),
(319,393,ls),
(323,412,o),
(320,436,o),
(298,436,cs),
(276,436,o),
(261,412,o),
(257,393,cs),
(185,55,ls),
(175,11,o),
(145,-10,o),
(102,-10,cs)
);
}
);
width = 600;
},
{
layerId = "044B5795-75D4-4E5A-ADC6-7EB8037CE6F5";
shapes = (
{
closed = 1;
nodes = (
(76,0,o),
(58,13,o),
(64,42,cs),
(166,521,ls),
(171,548,o),
(194,560,o),
(219,560,cs),
(245,560,o),
(255,547,o),
(251,526,cs),
(244,495,l),
(270,534,o),
(305,560,o),
(349,560,cs),
(400,560,o),
(434,536,o),
(433,496,c),
(465,537,o),
(498,560,o),
(552,560,cs),
(630,560,o),
(651,497,o),
(634,418,cs),
(554,42,ls),
(548,13,o),
(525,0,o),
(498,0,cs),
(471,0,o),
(454,13,o),
(460,42,cs),
(538,409,ls),
(546,445,o),
(540,481,o),
(498,481,cs),
(457,481,o),
(437,446,o),
(429,410,cs),
(350,37,ls),
(344,11,o),
(324,0,o),
(300,0,cs),
(276,0,o),
(260,11,o),
(266,37,cs),
(345,409,ls),
(352,444,o),
(348,481,o),
(306,481,cs),
(264,481,o),
(244,447,o),
(236,410,cs),
(158,42,ls),
(152,13,o),
(130,0,o),
(103,0,cs)
);
}
);
width = 600;
},
{
layerId = "50AD700C-E391-419B-B293-150AAD617642";
shapes = (
{
closed = 1;
nodes = (
(82,-10,o),
(75,-1,o),
(78,15,cs),
(189,538,ls),
(193,553,o),
(201,560,o),
(215,560,cs),
(231,560,o),
(238,553,o),
(234,538,cs),
(225,496,l),
(250,537,o),
(292,560,o),
(337,560,cs),
(380,560,o),
(418,539,o),
(423,495,c),
(454,539,o),
(489,560,o),
(537,560,cs),
(610,560,o),
(631,499,o),
(617,431,cs),
(528,14,ls),
(525,-2,o),
(515,-10,o),
(499,-10,cs),
(483,-10,o),
(476,-2,o),
(479,14,cs),
(565,420,ls),
(575,468,o),
(564,513,o),
(510,513,cs),
(456,513,o),
(423,468,o),
(413,420,cs),
(327,14,ls),
(324,-2,o),
(314,-10,o),
(298,-10,cs),
(282,-10,o),
(275,-2,o),
(278,14,cs),
(364,420,ls),
(374,468,o),
(363,513,o),
(309,513,cs),
(255,513,o),
(223,468,o),
(213,420,cs),
(127,14,ls),
(124,-2,o),
(114,-10,o),
(98,-10,cs)
);
}
);
width = 600;
}
);
unicode = 109;
},
{
color = (153, 254, 255, 255);
glyphname = n;
layers = (
{
layerId = "E6FBA6FA-5C25-4A6C-B37B-1AAF22FBF472";
shapes = (
{
closed = 1;
nodes = (
(179.536,487,ls),
(189.954,536,o),
(219.056,560,o),
(264.056,560,cs),
(309.056,560,o),
(334.954,536,o),
(324.536,487,cs),
(323.686,483,l),
(333.087,499,o),
(371.056,560,o),
(466.056,560,cs),
(585.056,560,o),
(625.709,469,o),
(601.473,355,cs),
(539.819,65,ls),
(529.189,15,o),
(498.874,-10,o),
(448.874,-10,cs),
(398.874,-10,o),
(379.189,15,o),
(389.819,65,cs),
(446.158,330,ls),
(455.938,376,o),
(450.355,425,o),
(405.355,425,cs),
(356.355,425,o),
(304.237,368,o),
(291.906,310,cs),
(239.819,65,ls),
(229.189,15,o),
(198.874,-10,o),
(148.874,-10,cs),
(98.874,-10,o),
(79.189,15,o),
(89.819,65,cs)
);
}
);
width = 600;
},
{
layerId = "044B5795-75D4-4E5A-ADC6-7EB8037CE6F5";
shapes = (
{
closed = 1;
nodes = (
(201,515,ls),
(208,545,o),
(226,560,o),
(256,560,cs),
(286,560,o),
(298,545,o),
(291,515,cs),
(284,478,l),
(323,535,o),
(386,560,o),
(449,560,cs),
(563,560,o),
(613,484,o),
(589,370,cs),
(517,35,ls),
(511,5,o),
(493,-10,o),
(463,-10,cs),
(433,-10,o),
(421,5,o),
(427,35,cs),
(493,344,ls),
(508,413,o),
(486,470,o),
(410,470,cs),
(329,470,o),
(268,404,o),
(252,330,cs),
(189,35,ls),
(183,5,o),
(165,-10,o),
(135,-10,cs),
(105,-10,o),
(93,5,o),
(99,35,cs)
);
}
);
width = 600;
},
{
layerId = "50AD700C-E391-419B-B293-150AAD617642";
shapes = (
{
closed = 1;
nodes = (
(223.741,535,ls),
(227.355,552,o),
(237.056,560,o),
(254.056,560,cs),
(271.056,560,o),
(277.355,552,o),
(273.741,535,cs),
(262.686,483,l),
(302.316,533,o),
(360.056,560,o),
(441.056,560,cs),
(549.056,560,o),
(593.198,476,o),
(570.024,367,cs),
(495.189,15,ls),
(491.575,-2,o),
(481.874,-10,o),
(464.874,-10,cs),
(447.874,-10,o),
(441.575,-2,o),
(445.189,15,cs),
(517.473,355,ls),
(535.119,438,o),
(509.426,510,o),
(418.426,510,cs),
(324.426,510,o),
(251.843,432,o),
(233.347,345,cs),
(163.189,15,ls),
(159.575,-2,o),
(149.874,-10,o),
(132.874,-10,cs),
(115.874,-10,o),
(109.575,-2,o),
(113.189,15,cs)
);
}
);
width = 600;
}
);
unicode = 110;
},
{
color = (153, 254, 255, 255);
glyphname = o;
layers = (
{
layerId = "E6FBA6FA-5C25-4A6C-B37B-1AAF22FBF472";
shapes = (
{
closed = 1;
nodes = (
(133,-10,o),
(81,123,o),
(113,275,cs),
(146,427,o),
(254,560,o),
(419,560,cs),
(584,560,o),
(636,429,o),
(603,275,cs),
(571,123,o),
(463,-10,o),
(298,-10,cs)
);
},
{
closed = 1;
nodes = (
(389,115,o),
(435,190,o),
(453,275,cs),
(472,362,o),
(457,435,o),
(392,435,cs),
(327,435,o),
(282,360,o),
(263,275,cs),
(245,190,o),
(259,115,o),
(324,115,cs)
);
}
);
width = 600;
},
{
layerId = "044B5795-75D4-4E5A-ADC6-7EB8037CE6F5";
shapes = (
{
closed = 1;
nodes = (
(144,-10,o),
(98,110,o),
(134,276,cs),
(169,440,o),
(263,560,o),
(419,560,cs),
(576,560,o),
(619,440,o),
(584,276,cs),
(548,110,o),
(453,-10,o),
(298,-10,cs)
);
},
{
closed = 1;
nodes = (
(411,80,o),
(469,160,o),
(494,276,cs),
(518,390,o),
(495,470,o),
(400,470,cs),
(305,470,o),
(248,390,o),
(223,275,cs),
(199,160,o),
(223,80,o),
(317,80,cs)
);
}
);
width = 600;
},
{
layerId = "50AD700C-E391-419B-B293-150AAD617642";
shapes = (
{
closed = 1;
nodes = (
(164,-10,o),
(111,100,o),
(148,275,cs),
(186,450,o),
(285,560,o),
(421,560,cs),
(557,560,o),
(606,450,o),
(569,278,cs),
(531,100,o),
(431,-10,o),
(298,-10,cs)
);
},
{
closed = 1;
nodes = (
(410,40,o),
(488,130,o),
(519,278,cs),
(549,420,o),
(514,510,o),
(410,510,cs),
(307,510,o),
(229,420,o),
(198,275,cs),
(168,130,o),
(207,40,o),
(309,40,cs)
);
}
);
width = 600;
}
);
unicode = 111;
},
{
color = (153, 254, 255, 255);
glyphname = oe;
layers = (
{
layerId = "E6FBA6FA-5C25-4A6C-B37B-1AAF22FBF472";
shapes = (
{
closed = 1;
nodes = (
(639,350,ls),
(625,283,o),
(585,250,o),
(518,250,cs),
(435,250,ls),
(418,250,o),
(408,242,o),
(405,225,cs),
(387,140,ls),
(381,115,o),
(400,87,o),
(422,87,qs),
(444,87,o),
(459,101,qs),
(461,102,o),
(462,103,qs),
(488,130,o),
(503,140,o),
(518,140,cs),
(574,140,o),
(593,108,o),
(563,65,cs),
(550,47,o),
(532,32,qs),
(483,-10,o),
(418,-10,qs),
(380,-10,o),
(335,14,o),
(317,49,o),
(314,65,q),
(303,49,o),
(269,14,o),
(215,-10,o),
(178,-10,qs),
(113,-10,o),
(58,73,o),
(65,140,qs),
(74,229,o),
(93,321,o),
(122,410,cs),
(145,478,o),
(234,560,o),
(299,560,qs),
(336,560,o),
(380,536,o),
(399,501,o),
(403,485,q),
(413,501,o),
(446,536,o),
(501,560,o),
(539,560,qs),
(604,560,o),
(667,478,o),
(652,410,qs)
);
},
{
closed = 1;
nodes = (
(237,87,o),
(264,115,o),
(273,140,qs),
(302,229,o),
(321,321,o),
(330,410,cs),
(333,436,o),
(317,463,o),
(295,463,qs),
(273,463,o),
(245,435,o),
(237,410,qs),
(208,321,o),
(189,229,o),
(180,140,cs),
(177,115,o),
(193,87,o),
(215,87,qs)
);
},
{
closed = 1;
nodes = (
(432,355,ls),
(429,338,o),
(435,330,o),
(452,330,cs),
(470,330,ls),
(504,330,o),
(524,346,o),
(531,380,cs),
(537,410,ls),
(543,436,o),
(524,463,o),
(502,463,qs),
(480,463,o),
(449,435,o),
(444,410,qs)
);
}
);
width = 600;
},
{
layerId = "044B5795-75D4-4E5A-ADC6-7EB8037CE6F5";
shapes = (
{
closed = 1;
nodes = (
(635,330,ls),
(624,276,o),
(592,250,o),
(538,250,cs),
(416,250,ls),
(403,250,o),
(395,243,o),
(392,230,cs),
(375,150,ls),
(367,112,o),
(393,67,o),
(424,67,qs),
(451,67,o),
(473,83,qs),
(482,89,o),
(489,98,qs),
(505,118,o),
(516,125,o),
(532,125,cs),
(572,125,o),
(584,104,o),
(561,71,cs),
(544,46,o),
(520,27,qs),
(474,-10,o),
(418,-10,qs),
(378,-10,o),
(332,16,o),
(315,53,o),
(315,70,q),
(308,53,o),
(274,16,o),
(218,-10,o),
(178,-10,qs),
(111,-10,o),
(61,78,o),
(67,150,qs),
(75,233,o),
(93,318,o),
(120,400,cs),
(145,473,o),
(232,560,o),
(299,560,qs),
(339,560,o),
(385,534,o),
(403,497,o),
(402,480,q),
(410,497,o),
(443,534,o),
(499,560,o),
(539,560,qs),
(606,560,o),
(666,474,o),
(650,400,qs)
);
},
{
closed = 1;
nodes = (
(235,67,o),
(271,112,o),
(284,150,qs),
(312,233,o),
(330,318,o),
(337,400,cs),
(340,438,o),
(324,483,o),
(293,483,qs),
(261,483,o),
(218,438,o),
(205,400,qs),
(178,318,o),
(160,233,o),
(152,150,cs),
(149,112,o),
(172,67,o),
(204,67,qs)
);
},
{
closed = 1;
nodes = (
(416,343,ls),
(413,330,o),
(419,323,o),
(432,323,cs),
(509,323,ls),
(536,323,o),
(551,336,o),
(557,363,cs),
(565,400,ls),
(573,438,o),
(545,483,o),
(513,483,qs),
(482,483,o),
(436,438,o),
(428,400,qs)
);
}
);
width = 600;
},
{
layerId = "50AD700C-E391-419B-B293-150AAD617642";
shapes = (
{
closed = 1;
nodes = (
(633,320,ls),
(625,280,o),
(600,260,o),
(560,260,cs),
(397,260,ls),
(387,260,o),
(381,255,o),
(379,245,cs),
(357,140,ls),
(347,93,o),
(387,34,o),
(430,34,qs),
(472,35,o),
(504,60,qs),
(526,78,o),
(537,101,qs),
(547,118,o),
(557,125,o),
(573,125,cs),
(590,125,o),
(595,116,o),
(588,100,cs),
(570,56,o),
(533,27,qs),
(486,-10,o),
(424,-10,qs),
(386,-10,o),
(340,17,o),
(320,57,o),
(319,75,q),
(310,57,o),
(272,17,o),
(213,-10,o),
(172,-10,qs),
(108,-10,o),
(58,71,o),
(65,139,qs),
(73,228,o),
(93,319,o),
(122,408,cs),
(144,477,o),
(233,560,o),
(299,560,qs),
(338,560,o),
(383,532,o),
(404,493,o),
(404,474,q),
(414,493,o),
(451,532,o),
(507,560,o),
(542,560,qs),
(607,560,o),
(667,478,o),
(652,410,qs)
);
},
{
closed = 1;
nodes = (
(233,34,o),
(288,93,o),
(303,140,qs),
(332,229,o),
(351,321,o),
(360,410,cs),
(365,457,o),
(336,516,o),
(293,516,qs),
(250,516,o),
(188,457,o),
(173,408,qs),
(144,319,o),
(124,228,o),
(116,139,cs),
(111,92,o),
(147,34,o),
(190,34,qs)
);
},
{
closed = 1;
nodes = (
(396,325,ls),
(394,315,o),
(398,310,o),
(408,310,cs),
(551,310,ls),
(571,310,o),
(583,320,o),
(587,340,cs),
(602,410,ls),
(612,457,o),
(573,516,o),
(530,516,qs),
(488,516,o),
(424,457,o),
(414,410,qs)
);
}
);
width = 600;
}
);
unicode = 339;
},
{
color = (153, 254, 255, 255);
glyphname = p;
layers = (
{
layerId = "E6FBA6FA-5C25-4A6C-B37B-1AAF22FBF472";
shapes = (
{
closed = 1;
nodes = (
(304,560,o),
(321,536,o),
(311,487,cs),
(309,481,l),
(333,523,o),
(398,560,o),
(475,560,cs),
(635,560,o),
(641,402,o),
(615,276,cs),
(587,144,o),
(511,-10,o),
(346,-10,cs),
(277,-10,o),
(244,17,o),
(227,71,c),
(188,-115,ls),
(177,-165,o),
(147,-190,o),
(97,-190,cs),
(47,-190,o),
(27,-165,o),
(38,-115,cs),
(166,487,ls),
(176,536,o),
(204,560,o),
(254,560,cs)
);
},
{
closed = 1;
nodes = (
(345,410,o),
(290,369,o),
(279,315,cs),
(262,235,ls),
(250,177,o),
(278,130,o),
(340,130,cs),
(421,130,o),
(450,209,o),
(465,277,cs),
(479,343,o),
(481,410,o),
(405,410,cs)
);
}
);
width = 600;
},
{
layerId = "044B5795-75D4-4E5A-ADC6-7EB8037CE6F5";
shapes = (
{
closed = 1;
nodes = (
(284,560,o),
(296,545,o),
(289,514,cs),
(280,470,l),
(327,529,o),
(377,560,o),
(447,560,cs),
(606,560,o),
(606,398,o),
(579,274,cs),
(553,150,o),
(485,-10,o),
(323,-10,cs),
(244,-10,o),
(200,28,o),
(196,74,c),
(149,-145,ls),
(143,-175,o),
(125,-190,o),
(95,-190,cs),
(65,-190,o),
(53,-175,o),
(59,-145,cs),
(199,514,ls),
(206,545,o),
(224,560,o),
(254,560,cs)
);
},
{
closed = 1;
nodes = (
(347,475,o),
(267,407,o),
(253,344,cs),
(230,234,ls),
(216,170,o),
(247,75,o),
(319,75,cs),
(433,75,o),
(471,186,o),
(488,268,cs),
(506,353,o),
(517,475,o),
(420,475,cs)
);
}
);
width = 600;
},
{
layerId = "50AD700C-E391-419B-B293-150AAD617642";
shapes = (
{
closed = 1;
nodes = (
(271,560,o),
(277,552,o),
(274,535,cs),
(260,472,l),
(271,493,o),
(314,560,o),
(432,560,cs),
(580,560,o),
(589,395,o),
(563,275,cs),
(538,156,o),
(459,-10,o),
(308,-10,cs),
(245,-10,o),
(191,19,o),
(177,81,c),
(125,-165,ls),
(121,-182,o),
(112,-190,o),
(95,-190,cs),
(78,-190,o),
(71,-182,o),
(75,-165,cs),
(224,535,ls),
(227,552,o),
(237,560,o),
(254,560,cs)
);
},
{
closed = 1;
nodes = (
(333,512,o),
(252,431,o),
(236,356,cs),
(201,195,ls),
(187,125,o),
(237,38,o),
(311,38,cs),
(436,38,o),
(493,177,o),
(513,275,cs),
(534,373,o),
(537,512,o),
(421,512,cs)
);
}
);
width = 600;
}
);
unicode = 112;
},
{
color = (153, 254, 255, 255);
glyphname = q;
layers = (
{
layerId = "E6FBA6FA-5C25-4A6C-B37B-1AAF22FBF472";
shapes = (
{
closed = 1;
nodes = (
(634,560,o),
(652,536,o),
(642,487,cs),
(514,-115,ls),
(503,-165,o),
(473,-190,o),
(423,-190,cs),
(373,-190,o),
(353,-165,o),
(364,-115,cs),
(403,71,l),
(364,17,o),
(319,-10,o),
(250,-10,cs),
(85,-10,o),
(75,144,o),
(103,276,cs),
(129,402,o),
(203,560,o),
(363,560,cs),
(440,560,o),
(489,523,o),
(495,481,c),
(497,487,ls),
(507,536,o),
(534,560,o),
(584,560,cs)
);
},
{
closed = 1;
nodes = (
(293,410,o),
(267,343,o),
(253,277,cs),
(238,209,o),
(235,130,o),
(316,130,cs),
(378,130,o),
(426,177,o),
(438,235,cs),
(455,315,ls),
(466,369,o),
(429,410,o),
(369,410,cs)
);
}
);
width = 600;
},
{
layerId = "044B5795-75D4-4E5A-ADC6-7EB8037CE6F5";
shapes = (
{
closed = 1;
nodes = (
(614,560,o),
(626,545,o),
(619,514,cs),
(479,-145,ls),
(473,-175,o),
(455,-190,o),
(425,-190,cs),
(395,-190,o),
(383,-175,o),
(389,-145,cs),
(436,74,l),
(412,28,o),
(352,-10,o),
(273,-10,cs),
(111,-10,o),
(111,150,o),
(137,274,cs),
(164,398,o),
(232,560,o),
(391,560,cs),
(461,560,o),
(497,529,o),
(520,470,c),
(529,514,ls),
(536,545,o),
(554,560,o),
(584,560,cs)
);
},
{
closed = 1;
nodes = (
(285,475,o),
(244,353,o),
(226,268,cs),
(209,186,o),
(199,75,o),
(313,75,cs),
(385,75,o),
(456,170,o),
(470,234,cs),
(493,344,ls),
(507,407,o),
(455,475,o),
(382,475,cs)
);
}
);
width = 600;
},
{
layerId = "50AD700C-E391-419B-B293-150AAD617642";
shapes = (
{
closed = 1;
nodes = (
(601,560,o),
(607,552,o),
(604,535,cs),
(455,-165,ls),
(451,-182,o),
(442,-190,o),
(425,-190,cs),
(408,-190,o),
(401,-182,o),
(405,-165,cs),
(457,81,l),
(417,19,o),
(351,-10,o),
(288,-10,cs),
(137,-10,o),
(128,156,o),
(153,275,cs),
(179,395,o),
(258,560,o),
(406,560,cs),
(524,560,o),
(539,493,o),
(540,472,c),
(554,535,ls),
(557,552,o),
(567,560,o),
(584,560,cs)
);
},
{
closed = 1;
nodes = (
(281,512,o),
(224,373,o),
(203,275,cs),
(183,177,o),
(180,38,o),
(305,38,cs),
(379,38,o),
(467,125,o),
(481,195,cs),
(516,356,ls),
(532,431,o),
(485,512,o),
(397,512,cs)
);
}
);
width = 600;
}
);
unicode = 113;
},
{
color = (153, 254, 255, 255);
glyphname = r;
layers = (
{
layerId = "E6FBA6FA-5C25-4A6C-B37B-1AAF22FBF472";
shapes = (
{
closed = 1;
nodes = (
(109,-10,o),
(89,15,o),
(100,65,cs),
(190,487,ls),
(200,536,o),
(229,560,o),
(280,560,cs),
(335,560,o),
(344,532,o),
(334,483,cs),
(332,477,l),
(368,533,o),
(447,560,o),
(528,560,cs),
(626,560,o),
(674,479,o),
(654,387,cs),
(642,330,o),
(611,305,o),
(552,305,cs),
(503,305,o),
(494,323,o),
(499,362,cs),
(506,409,o),
(491,425,o),
(457,425,cs),
(391,425,o),
(314,367,o),
(299,298,cs),
(250,65,ls),
(239,15,o),
(209,-10,o),
(159,-10,cs)
);
}
);
width = 600;
},
{
layerId = "044B5795-75D4-4E5A-ADC6-7EB8037CE6F5";
shapes = (
{
closed = 1;
nodes = (
(125,-10,o),
(113,5,o),
(119,35,cs),
(221,515,ls),
(228,545,o),
(246,560,o),
(276,560,cs),
(308,560,o),
(318,545,o),
(311,515,cs),
(305,483,l),
(343,531,o),
(427,560,o),
(500,560,cs),
(615,560,o),
(643,486,o),
(621,380,cs),
(614,350,o),
(596,335,o),
(567,335,cs),
(533,335,o),
(529,355,o),
(534,390,cs),
(539,436,o),
(533,475,o),
(475,475,cs),
(398,475,o),
(288,405,o),
(272,330,cs),
(209,35,ls),
(203,5,o),
(185,-10,o),
(155,-10,cs)
);
}
);
width = 600;
},
{
layerId = "50AD700C-E391-419B-B293-150AAD617642";
shapes = (
{
closed = 1;
nodes = (
(138,-10,o),
(132,-2,o),
(135,15,cs),
(246,535,ls),
(249,552,o),
(259,560,o),
(276,560,cs),
(292,560,o),
(299,552,o),
(296,535,cs),
(283,473,l),
(325,525,o),
(412,560,o),
(487,560,cs),
(599,560,o),
(620,481,o),
(599,380,cs),
(595,363,o),
(585,355,o),
(568,355,cs),
(551,355,o),
(546,363,o),
(549,380,cs),
(560,453,o),
(550,510,o),
(470,510,cs),
(381,510,o),
(276,440,o),
(256,350,cs),
(185,15,ls),
(182,-2,o),
(172,-10,o),
(155,-10,cs)
);
}
);
width = 600;
}
);
unicode = 114;
},
{
color = (153, 254, 255, 255);
glyphname = s;
layers = (
{
layerId = "E6FBA6FA-5C25-4A6C-B37B-1AAF22FBF472";
shapes = (
{
closed = 1;
nodes = (
(216.874,-10,o),
(149.488,7,o),
(109.969,61,cs),
(96.008,80,o),
(89.835,98,o),
(94.725,121,cs),
(104.079,165,o),
(131.607,191,o),
(164.607,191,cs),
(177.607,191,o),
(193.969,188,o),
(204.63,177,cs),
(236.402,143,o),
(279.512,120,o),
(327.512,120,cs),
(376.512,120,o),
(422.362,124,o),
(426.827,145,cs),
(431.929,169,o),
(424.693,182,o),
(403.394,190,cs),
(240.575,252,ls),
(180.465,275,o),
(146.969,315,o),
(163.339,392,cs),
(190.552,520,o),
(288.056,560,o),
(424.056,560,cs),
(505.056,560,o),
(571.954,536,o),
(601.599,492,cs),
(608.473,482,o),
(615.284,467,o),
(610.394,444,cs),
(600.402,397,o),
(572.512,374,o),
(538.512,374,cs),
(519.512,374,o),
(501.788,380,o),
(495.489,388,cs),
(478.166,410,o),
(441.418,430,o),
(393.418,430,cs),
(342.418,430,o),
(318.229,415,o),
(314.402,397,cs),
(309.725,375,o),
(317.875,371,o),
(334.386,364,cs),
(473.268,307,ls),
(546.89,277,o),
(593.363,251,o),
(574.229,161,cs),
(544.465,21,o),
(430.874,-10,o),
(301.874,-10,cs)
);
}
);
width = 600;
},
{
layerId = "044B5795-75D4-4E5A-ADC6-7EB8037CE6F5";
shapes = (
{
closed = 1;
nodes = (
(218,-10,o),
(156,10,o),
(116,71,cs),
(106,86,o),
(104,106,o),
(107,124,cs),
(114,153,o),
(134,162,o),
(153,162,cs),
(167,162,o),
(177,157,o),
(190,144,cs),
(227,102,o),
(257,80,o),
(326,80,cs),
(378,80,o),
(449,88,o),
(461,146,cs),
(470,190,o),
(445,209,o),
(409,222,cs),
(270,270,ls),
(219,288,o),
(170,321,o),
(189,410,cs),
(212,517,o),
(315,560,o),
(417,560,cs),
(503,560,o),
(576,530,o),
(598,475,cs),
(604,460,o),
(604,448,o),
(602,439,cs),
(598,418,o),
(580,399,o),
(561,399,cs),
(542,399,o),
(525,403,o),
(514,417,cs),
(488,449,o),
(463,470,o),
(402,470,cs),
(343,470,o),
(288,451,o),
(279,410,cs),
(273,382,o),
(285,363,o),
(308,354,cs),
(446,303,ls),
(515,278,o),
(571,242,o),
(551,145,cs),
(527,31,o),
(415,-10,o),
(301,-10,cs)
);
}
);
width = 600;
},
{
layerId = "50AD700C-E391-419B-B293-150AAD617642";
shapes = (
{
closed = 1;
nodes = (
(221,-10,o),
(164,-2,o),
(133,52,cs),
(123,70,o),
(114,95,o),
(118,112,cs),
(121,125,o),
(131,135,o),
(147,135,cs),
(158,135,o),
(168,131,o),
(172,119,cs),
(192,61,o),
(231,40,o),
(298,40,cs),
(380,40,o),
(473,65,o),
(490,148,cs),
(500,195,o),
(479,230,o),
(437,241,cs),
(288,280,ls),
(227,296,o),
(180,330,o),
(198,413,cs),
(220,518,o),
(314,560,o),
(415,560,cs),
(505,560,o),
(565,528,o),
(588,472,cs),
(593,461,o),
(594,453,o),
(593,445,cs),
(590,431,o),
(578,425,o),
(565,425,cs),
(555,425,o),
(548,428,o),
(544,437,cs),
(513,496,o),
(474,510,o),
(401,510,cs),
(329,510,o),
(263,482,o),
(249,414,cs),
(238,363,o),
(267,337,o),
(312,325,cs),
(463,285,ls),
(520,270,o),
(558,227,o),
(542,152,cs),
(518,39,o),
(403,-10,o),
(298,-10,cs)
);
}
);
width = 600;
}
);
unicode = 115;
},
{
color = (153, 254, 255, 255);
glyphname = germandbls;
layers = (
{
layerId = "E6FBA6FA-5C25-4A6C-B37B-1AAF22FBF472";
shapes = (
{
closed = 1;
nodes = (
(226,75,ls),
(215,25,o),
(185,0,o),
(135,0,cs),
(85,0,o),
(65,25,o),
(76,75,cs),
(169,512,ls),
(198,647,o),
(316,740,o),
(461,740,cs),
(602,740,o),
(684,659,o),
(659,541,cs),
(642,462,o),
(582,398,o),
(511,386,c),
(587,368,o),
(627,295,o),
(608,207,cs),
(582,84,o),
(471,0,o),
(337,0,cs),
(336,0,ls),
(292,0,o),
(275,21,o),
(285,65,cs),
(294,109,o),
(320,130,o),
(364,130,cs),
(367,130,ls),
(398,130,o),
(448,170,o),
(460,228,cs),
(473,286,o),
(446,325,o),
(399,325,cs),
(395,325,ls),
(358,325,o),
(344,343,o),
(352,380,cs),
(360,417,o),
(381,435,o),
(418,435,cs),
(422,435,ls),
(466,435,o),
(496,472,o),
(508,525,cs),
(519,578,o),
(488,615,o),
(434,615,cs),
(378,615,o),
(332,573,o),
(319,512,cs)
);
}
);
width = 600;
},
{
layerId = "044B5795-75D4-4E5A-ADC6-7EB8037CE6F5";
shapes = (
{
closed = 1;
nodes = (
(192,45,ls),
(185,15,o),
(167,0,o),
(137,0,cs),
(107,0,o),
(95,15,o),
(102,45,cs),
(206,534,ls),
(231,656,o),
(335,740,o),
(460,740,cs),
(585,740,o),
(654,665,o),
(631,556,cs),
(614,477,o),
(552,408,o),
(479,391,c),
(559,376,o),
(600,300,o),
(579,204,cs),
(554,83,o),
(446,0,o),
(315,0,cs),
(298,0,ls),
(271,0,o),
(260,14,o),
(266,41,cs),
(271,68,o),
(288,82,o),
(315,82,cs),
(322,82,ls),
(404,82,o),
(473,135,o),
(489,212,cs),
(505,289,o),
(464,342,o),
(387,342,cs),
(370,342,ls),
(343,342,o),
(332,355,o),
(338,382,cs),
(344,409,o),
(360,422,o),
(387,422,cs),
(393,422,ls),
(464,422,o),
(523,470,o),
(538,541,cs),
(553,612,o),
(514,660,o),
(443,660,cs),
(371,660,o),
(311,609,o),
(296,534,cs)
);
}
);
width = 600;
},
{
layerId = "50AD700C-E391-419B-B293-150AAD617642";
shapes = (
{
closed = 1;
nodes = (
(165,25,ls),
(162,8,o),
(152,0,o),
(135,0,cs),
(118,0,o),
(112,8,o),
(115,25,cs),
(225,543,ls),
(250,660,o),
(347,740,o),
(464,740,cs),
(580,740,o),
(643,663,o),
(619,550,cs),
(601,468,o),
(538,398,o),
(463,383,c),
(543,367,o),
(584,292,o),
(564,198,cs),
(539,81,o),
(434,0,o),
(307,0,cs),
(288,0,ls),
(273,0,o),
(267,8,o),
(270,23,cs),
(273,38,o),
(283,45,o),
(298,45,cs),
(317,45,ls),
(414,45,o),
(493,109,o),
(513,202,cs),
(533,295,o),
(480,359,o),
(383,359,cs),
(364,359,ls),
(349,359,o),
(343,367,o),
(346,382,cs),
(349,397,o),
(359,404,o),
(374,404,cs),
(393,404,ls),
(479,404,o),
(550,463,o),
(569,550,cs),
(587,636,o),
(541,695,o),
(455,695,cs),
(368,695,o),
(295,633,o),
(275,543,cs)
);
}
);
width = 600;
}
);
unicode = 223;
},
{
color = (153, 254, 255, 255);
glyphname = longs;
layers = (
{
layerId = "E6FBA6FA-5C25-4A6C-B37B-1AAF22FBF472";
shapes = (
{
closed = 1;
nodes = (
(299,65,ls),
(288,15,o),
(258,-10,o),
(208,-10,cs),
(158,-10,o),
(138,15,o),
(149,65,cs),
(247,525,ls),
(273,650,o),
(374,730,o),
(505,730,cs),
(625,730,ls),
(669,730,o),
(686,709,o),
(676,665,cs),
(667,621,o),
(642,600,o),
(598,600,cs),
(488,600,ls),
(443,600,o),
(406,570,o),
(397,525,cs)
);
}
);
width = 600;
},
{
layerId = "044B5795-75D4-4E5A-ADC6-7EB8037CE6F5";
shapes = (
{
closed = 1;
nodes = (
(262,35,ls),
(256,5,o),
(238,-10,o),
(208,-10,cs),
(178,-10,o),
(166,5,o),
(172,35,cs),
(286,571,ls),
(307,666,o),
(388,730,o),
(489,730,cs),
(625,730,ls),
(652,730,o),
(662,717,o),
(657,690,cs),
(651,663,o),
(635,650,o),
(608,650,cs),
(472,650,ls),
(425,650,o),
(386,618,o),
(376,570,cs)
);
}
);
width = 600;
},
{
layerId = "50AD700C-E391-419B-B293-150AAD617642";
shapes = (
{
closed = 1;
nodes = (
(233,15,ls),
(230,-2,o),
(220,-10,o),
(203,-10,cs),
(186,-10,o),
(180,-2,o),
(183,15,cs),
(306,595,ls),
(324,678,o),
(388,730,o),
(471,730,cs),
(627,730,ls),
(642,730,o),
(649,723,o),
(645,708,cs),
(642,693,o),
(634,685,o),
(619,685,cs),
(461,685,ls),
(411,685,o),
(368,648,o),
(356,595,cs)
);
}
);
width = 600;
}
);
unicode = 383;
},
{
color = (153, 254, 255, 255);
glyphname = t;
layers = (
{
layerId = "E6FBA6FA-5C25-4A6C-B37B-1AAF22FBF472";
shapes = (
{
closed = 1;
nodes = (
(585,530,ls),
(630,530,o),
(648,508,o),
(638,463,cs),
(629,418,o),
(601,395,o),
(556,395,cs),
(187,395,ls),
(143,395,o),
(126,417,o),
(135,461,cs),
(145,507,o),
(173,530,o),
(219,530,cs)
);
},
{
closed = 1;
nodes = (
(319,630,ls),
(331,680,o),
(360,705,o),
(410,705,cs),
(460,705,o),
(481,680,o),
(469,630,cs),
(366,194,ls),
(357,154,o),
(365,124,o),
(392,124,cs),
(419,124,o),
(438,141,o),
(467,172,cs),
(495,202,o),
(521,202,o),
(549,178,cs),
(579,152,o),
(576,127,o),
(554,97,cs),
(497,20,o),
(422,-9,o),
(337,-9,cs),
(227,-9,o),
(186,63,o),
(211,170,cs)
);
}
);
width = 600;
},
{
layerId = "044B5795-75D4-4E5A-ADC6-7EB8037CE6F5";
shapes = (
{
closed = 1;
nodes = (
(592,530,ls),
(619,530,o),
(629,512,o),
(623,485,cs),
(617,458,o),
(600,440,o),
(573,440,cs),
(192,440,ls),
(165,440,o),
(154,458,o),
(160,485,cs),
(166,512,o),
(184,530,o),
(211,530,cs)
);
},
{
closed = 1;
nodes = (
(355,660,ls),
(362,690,o),
(380,705,o),
(410,705,cs),
(440,705,o),
(452,690,o),
(445,660,cs),
(343,224,ls),
(319,123,o),
(320,80,o),
(364,80,cs),
(401,80,o),
(439,103,o),
(468,134,cs),
(492,158,o),
(513,155,o),
(529,141,cs),
(545,127,o),
(547,101,o),
(526,79,cs),
(471,24,o),
(419,-10,o),
(346,-10,cs),
(246,-10,o),
(215,57,o),
(239,161,cs)
);
}
);
width = 600;
},
{
layerId = "50AD700C-E391-419B-B293-150AAD617642";
shapes = (
{
closed = 1;
nodes = (
(595,530,ls),
(610,530,o),
(616,520,o),
(612,505,cs),
(609,490,o),
(599,480,o),
(584,480,cs),
(197,480,ls),
(182,480,o),
(176,490,o),
(179,505,cs),
(183,520,o),
(193,530,o),
(208,530,cs)
);
},
{
closed = 1;
nodes = (
(380,680,l),
(383,697,o),
(393,705,o),
(410,705,cs),
(427,705,o),
(434,697,o),
(430,680,cs),
(318,196,ls),
(289,71,o),
(309,40,o),
(358,40,cs),
(393,40,o),
(435,71,o),
(473,112,cs),
(484,124,o),
(499,124,o),
(508,118,cs),
(518,111,o),
(521,92,o),
(510,81,cs),
(454,23,o),
(413,-10,o),
(340,-10,cs),
(258,-10,o),
(237,58,o),
(259,155,cs)
);
}
);
width = 600;
}
);
unicode = 116;
},
{
color = (153, 254, 255, 255);
glyphname = u;
layers = (
{
layerId = "E6FBA6FA-5C25-4A6C-B37B-1AAF22FBF472";
shapes = (
{
closed = 1;
nodes = (
(539.394,63,ls),
(528.976,14,o),
(499.874,-10,o),
(454.874,-10,cs),
(409.874,-10,o),
(383.976,14,o),
(394.394,63,cs),
(395.244,67,l),
(385.843,51,o),
(347.874,-10,o),
(252.874,-10,cs),
(133.874,-10,o),
(93.221,81,o),
(117.457,195,cs),
(179.111,485,ls),
(189.741,535,o),
(220.056,560,o),
(270.056,560,cs),
(320.056,560,o),
(339.741,535,o),
(329.111,485,cs),
(272.772,220,ls),
(262.992,174,o),
(268.575,125,o),
(313.575,125,cs),
(362.575,125,o),
(414.693,182,o),
(427.024,240,cs),
(479.111,485,ls),
(489.741,535,o),
(520.056,560,o),
(570.056,560,cs),
(620.056,560,o),
(639.741,535,o),
(629.111,485,cs)
);
}
);
width = 600;
},
{
layerId = "044B5795-75D4-4E5A-ADC6-7EB8037CE6F5";
shapes = (
{
closed = 1;
nodes = (
(517,35,ls),
(511,5,o),
(493,-10,o),
(463,-10,cs),
(433,-10,o),
(421,5,o),
(427,35,cs),
(435,72,l),
(396,15,o),
(333,-10,o),
(270,-10,cs),
(156,-10,o),
(106,66,o),
(130,180,cs),
(201,515,ls),
(208,545,o),
(226,560,o),
(256,560,cs),
(286,560,o),
(298,545,o),
(291,515,cs),
(226,206,ls),
(211,137,o),
(233,80,o),
(309,80,cs),
(390,80,o),
(451,146,o),
(467,220,cs),
(529,515,ls),
(536,545,o),
(554,560,o),
(584,560,cs),
(614,560,o),
(626,545,o),
(619,515,cs)
);
}
);
width = 600;
},
{
layerId = "50AD700C-E391-419B-B293-150AAD617642";
shapes = (
{
closed = 1;
nodes = (
(495,15,ls),
(492,-2,o),
(482,-10,o),
(465,-10,cs),
(448,-10,o),
(442,-2,o),
(445,15,cs),
(456,67,l),
(417,17,o),
(359,-10,o),
(278,-10,cs),
(170,-10,o),
(126,74,o),
(149,183,cs),
(224,535,ls),
(227,552,o),
(237,560,o),
(254,560,cs),
(271,560,o),
(277,552,o),
(274,535,cs),
(201,195,ls),
(184,112,o),
(210,40,o),
(301,40,cs),
(395,40,o),
(467,118,o),
(486,205,cs),
(556,535,ls),
(559,552,o),
(569,560,o),
(586,560,cs),
(603,560,o),
(609,552,o),
(606,535,cs)
);
}
);
width = 600;
}
);
unicode = 117;
},
{
color = (153, 254, 255, 255);
glyphname = v;
layers = (
{
layerId = "E6FBA6FA-5C25-4A6C-B37B-1AAF22FBF472";
shapes = (
{
closed = 1;
nodes = (
(158,482,ls),
(151,532,o),
(201,560,o),
(235,560,cs),
(271,560,o),
(292,540,o),
(296,508,cs),
(333,243,ls),
(336,220,o),
(350,215,o),
(371,233,cs),
(440,290,o),
(501,421,o),
(520,508,cs),
(527,542,o),
(547,560,o),
(593,560,cs),
(627,560,o),
(665,535,o),
(646,482,cs),
(589,314,o),
(529,201,o),
(407,62,cs),
(370,20,o),
(348,-10,o),
(298,-10,cs),
(248,-10,o),
(226,15,o),
(219,62,cs)
);
}
);
width = 600;
},
{
layerId = "044B5795-75D4-4E5A-ADC6-7EB8037CE6F5";
shapes = (
{
closed = 1;
nodes = (
(182,508,ls),
(179,534,o),
(202,560,o),
(233,560,cs),
(257,560,o),
(273,548,o),
(276,525,cs),
(324,185,ls),
(327,165,o),
(337,170,o),
(354,185,cs),
(448,267,o),
(514,413,o),
(548,525,cs),
(555,549,o),
(571,560,o),
(600,560,cs),
(631,560,o),
(644,535,o),
(634,508,cs),
(566,322,o),
(511,192,o),
(371,38,cs),
(346,11,o),
(332,-10,o),
(298,-10,cs),
(265,-10,o),
(249,6,o),
(245,38,cs)
);
}
);
width = 600;
},
{
layerId = "50AD700C-E391-419B-B293-150AAD617642";
shapes = (
{
closed = 1;
nodes = (
(201,531,ls),
(199,547,o),
(219,560,o),
(229,560,cs),
(242,560,o),
(254,554,o),
(255,541,cs),
(311,100,ls),
(314,83,o),
(318,85,o),
(331,100,cs),
(432,216,o),
(525,395,o),
(575,541,cs),
(580,554,o),
(591,560,o),
(604,560,cs),
(624,560,o),
(631,547,o),
(625,531,cs),
(546,334,o),
(472,185,o),
(342,19,cs),
(328,2,o),
(318,-10,o),
(298,-10,cs),
(278,-10,o),
(269,0,o),
(266,19,cs)
);
}
);
width = 600;
}
);
unicode = 118;
},
{
color = (153, 254, 255, 255);
glyphname = w;
layers = (
{
layerId = "E6FBA6FA-5C25-4A6C-B37B-1AAF22FBF472";
shapes = (
{
closed = 1;
nodes = (
(111,490,ls),
(114,537,o),
(142,560,o),
(189,560,cs),
(229,560,o),
(244,540,o),
(240,500,cs),
(215,225,ls),
(214,211,o),
(221,209,o),
(230,224,cs),
(314,375,ls),
(333,411,o),
(353,430,o),
(391,430,cs),
(429,430,o),
(441,411,o),
(446,375,cs),
(466,224,ls),
(467,209,o),
(472,210,o),
(481,225,cs),
(524,298,o),
(555,415,o),
(574,508,cs),
(581,543,o),
(606,560,o),
(641,560,cs),
(693,560,o),
(705,534,o),
(693,482,cs),
(664,346,o),
(611,187,o),
(541,71,cs),
(511,21,o),
(488,-10,o),
(434,-10,cs),
(380,-10,o),
(365,18,o),
(358,70,cs),
(345,171,ls),
(343,185,o),
(336,186,o),
(327,171,cs),
(273,73,ls),
(243,20,o),
(216,-10,o),
(160,-10,cs),
(104,-10,o),
(81,17,o),
(85,73,cs)
);
}
);
width = 600;
},
{
layerId = "044B5795-75D4-4E5A-ADC6-7EB8037CE6F5";
shapes = (
{
closed = 1;
nodes = (
(124,505,ls),
(126,542,o),
(148,560,o),
(185,560,cs),
(210,560,o),
(220,548,o),
(218,523,cs),
(198,145,ls),
(197,133,o),
(203,132,o),
(209,144,cs),
(325,383,ls),
(341,415,o),
(359,430,o),
(391,430,cs),
(423,430,o),
(435,415,o),
(437,383,cs),
(453,145,ls),
(453,134,o),
(456,134,o),
(464,146,cs),
(531,250,o),
(579,399,o),
(604,523,cs),
(610,548,o),
(628,560,o),
(653,560,cs),
(690,560,o),
(698,542,o),
(690,505,cs),
(657,355,o),
(598,180,o),
(515,50,cs),
(492,14,o),
(475,-10,o),
(434,-10,cs),
(393,-10,o),
(378,11,o),
(376,50,cs),
(362,261,ls),
(362,272,o),
(354,272,o),
(348,261,cs),
(246,51,ls),
(226,11,o),
(203,-10,o),
(162,-10,cs),
(121,-10,o),
(104,10,o),
(106,51,cs)
);
}
);
width = 600;
},
{
layerId = "50AD700C-E391-419B-B293-150AAD617642";
shapes = (
{
closed = 1;
nodes = (
(152,530,ls),
(153,550,o),
(164,560,o),
(185,560,cs),
(199,560,o),
(204,554,o),
(203,540,cs),
(181,55,ls),
(181,50,o),
(183,49,o),
(187,55,cs),
(347,399,ls),
(358,421,o),
(370,430,o),
(391,430,cs),
(412,430,o),
(422,421,o),
(423,399,cs),
(439,55,ls),
(439,50,o),
(442,50,o),
(445,55,cs),
(535,195,o),
(597,380,o),
(627,540,cs),
(630,554,o),
(639,560,o),
(653,560,cs),
(674,560,o),
(678,550,o),
(674,530,cs),
(640,364,o),
(574,173,o),
(481,27,cs),
(465,2,o),
(456,-10,o),
(431,-10,cs),
(406,-10,o),
(395,2,o),
(394,27,cs),
(377,345,ls),
(377,350,o),
(371,350,o),
(369,345,cs),
(218,27,ls),
(205,2,o),
(191,-10,o),
(166,-10,cs),
(141,-10,o),
(129,2,o),
(131,27,cs)
);
}
);
width = 600;
}
);
unicode = 119;
},
{
color = (153, 254, 255, 255);
glyphname = x;
layers = (
{
layerId = "E6FBA6FA-5C25-4A6C-B37B-1AAF22FBF472";
shapes = (
{
closed = 1;
nodes = (
(238,36,ls),
(212,5,o),
(181,-10,o),
(145,-10,cs),
(100,-10,o),
(60,21,o),
(114,84,cs),
(485,512,ls),
(512,543,o),
(542,560,o),
(579,560,cs),
(624,560,o),
(664,528,o),
(610,466,cs)
);
},
{
closed = 1;
nodes = (
(192,392,o),
(178,390,o),
(163,398,cs),
(126,417,o),
(117,449,o),
(142,481,cs),
(181,532,o),
(245,560,o),
(303,560,cs),
(365,560,o),
(420,528,o),
(428,457,cs),
(463,150,ls),
(466,128,o),
(475,120,o),
(486,120,cs),
(521,121,o),
(545,145,o),
(570,154,cs),
(583,159,o),
(596,160,o),
(611,152,cs),
(648,133,o),
(655,101,o),
(631,69,cs),
(590,16,o),
(525,-10,o),
(467,-10,cs),
(407,-10,o),
(354,25,o),
(346,93,cs),
(311,400,ls),
(309,417,o),
(303,428,o),
(286,428,cs),
(256,428,o),
(232,409,o),
(206,398,cs)
);
}
);
width = 600;
},
{
layerId = "044B5795-75D4-4E5A-ADC6-7EB8037CE6F5";
shapes = (
{
closed = 1;
nodes = (
(189,20,ls),
(172,1,o),
(153,-10,o),
(129,-10,cs),
(102,-10,o),
(75,11,o),
(109,49,cs),
(536,530,ls),
(553,550,o),
(573,560,o),
(597,560,cs),
(625,560,o),
(652,540,o),
(616,500,cs)
);
},
{
closed = 1;
nodes = (
(225,412,o),
(210,405,o),
(185,413,cs),
(163,420,o),
(154,435,o),
(161,455,cs),
(186,523,o),
(247,560,o),
(303,560,cs),
(364,560,o),
(400,527,o),
(407,457,cs),
(443,115,ls),
(445,90,o),
(460,80,o),
(478,80,cs),
(494,80,o),
(513,89,o),
(527,104,cs),
(548,127,o),
(563,130,o),
(584,117,cs),
(603,105,o),
(610,90,o),
(601,72,cs),
(576,20,o),
(519,-10,o),
(467,-10,cs),
(405,-10,o),
(368,22,o),
(361,93,cs),
(325,435,ls),
(322,462,o),
(307,474,o),
(289,474,cs),
(273,474,o),
(255,463,o),
(242,441,cs)
);
}
);
width = 600;
},
{
layerId = "50AD700C-E391-419B-B293-150AAD617642";
shapes = (
{
closed = 1;
nodes = (
(160,5,ls),
(151,-5,o),
(135,-10,o),
(122,-10,cs),
(106,-10,o),
(86,0,o),
(106,22,cs),
(563,543,ls),
(573,554,o),
(590,560,o),
(603,560,cs),
(620,560,o),
(639,550,o),
(619,528,cs)
);
},
{
closed = 1;
nodes = (
(225,457,o),
(214,454,o),
(202,458,cs),
(191,462,o),
(188,475,o),
(192,484,cs),
(212,530,o),
(259,558,o),
(303,560,cs),
(357,562,o),
(387,537,o),
(392,477,cs),
(428,75,ls),
(432,50,o),
(448,40,o),
(468,40,cs),
(493,40,o),
(524,58,o),
(536,81,cs),
(543,93,o),
(554,96,o),
(566,92,cs),
(577,88,o),
(580,75,o),
(576,66,cs),
(556,20,o),
(509,-8,o),
(465,-10,cs),
(411,-12,o),
(381,13,o),
(376,73,cs),
(340,475,ls),
(339,499,o),
(323,510,o),
(303,510,cs),
(278,510,o),
(246,494,o),
(232,469,cs)
);
}
);
width = 600;
}
);
unicode = 120;
},
{
color = (153, 254, 255, 255);
glyphname = y;
layers = (
{
layerId = "E6FBA6FA-5C25-4A6C-B37B-1AAF22FBF472";
shapes = (
{
closed = 1;
nodes = (
(549,63,ls),
(511,-119,o),
(422,-270,o),
(219,-270,cs),
(140,-270,o),
(75,-241,o),
(35,-181,cs),
(25,-167,o),
(22,-148,o),
(25,-130,cs),
(33,-93,o),
(76,-53,o),
(118,-53,cs),
(131,-53,o),
(144,-57,o),
(153,-67,cs),
(179,-98,o),
(214,-135,o),
(264,-135,cs),
(349,-135,o),
(390,-5,o),
(404,63,cs),
(405,67,l),
(396,51,o),
(358,-10,o),
(253,-10,cs),
(124,-10,o),
(83,81,o),
(107,195,cs),
(169,485,ls),
(180,535,o),
(210,560,o),
(260,560,cs),
(310,560,o),
(330,535,o),
(319,485,cs),
(263,220,ls),
(253,174,o),
(259,125,o),
(314,125,cs),
(373,125,o),
(425,182,o),
(437,240,cs),
(489,485,ls),
(500,535,o),
(530,560,o),
(580,560,cs),
(630,560,o),
(650,535,o),
(639,485,cs)
);
}
);
width = 600;
},
{
layerId = "044B5795-75D4-4E5A-ADC6-7EB8037CE6F5";
shapes = (
{
closed = 1;
nodes = (
(503,-33,ls),
(478,-152,o),
(362,-240,o),
(251,-240,cs),
(148,-240,o),
(102,-198,o),
(75,-152,cs),
(67,-140,o),
(64,-132,o),
(66,-120,cs),
(71,-98,o),
(95,-64,o),
(125,-64,cs),
(140,-64,o),
(148,-71,o),
(154,-80,cs),
(173,-106,o),
(217,-150,o),
(267,-150,cs),
(321,-150,o),
(396,-111,o),
(410,-47,cs),
(435,72,l),
(396,15,o),
(333,-10,o),
(270,-10,cs),
(156,-10,o),
(106,66,o),
(130,180,cs),
(201,515,ls),
(208,545,o),
(226,560,o),
(256,560,cs),
(286,560,o),
(298,545,o),
(291,515,cs),
(226,206,ls),
(211,137,o),
(233,80,o),
(309,80,cs),
(390,80,o),
(451,146,o),
(467,220,cs),
(529,515,ls),
(536,545,o),
(554,560,o),
(584,560,cs),
(614,560,o),
(626,545,o),
(619,515,cs)
);
}
);
width = 600;
},
{
layerId = "50AD700C-E391-419B-B293-150AAD617642";
shapes = (
{
closed = 1;
nodes = (
(478,-64,ls),
(456,-167,o),
(346,-220,o),
(260,-220,cs),
(164,-220,o),
(122,-189,o),
(94,-153,cs),
(87,-144,o),
(85,-137,o),
(88,-124,cs),
(91,-107,o),
(103,-95,o),
(118,-95,cs),
(130,-95,o),
(135,-101,o),
(140,-108,cs),
(152,-123,o),
(202,-170,o),
(264,-170,cs),
(322,-170,o),
(413,-136,o),
(428,-68,cs),
(456,67,l),
(417,17,o),
(353,-10,o),
(278,-10,cs),
(170,-10,o),
(126,74,o),
(149,183,cs),
(224,535,ls),
(227,552,o),
(237,560,o),
(254,560,cs),
(271,560,o),
(277,552,o),
(274,535,cs),
(201,195,ls),
(184,112,o),
(210,40,o),
(301,40,cs),
(395,40,o),
(467,118,o),
(486,205,cs),
(556,535,ls),
(559,552,o),
(569,560,o),
(586,560,cs),
(603,560,o),
(609,552,o),
(606,535,cs)
);
}
);
width = 600;
}
);
unicode = 121;
},
{
color = (153, 254, 255, 255);
glyphname = z;
layers = (
{
layerId = "B5C1BF20-9872-4D4C-86C3-1DD8ABDF9697";
name = "#instance";
shapes = (
{
closed = 1;
nodes = (
(134,0,ls),
(113,0,o),
(105,10,o),
(110,31,cs),
(112,41,o),
(117,51,o),
(125,59,cs),
(512,480,ls),
(517,485,o),
(520,490,o),
(521,494,cs),
(523,501,o),
(516,505,o),
(504,505,cs),
(242,505,ls),
(227,505,o),
(221,513,o),
(224,528,cs),
(227,543,o),
(236,550,o),
(251,550,cs),
(570,550,ls),
(591,550,o),
(599,540,o),
(594,519,cs),
(592,509,o),
(587,499,o),
(579,490,cs),
(191,69,ls),
(185,63,o),
(183,59,o),
(182,55,cs),
(180,48,o),
(187,45,o),
(199,45,cs),
(484,45,ls),
(499,45,o),
(505,38,o),
(502,23,cs),
(499,8,o),
(489,0,o),
(474,0,cs)
);
}
);
width = 600;
},
{
layerId = "E6FBA6FA-5C25-4A6C-B37B-1AAF22FBF472";
shapes = (
{
closed = 1;
nodes = (
(157,0,ls),
(99,0,o),
(76,29,o),
(88,84,cs),
(95,116,o),
(110,141,o),
(134,162,cs),
(381,376,ls),
(394,388,o),
(402,397,o),
(404,404,cs),
(406,414,o),
(395,420,o),
(371,420,cs),
(234,420,ls),
(190,420,o),
(174,441,o),
(183,485,cs),
(192,529,o),
(218,550,o),
(262,550,cs),
(549,550,ls),
(607,550,o),
(630,521,o),
(618,466,cs),
(611,434,o),
(596,409,o),
(571,388,cs),
(325,174,ls),
(311,162,o),
(304,153,o),
(302,146,cs),
(300,136,o),
(311,130,o),
(335,130,cs),
(493,130,ls),
(537,130,o),
(553,109,o),
(544,65,cs),
(534,21,o),
(509,0,o),
(465,0,cs)
);
}
);
width = 600;
},
{
layerId = "044B5795-75D4-4E5A-ADC6-7EB8037CE6F5";
shapes = (
{
closed = 1;
nodes = (
(150,0,ls),
(110,0,o),
(94,20,o),
(103,59,cs),
(107,80,o),
(117,97,o),
(133,113,cs),
(466,437,ls),
(475,445,o),
(479,451,o),
(480,456,cs),
(482,464,o),
(474,468,o),
(457,468,cs),
(238,468,ls),
(211,468,o),
(200,482,o),
(206,509,cs),
(212,536,o),
(229,550,o),
(256,550,cs),
(556,550,ls),
(596,550,o),
(612,530,o),
(603,491,cs),
(599,470,o),
(589,452,o),
(573,437,cs),
(235,113,ls),
(226,105,o),
(222,98,o),
(221,93,cs),
(219,86,o),
(226,82,o),
(242,82,cs),
(486,82,ls),
(513,82,o),
(524,68,o),
(519,41,cs),
(513,14,o),
(496,0,o),
(469,0,cs)
);
}
);
width = 600;
},
{
layerId = "50AD700C-E391-419B-B293-150AAD617642";
shapes = (
{
closed = 1;
nodes = (
(134,0,ls),
(113,0,o),
(105,10,o),
(110,31,cs),
(112,41,o),
(117,51,o),
(125,59,cs),
(512,480,ls),
(517,485,o),
(520,490,o),
(521,494,cs),
(523,501,o),
(516,505,o),
(504,505,cs),
(242,505,ls),
(227,505,o),
(221,513,o),
(224,528,cs),
(227,543,o),
(236,550,o),
(251,550,cs),
(570,550,ls),
(591,550,o),
(599,540,o),
(594,519,cs),
(592,509,o),
(587,499,o),
(579,490,cs),
(191,69,ls),
(185,63,o),
(183,59,o),
(182,55,cs),
(180,48,o),
(187,45,o),
(199,45,cs),
(484,45,ls),
(499,45,o),
(505,38,o),
(502,23,cs),
(499,8,o),
(489,0,o),
(474,0,cs)
);
}
);
width = 600;
}
);
unicode = 122;
},
{
color = (153, 254, 255, 255);
glyphname = ordfeminine;
layers = (
{
layerId = "E6FBA6FA-5C25-4A6C-B37B-1AAF22FBF472";
shapes = (
{
closed = 1;
nodes = (
(458,473,o),
(406,452,o),
(371,452,cs),
(280,452,o),
(284,526,o),
(295,576,cs),
(308,639,o),
(364,742,o),
(473,742,cs),
(497,742,o),
(511,740,o),
(523,724,c),
(535,740,o),
(547,742,o),
(560,742,cs),
(584,742,o),
(588,726,o),
(585,713,cs),
(581,695,o),
(576,684,o),
(573,673,cs),
(554,619,o),
(537,552,o),
(547,500,cs),
(548,493,o),
(548,484,o),
(547,476,cs),
(544,462,o),
(528,452,o),
(509,452,cs),
(491,452,o),
(482,458,o),
(479,467,cs),
(477,473,o),
(477,495,o),
(478,509,c)
);
},
{
closed = 1;
nodes = (
(421,527,o),
(438,543,o),
(452,566,cs),
(465,588,o),
(473,613,o),
(476,628,cs),
(481,648,o),
(480,668,o),
(454,668,cs),
(417,668,o),
(387,610,o),
(381,581,cs),
(377,562,o),
(371,527,o),
(397,527,cs)
);
}
);
width = 600;
},
{
layerId = "044B5795-75D4-4E5A-ADC6-7EB8037CE6F5";
shapes = (
{
closed = 1;
nodes = (
(463,470,o),
(422,446,o),
(372,446,cs),
(293,446,o),
(292,517,o),
(304,570,cs),
(318,637,o),
(384,745,o),
(478,745,cs),
(494,745,o),
(514,739,o),
(526,728,c),
(533,742,o),
(546,745,o),
(560,745,cs),
(580,745,o),
(588,732,o),
(584,715,cs),
(580,696,o),
(576,688,o),
(572,679,cs),
(557,633,o),
(530,535,o),
(543,496,cs),
(546,489,o),
(546,481,o),
(545,473,cs),
(540,453,o),
(523,446,o),
(507,446,cs),
(490,446,o),
(485,452,o),
(482,465,cs),
(480,476,o),
(480,496,o),
(480,504,c)
);
},
{
closed = 1;
nodes = (
(423,510,o),
(457,538,o),
(472,567,cs),
(483,586,o),
(491,607,o),
(495,628,cs),
(502,660,o),
(493,681,o),
(461,681,cs),
(419,681,o),
(378,616,o),
(369,574,cs),
(363,548,o),
(358,510,o),
(393,510,cs)
);
}
);
width = 600;
},
{
layerId = "50AD700C-E391-419B-B293-150AAD617642";
shapes = (
{
closed = 1;
nodes = (
(461,474,o),
(403,446,o),
(369,446,cs),
(293,446,o),
(299,518,o),
(310,568,cs),
(325,640,o),
(384,746,o),
(479,746,cs),
(495,746,o),
(517,742,o),
(528,728,c),
(533,736,o),
(541,746,o),
(556,746,cs),
(570,746,o),
(576,734,o),
(573,722,cs),
(571,712,o),
(567,702,o),
(563,694,cs),
(543,642,o),
(510,535,o),
(526,487,cs),
(529,480,o),
(531,476,o),
(529,468,cs),
(526,454,o),
(517,446,o),
(503,446,cs),
(491,446,o),
(485,454,o),
(482,462,cs),
(479,472,o),
(477,495,o),
(477,508,c)
);
},
{
closed = 1;
nodes = (
(417,491,o),
(464,540,o),
(481,574,cs),
(489,592,o),
(495,610,o),
(499,629,cs),
(508,669,o),
(504,701,o),
(465,701,cs),
(414,701,o),
(365,619,o),
(355,569,cs),
(348,536,o),
(340,491,o),
(385,491,cs)
);
}
);
width = 600;
}
);
unicode = 170;
},
{
color = (153, 254, 255, 255);
glyphname = ordmasculine;
layers = (
{
layerId = "E6FBA6FA-5C25-4A6C-B37B-1AAF22FBF472";
shapes = (
{
closed = 1;
nodes = (
(439,490,o),
(459,535,o),
(468,580,cs),
(478,625,o),
(477,670,o),
(442,670,cs),
(408,670,o),
(388,625,o),
(378,580,cs),
(369,535,o),
(369,490,o),
(404,490,cs)
);
},
{
closed = 1;
nodes = (
(295,420,o),
(277,500,o),
(294,580,cs),
(311,659,o),
(363,740,o),
(457,740,cs),
(553,740,o),
(571,660,o),
(554,580,cs),
(537,500,o),
(484,420,o),
(389,420,cs)
);
}
);
width = 600;
},
{
layerId = "044B5795-75D4-4E5A-ADC6-7EB8037CE6F5";
shapes = (
{
closed = 1;
nodes = (
(452,506,o),
(473,550,o),
(481,590,cs),
(490,630,o),
(489,675,o),
(444,675,cs),
(403,675,o),
(379,630,o),
(370,590,cs),
(362,550,o),
(367,506,o),
(408,506,cs)
);
},
{
closed = 1;
nodes = (
(303,440,o),
(291,520,o),
(306,590,cs),
(321,660,o),
(367,740,o),
(458,740,cs),
(554,740,o),
(561,660,o),
(546,590,cs),
(531,520,o),
(489,440,o),
(394,440,cs)
);
}
);
width = 600;
},
{
layerId = "50AD700C-E391-419B-B293-150AAD617642";
shapes = (
{
closed = 1;
nodes = (
(456,500,o),
(481,550,o),
(492,600,cs),
(503,652,o),
(498,700,o),
(449,700,cs),
(398,700,o),
(373,650,o),
(362,600,cs),
(352,550,o),
(356,500,o),
(406,500,cs)
);
},
{
closed = 1;
nodes = (
(313,460,o),
(304,536,o),
(318,600,cs),
(332,665,o),
(372,740,o),
(457,740,cs),
(542,740,o),
(552,667,o),
(538,600,cs),
(524,535,o),
(483,460,o),
(398,460,cs)
);
}
);
width = 600;
}
);
unicode = 186;
},
{
color = (153, 254, 255, 255);
glyphname = "Be-cy";
layers = (
{
layerId = "E6FBA6FA-5C25-4A6C-B37B-1AAF22FBF472";
shapes = (
{
closed = 1;
nodes = (
(166,0,ls),
(99,0,o),
(73,33,o),
(87,100,cs),
(200,630,ls),
(214,697,o),
(254,730,o),
(321,730,cs),
(615,730,ls),
(660,730,o),
(678,708,o),
(669,663,cs),
(659,618,o),
(631,595,o),
(586,595,cs),
(387,595,ls),
(353,595,o),
(334,578,o),
(327,545,cs),
(312,476,ls),
(309,459,o),
(315,451,o),
(332,451,cs),
(405,451,ls),
(481,451,o),
(581,396,o),
(623,296,o),
(608,228,qs),
(594,162,o),
(510,59,o),
(385,0,o),
(310,0,qs)
);
},
{
closed = 1;
nodes = (
(249,180,ls),
(242,147,o),
(256,130,o),
(289,130,cs),
(338,130,ls),
(384,130,o),
(449,184,o),
(458,228,qs),
(468,273,o),
(425,326,o),
(379,326,qs),
(305,326,ls),
(288,326,o),
(279,318,o),
(275,301,cs)
);
}
);
width = 600;
},
{
layerId = "044B5795-75D4-4E5A-ADC6-7EB8037CE6F5";
shapes = (
{
closed = 1;
nodes = (
(174,0,ls),
(120,0,o),
(100,26,o),
(111,80,cs),
(232,650,ls),
(244,704,o),
(275,730,o),
(329,730,cs),
(614,730,ls),
(641,730,o),
(652,716,o),
(646,689,cs),
(641,662,o),
(624,648,o),
(597,648,cs),
(362,648,ls),
(335,648,o),
(319,635,o),
(313,608,cs),
(280,452,ls),
(277,439,o),
(283,432,o),
(296,432,cs),
(397,432,ls),
(467,432,o),
(555,378,o),
(590,281,o),
(576,216,qs),
(562,151,o),
(486,54,o),
(375,0,o),
(305,0,qs)
);
},
{
closed = 1;
nodes = (
(210,122,ls),
(204,95,o),
(214,82,o),
(241,82,cs),
(322,82,ls),
(384,82,o),
(470,155,o),
(483,216,qs),
(496,278,o),
(441,350,o),
(379,350,qs),
(278,350,ls),
(265,350,o),
(257,343,o),
(254,330,cs)
);
}
);
width = 600;
},
{
layerId = "50AD700C-E391-419B-B293-150AAD617642";
shapes = (
{
closed = 1;
nodes = (
(170,0,ls),
(130,0,o),
(114,20,o),
(123,60,cs),
(252,670,ls),
(261,710,o),
(285,730,o),
(325,730,cs),
(618,730,ls),
(633,730,o),
(640,723,o),
(636,708,cs),
(633,693,o),
(624,685,o),
(609,685,cs),
(336,685,ls),
(316,685,o),
(303,675,o),
(299,655,cs),
(252,435,ls),
(250,425,o),
(254,420,o),
(264,420,cs),
(395,420,ls),
(458,420,o),
(541,367,o),
(574,273,o),
(561,210,qs),
(547,148,o),
(474,53,o),
(369,0,o),
(306,0,qs)
);
},
{
closed = 1;
nodes = (
(176,75,ls),
(172,55,o),
(180,45,o),
(200,45,cs),
(316,45,ls),
(387,45,o),
(495,137,o),
(511,210,qs),
(526,284,o),
(457,375,o),
(386,375,qs),
(255,375,ls),
(245,375,o),
(239,370,o),
(237,360,cs)
);
}
);
width = 600;
}
);
unicode = 1041;
},
{
color = (153, 254, 255, 255);
glyphname = "Ge-cy";
layers = (
{
layerId = "E6FBA6FA-5C25-4A6C-B37B-1AAF22FBF472";
shapes = (
{
closed = 1;
nodes = (
(138,-10,o),
(118,15,o),
(129,65,cs),
(249,630,ls),
(263,697,o),
(303,730,o),
(370,730,cs),
(647,730,ls),
(692,730,o),
(711,708,o),
(701,663,cs),
(691,618,o),
(664,595,o),
(619,595,cs),
(441,595,ls),
(408,595,o),
(388,579,o),
(381,545,cs),
(279,65,ls),
(268,15,o),
(238,-10,o),
(188,-10,cs)
);
}
);
width = 600;
},
{
anchors = (
{
name = m.uni0308;
position = "{475, 730}";
}
);
layerId = "044B5795-75D4-4E5A-ADC6-7EB8037CE6F5";
shapes = (
{
closed = 1;
nodes = (
(143,-10,o),
(131,5,o),
(137,35,cs),
(268,650,ls),
(280,704,o),
(311,730,o),
(365,730,cs),
(669,730,ls),
(696,730,o),
(707,716,o),
(701,689,cs),
(696,662,o),
(679,648,o),
(652,648,cs),
(398,648,ls),
(371,648,o),
(355,635,o),
(349,608,cs),
(227,35,ls),
(221,5,o),
(203,-10,o),
(173,-10,cs)
);
}
);
width = 600;
},
{
layerId = "50AD700C-E391-419B-B293-150AAD617642";
shapes = (
{
closed = 1;
nodes = (
(146,-10,o),
(140,-2,o),
(143,15,cs),
(282,670,ls),
(291,710,o),
(315,730,o),
(355,730,cs),
(677,730,ls),
(692,730,o),
(699,723,o),
(696,708,cs),
(692,693,o),
(683,685,o),
(668,685,cs),
(366,685,ls),
(346,685,o),
(334,675,o),
(329,655,cs),
(193,15,ls),
(190,-2,o),
(180,-10,o),
(163,-10,cs)
);
}
);
width = 600;
}
);
unicode = 1043;
},
{
color = (153, 254, 255, 255);
glyphname = "Gheupturn-cy";
layers = (
{
layerId = "E6FBA6FA-5C25-4A6C-B37B-1AAF22FBF472";
shapes = (
{
closed = 1;
nodes = (
(138,-10,o),
(118,15,o),
(129,65,cs),
(249,630,ls),
(263,697,o),
(303,730,o),
(370,730,cs),
(543,730,ls),
(561,730,o),
(572,739,o),
(576,757,cs),
(576,758,ls),
(586,803,o),
(612,825,o),
(657,825,cs),
(710,825,o),
(730,800,o),
(719,747,cs),
(707,690,ls),
(692,623,o),
(652,590,o),
(585,590,cs),
(440,590,ls),
(407,590,o),
(387,574,o),
(380,540,cs),
(279,65,ls),
(268,15,o),
(238,-10,o),
(188,-10,cs)
);
}
);
width = 600;
},
{
layerId = "044B5795-75D4-4E5A-ADC6-7EB8037CE6F5";
shapes = (
{
closed = 1;
nodes = (
(143,-10,o),
(131,5,o),
(137,35,cs),
(268,650,ls),
(280,704,o),
(311,730,o),
(365,730,cs),
(593,730,ls),
(614,730,o),
(628,741,o),
(632,762,cs),
(637,787,ls),
(643,812,o),
(658,825,o),
(683,825,cs),
(715,825,o),
(727,810,o),
(720,778,cs),
(710,728,ls),
(698,674,o),
(667,648,o),
(613,648,cs),
(398,648,ls),
(371,648,o),
(355,635,o),
(349,608,cs),
(227,35,ls),
(221,5,o),
(203,-10,o),
(173,-10,cs)
);
}
);
width = 600;
},
{
layerId = "50AD700C-E391-419B-B293-150AAD617642";
shapes = (
{
closed = 1;
nodes = (
(146,-10,o),
(140,-2,o),
(143,15,cs),
(282,670,ls),
(291,710,o),
(315,730,o),
(355,730,cs),
(620,730,ls),
(640,730,o),
(652,740,o),
(657,760,cs),
(665,800,ls),
(669,817,o),
(678,825,o),
(695,825,cs),
(712,825,o),
(719,817,o),
(715,800,cs),
(703,745,ls),
(695,705,o),
(671,685,o),
(631,685,cs),
(366,685,ls),
(346,685,o),
(333,675,o),
(329,655,cs),
(193,15,ls),
(190,-2,o),
(180,-10,o),
(163,-10,cs)
);
}
);
width = 600;
}
);
unicode = 1168;
},
{
color = (153, 254, 255, 255);
glyphname = "De-cy";
layers = (
{
layerId = "E6FBA6FA-5C25-4A6C-B37B-1AAF22FBF472";
shapes = (
{
closed = 1;
nodes = (
(42,96,ls),
(46,115,o),
(59,125,o),
(78,125,cs),
(83,125,o),
(87,127,o),
(90,131,cs),
(103,148,o),
(119,175,qs),
(139,207,o),
(169,292,o),
(179,340,qs),
(245,630,ls),
(260,697,o),
(301,730,o),
(368,730,cs),
(573,730,ls),
(640,730,o),
(666,697,o),
(652,630,cs),
(547,137,ls),
(545,129,o),
(549,125,o),
(557,125,cs),
(589,125,o),
(601,109,o),
(594,77,cs),
(563,-70,ls),
(553,-117,o),
(525,-140,o),
(478,-140,cs),
(431,-140,o),
(413,-117,o),
(423,-70,cs),
(427,-50,ls),
(434,-17,o),
(422,0,o),
(388,0,cs),
(212,0,ls),
(178,0,o),
(158,-17,o),
(151,-50,cs),
(147,-70,ls),
(137,-117,o),
(109,-140,o),
(62,-140,cs),
(15,-140,o),
(-3,-117,o),
(7,-70,cs)
);
},
{
closed = 1;
nodes = (
(237,132,o),
(241,125,o),
(257,125,cs),
(380,125,ls),
(397,125,o),
(406,133,o),
(410,150,cs),
(496,555,ls),
(503,589,o),
(491,605,o),
(457,605,cs),
(430,605,ls),
(396,605,o),
(376,588,o),
(368,555,cs),
(319,341,ls),
(310,295,o),
(282,210,o),
(264,177,qs),
(255,161,o),
(246,148,qs)
);
}
);
width = 600;
},
{
layerId = "044B5795-75D4-4E5A-ADC6-7EB8037CE6F5";
shapes = (
{
closed = 1;
nodes = (
(34,41,ls),
(39,65,o),
(53,77,o),
(77,77,cs),
(83,77,o),
(88,80,o),
(92,85,cs),
(105,103,o),
(121,131,qs),
(140,165,o),
(176,251,o),
(187,298,qs),
(268,650,ls),
(281,704,o),
(312,730,o),
(366,730,cs),
(580,730,ls),
(634,730,o),
(655,704,o),
(643,650,cs),
(524,91,ls),
(522,82,o),
(526,77,o),
(535,77,cs),
(573,77,o),
(588,59,o),
(579,21,cs),
(554,-100,ls),
(548,-127,o),
(532,-140,o),
(505,-140,cs),
(478,-140,o),
(468,-127,o),
(474,-100,cs),
(486,-40,ls),
(492,-13,o),
(482,0,o),
(455,0,cs),
(145,0,ls),
(118,0,o),
(102,-13,o),
(96,-40,cs),
(84,-100,ls),
(78,-127,o),
(62,-140,o),
(35,-140,cs),
(8,-140,o),
(-2,-127,o),
(4,-100,cs)
);
},
{
closed = 1;
nodes = (
(186,83,o),
(187,77,o),
(200,77,cs),
(411,77,ls),
(424,77,o),
(433,84,o),
(436,97,cs),
(545,610,ls),
(550,637,o),
(540,650,o),
(513,650,cs),
(395,650,ls),
(368,650,o),
(351,637,o),
(346,610,cs),
(275,298,ls),
(265,247,o),
(230,160,o),
(212,127,qs),
(202,109,o),
(193,95,qs)
);
}
);
width = 600;
},
{
layerId = "50AD700C-E391-419B-B293-150AAD617642";
shapes = (
{
closed = 1;
nodes = (
(52,18,ls),
(56,36,o),
(67,45,o),
(85,45,cs),
(90,45,o),
(93,46,o),
(97,50,cs),
(113,67,o),
(133,97,qs),
(156,131,o),
(197,222,o),
(210,276,qs),
(302,670,ls),
(312,710,o),
(336,730,o),
(376,730,cs),
(573,730,ls),
(613,730,o),
(629,710,o),
(620,670,cs),
(491,59,ls),
(488,49,o),
(492,45,o),
(502,45,cs),
(541,45,o),
(556,26,o),
(547,-13,cs),
(525,-118,ls),
(522,-133,o),
(513,-140,o),
(498,-140,cs),
(483,-140,o),
(477,-132,o),
(480,-117,cs),
(499,-30,ls),
(503,-10,o),
(495,0,o),
(475,0,cs),
(123,0,ls),
(103,0,o),
(91,-10,o),
(87,-30,cs),
(68,-117,ls),
(65,-132,o),
(56,-140,o),
(41,-140,cs),
(26,-140,o),
(20,-133,o),
(23,-118,cs)
);
},
{
closed = 1;
nodes = (
(149,48,o),
(150,45,o),
(160,45,cs),
(423,45,ls),
(433,45,o),
(439,50,o),
(441,60,cs),
(567,655,ls),
(571,675,o),
(564,685,o),
(544,685,cs),
(387,685,ls),
(367,685,o),
(353,675,o),
(349,655,cs),
(260,276,ls),
(247,222,o),
(207,131,o),
(185,97,qs),
(170,73,o),
(156,57,qs)
);
}
);
width = 600;
}
);
unicode = 1044;
},
{
color = (153, 254, 255, 255);
glyphname = "Zhe-cy";
layers = (
{
anchors = (
{
name = bottomright;
position = "{580, 0}";
},
{
name = top;
position = "{455, 730}";
}
);
layerId = "E6FBA6FA-5C25-4A6C-B37B-1AAF22FBF472";
shapes = (
{
closed = 1;
nodes = (
(133,29,ls),
(121,3,o),
(101,-10,o),
(74,-10,cs),
(20,-10,o),
(6,16,o),
(31,68,cs),
(171,353,ls),
(178,369,o),
(182,385,o),
(181,401,cs),
(164,663,ls),
(160,715,o),
(185,740,o),
(239,740,cs),
(266,740,o),
(281,727,o),
(282,701,cs),
(300,450,ls),
(300,438,o),
(307,432,o),
(320,432,cs),
(320,432,ls),
(333,432,o),
(340,438,o),
(343,451,cs),
(393,689,ls),
(401,723,o),
(421,740,o),
(455,740,cs),
(489,740,o),
(503,723,o),
(495,689,cs),
(445,452,ls),
(442,439,o),
(448,432,o),
(461,432,cs),
(461,432,ls),
(474,432,o),
(484,438,o),
(491,451,cs),
(615,702,ls),
(628,727,o),
(647,740,o),
(673,740,cs),
(726,740,o),
(739,715,o),
(713,665,cs),
(582,404,ls),
(573,388,o),
(570,372,o),
(572,356,cs),
(596,67,ls),
(600,16,o),
(577,-10,o),
(523,-10,cs),
(496,-10,o),
(481,2,o),
(479,28,cs),
(457,307,ls),
(456,319,o),
(450,325,o),
(437,325,cs),
(437,325,ls),
(424,325,o),
(417,319,o),
(414,306,cs),
(362,41,ls),
(355,7,o),
(335,-10,o),
(301,-10,cs),
(267,-10,o),
(253,7,o),
(260,41,cs),
(312,305,ls),
(315,318,o),
(309,325,o),
(296,325,cs),
(296,325,ls),
(283,325,o),
(274,319,o),
(267,306,cs)
);
}
);
width = 600;
},
{
anchors = (
{
name = bottomright;
position = "{580, 0}";
},
{
name = top;
position = "{455, 730}";
}
);
layerId = "044B5795-75D4-4E5A-ADC6-7EB8037CE6F5";
shapes = (
{
closed = 1;
nodes = (
(112,19,ls),
(102,0,o),
(86,-10,o),
(65,-10,cs),
(24,-10,o),
(15,9,o),
(36,48,cs),
(210,360,ls),
(216,373,o),
(219,385,o),
(218,398,cs),
(182,681,ls),
(176,721,o),
(194,740,o),
(236,740,cs),
(257,740,o),
(269,730,o),
(271,710,cs),
(301,430,ls),
(303,417,o),
(310,411,o),
(323,411,cs),
(329,411,ls),
(342,411,o),
(351,418,o),
(354,431,cs),
(411,702,ls),
(417,727,o),
(432,740,o),
(457,740,cs),
(482,740,o),
(493,727,o),
(487,702,cs),
(430,431,ls),
(427,418,o),
(432,411,o),
(445,411,cs),
(453,411,ls),
(466,411,o),
(477,417,o),
(483,430,cs),
(631,710,ls),
(641,730,o),
(657,740,o),
(678,740,cs),
(720,740,o),
(730,721,o),
(708,681,cs),
(550,397,ls),
(544,384,o),
(540,372,o),
(542,359,cs),
(583,48,ls),
(588,9,o),
(572,-10,o),
(530,-10,cs),
(509,-10,o),
(498,-1,o),
(495,19,cs),
(459,324,ls),
(458,337,o),
(450,343,o),
(437,343,cs),
(431,343,ls),
(418,343,o),
(409,336,o),
(407,323,cs),
(344,28,ls),
(339,3,o),
(323,-10,o),
(298,-10,cs),
(273,-10,o),
(263,3,o),
(268,28,cs),
(331,323,ls),
(333,336,o),
(328,343,o),
(315,343,cs),
(307,343,ls),
(294,343,o),
(284,337,o),
(277,324,cs)
);
}
);
width = 600;
},
{
anchors = (
{
name = bottomright;
position = "{580, 0}";
},
{
name = top;
position = "{455, 730}";
}
);
layerId = "50AD700C-E391-419B-B293-150AAD617642";
shapes = (
{
closed = 1;
nodes = (
(74,6,ls),
(68,-5,o),
(60,-10,o),
(48,-10,cs),
(25,-10,o),
(19,0,o),
(32,22,cs),
(237,370,ls),
(242,379,o),
(244,389,o),
(242,398,cs),
(188,708,ls),
(183,730,o),
(193,740,o),
(216,740,cs),
(228,740,o),
(234,735,o),
(236,724,cs),
(288,415,ls),
(290,406,o),
(296,401,o),
(306,401,cs),
(347,401,ls),
(357,401,o),
(363,406,o),
(365,416,cs),
(430,718,ls),
(433,733,o),
(441,740,o),
(456,740,cs),
(471,740,o),
(477,733,o),
(474,718,cs),
(409,416,ls),
(407,406,o),
(411,401,o),
(421,401,cs),
(462,401,ls),
(472,401,o),
(480,406,o),
(486,415,cs),
(672,724,ls),
(678,735,o),
(687,740,o),
(698,740,cs),
(721,740,o),
(725,729,o),
(713,708,cs),
(526,398,ls),
(520,389,o),
(517,379,o),
(519,370,cs),
(577,23,ls),
(580,1,o),
(572,-10,o),
(548,-10,cs),
(536,-10,o),
(529,-5,o),
(527,6,cs),
(470,344,ls),
(468,353,o),
(463,358,o),
(453,358,cs),
(412,358,ls),
(402,358,o),
(396,353,o),
(394,343,cs),
(324,12,ls),
(320,-3,o),
(312,-10,o),
(297,-10,cs),
(282,-10,o),
(276,-3,o),
(280,12,cs),
(350,343,ls),
(352,353,o),
(348,358,o),
(338,358,cs),
(297,358,ls),
(287,358,o),
(279,353,o),
(274,344,cs)
);
}
);
width = 600;
}
);
unicode = 1046;
},
{
color = (153, 254, 255, 255);
glyphname = "Ze-cy";
layers = (
{
layerId = "E6FBA6FA-5C25-4A6C-B37B-1AAF22FBF472";
shapes = (
{
closed = 1;
nodes = (
(257,696,o),
(354,740,o),
(452,740,cs),
(573,740,o),
(680,676,o),
(651,541,cs),
(636,469,o),
(580,399,o),
(503,386,c),
(583,368,o),
(618,291,o),
(600,207,cs),
(569,59,o),
(421,-10,o),
(289,-10,cs),
(189,-10,o),
(102,31,o),
(77,114,cs),
(61,168,o),
(103,210,o),
(174,210,cs),
(197,210,o),
(210,198,o),
(226,163,cs),
(239,132,o),
(277,118,o),
(316,118,cs),
(376,118,o),
(436,152,o),
(450,217,cs),
(465,288,o),
(421,316,o),
(366,316,cs),
(338,316,ls),
(296,316,o),
(280,336,o),
(289,378,cs),
(298,420,o),
(323,440,o),
(365,440,cs),
(393,440,ls),
(440,440,o),
(485,465,o),
(498,529,cs),
(510,583,o),
(476,616,o),
(424,616,cs),
(385,616,o),
(351,598,o),
(330,568,cs),
(303,531,o),
(287,520,o),
(260,520,cs),
(189,520,o),
(164,561,o),
(202,616,cs)
);
}
);
width = 600;
},
{
anchors = (
{
name = m.uni0308;
position = "{455, 730}";
},
{
name = m.uni0325_2;
position = "{300, 0}";
}
);
layerId = "044B5795-75D4-4E5A-ADC6-7EB8037CE6F5";
shapes = (
{
closed = 1;
nodes = (
(250,685,o),
(346,740,o),
(452,740,cs),
(566,740,o),
(654,674,o),
(628,551,cs),
(612,477,o),
(555,403,o),
(476,384,c),
(562,368,o),
(595,286,o),
(576,199,cs),
(547,61,o),
(415,-10,o),
(289,-10,cs),
(182,-10,o),
(98,43,o),
(91,141,cs),
(88,178,o),
(113,200,o),
(155,200,cs),
(174,200,o),
(181,191,o),
(181,170,cs),
(182,104,o),
(238,70,o),
(307,70,cs),
(389,70,o),
(467,118,o),
(486,205,cs),
(504,292,o),
(446,340,o),
(364,340,cs),
(318,340,ls),
(291,340,o),
(281,353,o),
(287,380,cs),
(293,407,o),
(308,420,o),
(335,420,cs),
(381,420,ls),
(439,420,o),
(516,448,o),
(536,542,cs),
(552,616,o),
(506,660,o),
(435,660,cs),
(367,660,o),
(309,622,o),
(284,560,cs),
(276,539,o),
(264,530,o),
(245,530,cs),
(203,530,o),
(187,553,o),
(204,590,cs)
);
}
);
width = 600;
},
{
layerId = "50AD700C-E391-419B-B293-150AAD617642";
shapes = (
{
closed = 1;
nodes = (
(240,670,o),
(336,740,o),
(451,740,cs),
(566,740,o),
(638,665,o),
(613,547,cs),
(597,471,o),
(537,397,o),
(457,381,c),
(540,360,o),
(577,282,o),
(558,194,cs),
(530,63,o),
(411,-10,o),
(288,-10,cs),
(174,-10,o),
(92,52,o),
(100,163,cs),
(101,184,o),
(115,196,o),
(138,196,cs),
(149,196,o),
(153,190,o),
(152,179,cs),
(140,86,o),
(205,35,o),
(297,35,cs),
(394,35,o),
(487,93,o),
(509,196,cs),
(531,299,o),
(463,356,o),
(366,356,cs),
(324,356,ls),
(309,356,o),
(302,364,o),
(306,379,cs),
(309,394,o),
(317,401,o),
(332,401,cs),
(379,401,ls),
(468,401,o),
(544,458,o),
(564,549,cs),
(583,639,o),
(530,696,o),
(442,696,cs),
(350,696,o),
(275,635,o),
(249,547,cs),
(246,536,o),
(239,530,o),
(228,530,cs),
(205,530,o),
(196,541,o),
(204,563,cs)
);
}
);
width = 600;
}
);
unicode = 1047;
},
{
color = (153, 254, 255, 255);
glyphname = "Ii-cy";
layers = (
{
layerId = "E6FBA6FA-5C25-4A6C-B37B-1AAF22FBF472";
shapes = (
{
closed = 1;
nodes = (
(684,629,ls),
(699,703,o),
(670,740,o),
(596,740,cs),
(546,740,o),
(511,716,o),
(485,669,cs),
(251,240,ls),
(249,236,o),
(247,234,o),
(244,234,cs),
(241,234,o),
(240,236,o),
(241,240,cs),
(332,670,ls),
(342,717,o),
(324,740,o),
(277,740,cs),
(230,740,o),
(202,717,o),
(192,670,cs),
(71,101,ls),
(56,27,o),
(85,-10,o),
(159,-10,cs),
(209,-10,o),
(244,14,o),
(270,61,cs),
(504,490,ls),
(506,494,o),
(508,496,o),
(511,496,cs),
(514,496,o),
(515,494,o),
(514,490,cs),
(423,60,ls),
(413,13,o),
(431,-10,o),
(478,-10,cs),
(525,-10,o),
(553,13,o),
(563,60,cs)
);
}
);
width = 600;
},
{
anchors = (
{
name = m.uni0308;
position = "{455, 730}";
}
);
layerId = "044B5795-75D4-4E5A-ADC6-7EB8037CE6F5";
shapes = (
{
closed = 1;
nodes = (
(661,662,ls),
(672,714,o),
(651,740,o),
(599,740,cs),
(564,740,o),
(540,723,o),
(521,690,cs),
(211,150,ls),
(209,146,o),
(208,144,o),
(205,144,cs),
(202,144,o),
(201,146,o),
(202,150,cs),
(318,695,ls),
(324,725,o),
(312,740,o),
(282,740,cs),
(252,740,o),
(234,725,o),
(228,695,cs),
(94,68,ls),
(83,16,o),
(104,-10,o),
(156,-10,cs),
(191,-10,o),
(215,7,o),
(235,40,cs),
(544,580,ls),
(546,584,o),
(548,586,o),
(551,586,cs),
(554,586,o),
(554,584,o),
(553,580,cs),
(437,35,ls),
(431,5,o),
(443,-10,o),
(473,-10,cs),
(503,-10,o),
(521,5,o),
(527,35,cs)
);
}
);
width = 600;
},
{
layerId = "50AD700C-E391-419B-B293-150AAD617642";
shapes = (
{
closed = 1;
nodes = (
(637,693,ls),
(644,724,o),
(631,740,o),
(600,740,cs),
(576,740,o),
(559,729,o),
(546,707,cs),
(187,80,ls),
(185,76,o),
(183,74,o),
(180,74,cs),
(177,74,o),
(176,76,o),
(177,80,cs),
(312,715,ls),
(316,732,o),
(309,740,o),
(292,740,cs),
(275,740,o),
(266,732,o),
(262,715,cs),
(118,37,ls),
(111,6,o),
(124,-10,o),
(155,-10,cs),
(179,-10,o),
(196,1,o),
(209,23,cs),
(568,650,ls),
(570,654,o),
(572,656,o),
(575,656,cs),
(578,656,o),
(579,654,o),
(578,650,cs),
(443,15,ls),
(440,-2,o),
(446,-10,o),
(463,-10,cs),
(480,-10,o),
(490,-2,o),
(493,15,cs)
);
}
);
width = 600;
}
);
unicode = 1048;
},
{
color = (153, 254, 255, 255);
glyphname = "El-cy";
layers = (
{
layerId = "E6FBA6FA-5C25-4A6C-B37B-1AAF22FBF472";
shapes = (
{
closed = 1;
nodes = (
(246,630,ls),
(261,697,o),
(302,730,o),
(369,730,cs),
(589,730,ls),
(656,730,o),
(682,697,o),
(668,630,cs),
(548,65,ls),
(537,15,o),
(507,-10,o),
(457,-10,cs),
(407,-10,o),
(387,15,o),
(398,65,cs),
(500,545,ls),
(507,579,o),
(494,595,o),
(460,595,cs),
(437,595,ls),
(403,595,o),
(384,578,o),
(376,545,cs),
(302,220,ls),
(272,90,o),
(207,18,o),
(103,-6,cs),
(44,-20,o),
(17,11,o),
(31,75,cs),
(36,101,o),
(51,115,o),
(87,126,cs),
(124,138,o),
(141,168,o),
(153,220,cs)
);
}
);
width = 600;
},
{
layerId = "044B5795-75D4-4E5A-ADC6-7EB8037CE6F5";
shapes = (
{
closed = 1;
nodes = (
(267,650,ls),
(280,704,o),
(311,730,o),
(365,730,cs),
(581,730,ls),
(635,730,o),
(656,704,o),
(644,650,cs),
(513,35,ls),
(507,5,o),
(489,-10,o),
(459,-10,cs),
(429,-10,o),
(417,5,o),
(423,35,cs),
(545,608,ls),
(551,635,o),
(541,648,o),
(514,648,cs),
(397,648,ls),
(370,648,o),
(353,635,o),
(347,608,cs),
(264,246,ls),
(236,120,o),
(197,12,o),
(66,-9,cs),
(34,-14,o),
(20,2,o),
(27,35,cs),
(32,57,o),
(44,68,o),
(72,76,cs),
(144,96,o),
(158,176,o),
(174,246,cs)
);
}
);
width = 600;
},
{
layerId = "50AD700C-E391-419B-B293-150AAD617642";
shapes = (
{
closed = 1;
nodes = (
(288,670,ls),
(298,710,o),
(322,730,o),
(362,730,cs),
(585,730,ls),
(625,730,o),
(641,710,o),
(632,670,cs),
(493,15,ls),
(490,-2,o),
(480,-10,o),
(463,-10,cs),
(446,-10,o),
(440,-2,o),
(443,15,cs),
(579,654,ls),
(583,674,o),
(575,684,o),
(555,684,cs),
(372,684,ls),
(352,684,o),
(340,674,o),
(336,654,cs),
(223,158,ls),
(198,52,o),
(145,-10,o),
(48,-10,cs),
(32,-10,o),
(24,-3,o),
(28,14,cs),
(31,30,o),
(42,40,o),
(59,40,cs),
(124,40,o),
(155,82,o),
(173,158,cs)
);
}
);
width = 600;
}
);
unicode = 1051;
},
{
color = (153, 254, 255, 255);
glyphname = "Pe-cy";
layers = (
{
layerId = "E6FBA6FA-5C25-4A6C-B37B-1AAF22FBF472";
shapes = (
{
closed = 1;
nodes = (
(89,-10,o),
(69,15,o),
(80,65,cs),
(200,630,ls),
(214,697,o),
(254,730,o),
(321,730,cs),
(589,730,ls),
(656,730,o),
(682,697,o),
(668,630,cs),
(548,65,ls),
(537,15,o),
(507,-10,o),
(457,-10,cs),
(407,-10,o),
(387,15,o),
(398,65,cs),
(500,545,ls),
(507,579,o),
(494,595,o),
(460,595,cs),
(392,595,ls),
(358,595,o),
(339,579,o),
(332,545,cs),
(230,65,ls),
(219,15,o),
(189,-10,o),
(139,-10,cs)
);
}
);
width = 600;
},
{
layerId = "044B5795-75D4-4E5A-ADC6-7EB8037CE6F5";
shapes = (
{
closed = 1;
nodes = (
(107,-10,o),
(95,5,o),
(101,35,cs),
(232,650,ls),
(244,704,o),
(275,730,o),
(329,730,cs),
(581,730,ls),
(635,730,o),
(656,704,o),
(644,650,cs),
(513,35,ls),
(507,5,o),
(489,-10,o),
(459,-10,cs),
(429,-10,o),
(417,5,o),
(423,35,cs),
(545,608,ls),
(551,635,o),
(541,648,o),
(514,648,cs),
(362,648,ls),
(335,648,o),
(319,635,o),
(313,608,cs),
(191,35,ls),
(185,5,o),
(167,-10,o),
(137,-10,cs)
);
}
);
width = 600;
},
{
layerId = "50AD700C-E391-419B-B293-150AAD617642";
shapes = (
{
closed = 1;
nodes = (
(116,-10,o),
(110,-2,o),
(113,15,cs),
(252,670,ls),
(261,710,o),
(285,730,o),
(325,730,cs),
(585,730,ls),
(625,730,o),
(641,710,o),
(632,670,cs),
(493,15,ls),
(490,-2,o),
(480,-10,o),
(463,-10,cs),
(446,-10,o),
(440,-2,o),
(443,15,cs),
(579,655,ls),
(584,675,o),
(576,685,o),
(556,685,cs),
(336,685,ls),
(316,685,o),
(304,675,o),
(299,655,cs),
(163,15,ls),
(160,-2,o),
(150,-10,o),
(133,-10,cs)
);
}
);
width = 600;
}
);
unicode = 1055;
},
{
color = (153, 254, 255, 255);
glyphname = "U-cy";
layers = (
{
anchors = (
{
name = top;
position = "{455, 730}";
}
);
layerId = "E6FBA6FA-5C25-4A6C-B37B-1AAF22FBF472";
shapes = (
{
closed = 1;
nodes = (
(197,-10,o),
(177,12,o),
(215,83,cs),
(259,165,ls),
(267,181,o),
(271,195,o),
(269,211,cs),
(199,647,ls),
(188,710,o),
(215,740,o),
(282,740,cs),
(321,740,o),
(346,734,o),
(350,693,cs),
(382,391,ls),
(384,375,o),
(389,375,o),
(397,391,cs),
(550,692,ls),
(569,730,o),
(595,740,o),
(632,740,cs),
(699,740,o),
(714,709,o),
(679,646,cs),
(343,37,ls),
(325,5,o),
(299,-10,o),
(266,-10,cs)
);
}
);
width = 600;
},
{
anchors = (
{
name = top;
position = "{455, 730}";
}
);
layerId = "044B5795-75D4-4E5A-ADC6-7EB8037CE6F5";
shapes = (
{
closed = 1;
nodes = (
(210,-10,o),
(201,10,o),
(225,50,cs),
(294,170,ls),
(301,182,o),
(305,196,o),
(302,208,cs),
(218,679,ls),
(211,720,o),
(228,740,o),
(272,740,cs),
(294,740,o),
(307,730,o),
(310,709,cs),
(367,307,ls),
(370,294,o),
(374,294,o),
(380,307,cs),
(593,709,ls),
(604,730,o),
(620,740,o),
(642,740,cs),
(686,740,o),
(695,720,o),
(672,679,cs),
(302,20,ls),
(291,0,o),
(274,-10,o),
(253,-10,cs)
);
}
);
width = 600;
},
{
anchors = (
{
name = top;
position = "{455, 730}";
}
);
layerId = "50AD700C-E391-419B-B293-150AAD617642";
shapes = (
{
closed = 1;
nodes = (
(220,-10,o),
(214,1,o),
(228,25,cs),
(317,177,ls),
(322,186,o),
(324,196,o),
(322,205,cs),
(232,705,ls),
(228,729,o),
(238,740,o),
(263,740,cs),
(276,740,o),
(283,734,o),
(285,722,cs),
(360,269,ls),
(361,260,o),
(365,260,o),
(370,269,cs),
(626,723,ls),
(632,734,o),
(641,740,o),
(653,740,cs),
(677,740,o),
(683,729,o),
(670,706,cs),
(275,8,ls),
(268,-4,o),
(258,-10,o),
(245,-10,cs)
);
}
);
width = 600;
}
);
unicode = 1059;
},
{
color = (153, 254, 255, 255);
glyphname = "Ef-cy";
layers = (
{
layerId = "E6FBA6FA-5C25-4A6C-B37B-1AAF22FBF472";
shapes = (
{
closed = 1;
nodes = (
(244,-25,o),
(224,-5,o),
(235,48,cs),
(237,55,l),
(128,59,o),
(76,145,o),
(84,274,cs),
(88,341,o),
(103,409,o),
(127,476,cs),
(174,606,o),
(262,691,o),
(373,695,c),
(373,697,ls),
(384,750,o),
(413,770,o),
(464,770,cs),
(513,770,o),
(534,746,o),
(523,697,cs),
(523,695,l),
(632,691,o),
(684,605,o),
(675,476,cs),
(671,409,o),
(656,341,o),
(632,274,cs),
(586,145,o),
(498,59,o),
(387,55,c),
(385,48,ls),
(375,-1,o),
(344,-25,o),
(295,-25,cs)
);
},
{
closed = 1;
nodes = (
(366,580,l),
(319,580,o),
(275,539,o),
(252,476,cs),
(228,409,o),
(213,341,o),
(209,274,cs),
(205,212,o),
(232,171,o),
(279,171,c)
);
},
{
closed = 1;
nodes = (
(393,171,l),
(440,171,o),
(485,212,o),
(507,274,cs),
(531,341,o),
(546,409,o),
(550,476,cs),
(555,539,o),
(527,580,o),
(480,580,c)
);
}
);
width = 600;
},
{
layerId = "044B5795-75D4-4E5A-ADC6-7EB8037CE6F5";
shapes = (
{
closed = 1;
nodes = (
(265,-25,o),
(253,-10,o),
(259,20,cs),
(267,55,l),
(157,55,o),
(92,138,o),
(102,263,cs),
(107,335,o),
(123,410,o),
(148,482,cs),
(194,610,o),
(292,695,o),
(403,695,c),
(409,725,ls),
(416,755,o),
(434,770,o),
(464,770,cs),
(494,770,o),
(506,755,o),
(499,725,cs),
(493,695,l),
(604,695,o),
(666,610,o),
(656,482,cs),
(651,410,o),
(635,335,o),
(610,263,cs),
(566,138,o),
(467,55,o),
(357,55,c),
(349,20,ls),
(343,-10,o),
(325,-25,o),
(295,-25,cs)
);
},
{
closed = 1;
nodes = (
(391,619,l),
(326,619,o),
(262,566,o),
(232,482,cs),
(207,410,o),
(191,335,o),
(186,263,cs),
(180,182,o),
(222,131,o),
(287,131,c)
);
},
{
closed = 1;
nodes = (
(369,131,l),
(434,131,o),
(498,182,o),
(526,263,cs),
(551,335,o),
(567,410,o),
(572,482,cs),
(578,566,o),
(538,619,o),
(473,619,c)
);
}
);
width = 600;
},
{
layerId = "50AD700C-E391-419B-B293-150AAD617642";
shapes = (
{
closed = 1;
nodes = (
(278,-25,o),
(271,-17,o),
(275,0,cs),
(287,55,l),
(168,55,o),
(104,133,o),
(115,257,cs),
(121,336,o),
(139,417,o),
(165,496,cs),
(206,618,o),
(303,695,o),
(423,695,c),
(433,745,ls),
(437,762,o),
(447,770,o),
(464,770,cs),
(481,770,o),
(487,762,o),
(483,745,cs),
(473,695,l),
(593,695,o),
(656,617,o),
(645,496,cs),
(639,417,o),
(621,336,o),
(595,257,cs),
(552,134,o),
(456,55,o),
(337,55,c),
(325,0,ls),
(321,-17,o),
(312,-25,o),
(295,-25,cs)
);
},
{
closed = 1;
nodes = (
(413,651,l),
(329,651,o),
(245,585,o),
(215,496,cs),
(189,417,o),
(171,336,o),
(165,257,cs),
(156,166,o),
(213,100,o),
(296,100,c)
);
},
{
closed = 1;
nodes = (
(346,100,l),
(429,100,o),
(515,167,o),
(545,257,cs),
(571,336,o),
(589,417,o),
(595,496,cs),
(603,584,o),
(547,651,o),
(463,651,c)
);
}
);
width = 600;
}
);
unicode = 1060;
},
{
color = (153, 254, 255, 255);
glyphname = "Che-cy";
layers = (
{
layerId = "E6FBA6FA-5C25-4A6C-B37B-1AAF22FBF472";
shapes = (
{
closed = 1;
nodes = (
(428,225,ls),
(431,242,o),
(425,250,o),
(408,250,cs),
(323,250,ls),
(218,250,o),
(125,355,o),
(146,450,qs),
(191,665,ls),
(202,715,o),
(232,740,o),
(282,740,cs),
(332,740,o),
(352,715,o),
(341,665,cs),
(298,460,ls),
(291,426,o),
(330,385,o),
(371,385,qs),
(437,385,ls),
(454,385,o),
(464,393,o),
(467,410,cs),
(521,665,ls),
(532,715,o),
(562,740,o),
(612,740,cs),
(662,740,o),
(682,715,o),
(671,665,cs),
(544,65,ls),
(533,15,o),
(503,-10,o),
(453,-10,cs),
(403,-10,o),
(383,15,o),
(394,65,cs)
);
}
);
width = 600;
},
{
anchors = (
{
name = m.uni0308;
position = "{455, 730}";
}
);
layerId = "044B5795-75D4-4E5A-ADC6-7EB8037CE6F5";
shapes = (
{
closed = 1;
nodes = (
(468,251,ls),
(471,264,o),
(466,271,o),
(453,271,cs),
(333,271,ls),
(239,271,o),
(153,367,o),
(171,451,qs),
(223,695,ls),
(229,725,o),
(247,740,o),
(277,740,cs),
(307,740,o),
(319,725,o),
(313,695,cs),
(261,451,ls),
(251,403,o),
(303,351,o),
(360,351,qs),
(470,351,ls),
(483,351,o),
(491,358,o),
(494,371,cs),
(563,695,ls),
(569,725,o),
(587,740,o),
(617,740,cs),
(647,740,o),
(659,725,o),
(653,695,cs),
(512,35,ls),
(506,5,o),
(488,-10,o),
(458,-10,cs),
(428,-10,o),
(416,5,o),
(422,35,cs)
);
}
);
width = 600;
},
{
layerId = "50AD700C-E391-419B-B293-150AAD617642";
shapes = (
{
closed = 1;
nodes = (
(499,274,ls),
(501,284,o),
(497,289,o),
(487,289,cs),
(361,289,ls),
(258,289,o),
(172,385,o),
(192,479,qs),
(242,715,ls),
(246,732,o),
(255,740,o),
(272,740,cs),
(289,740,o),
(296,732,o),
(292,715,cs),
(242,479,ls),
(227,408,o),
(292,334,o),
(371,334,qs),
(496,334,ls),
(506,334,o),
(512,339,o),
(514,349,cs),
(592,715,ls),
(596,732,o),
(605,740,o),
(622,740,cs),
(639,740,o),
(646,732,o),
(642,715,cs),
(493,15,ls),
(490,-2,o),
(480,-10,o),
(463,-10,cs),
(446,-10,o),
(440,-2,o),
(443,15,cs)
);
}
);
width = 600;
}
);
unicode = 1063;
},
{
color = (153, 254, 255, 255);
glyphname = "Tse-cy";
layers = (
{
layerId = "E6FBA6FA-5C25-4A6C-B37B-1AAF22FBF472";
shapes = (
{
closed = 1;
nodes = (
(563,-70,ls),
(553,-117,o),
(525,-140,o),
(478,-140,cs),
(431,-140,o),
(413,-117,o),
(423,-70,cs),
(429,-40,ls),
(435,-13,o),
(425,0,o),
(398,0,cs),
(166,0,ls),
(99,0,o),
(73,33,o),
(87,100,cs),
(207,665,ls),
(218,715,o),
(248,740,o),
(298,740,cs),
(348,740,o),
(368,715,o),
(357,665,cs),
(250,160,ls),
(246,143,o),
(253,135,o),
(270,135,cs),
(357,135,ls),
(374,135,o),
(383,143,o),
(387,160,cs),
(494,665,ls),
(505,715,o),
(535,740,o),
(585,740,cs),
(635,740,o),
(655,715,o),
(644,665,cs),
(532,138,ls),
(532,136,o),
(533,135,o),
(535,135,cs),
(583,135,o),
(602,111,o),
(591,63,cs)
);
}
);
width = 600;
},
{
layerId = "044B5795-75D4-4E5A-ADC6-7EB8037CE6F5";
shapes = (
{
closed = 1;
nodes = (
(544,-100,ls),
(538,-127,o),
(522,-140,o),
(495,-140,cs),
(468,-140,o),
(458,-127,o),
(464,-100,cs),
(476,-40,ls),
(482,-13,o),
(472,0,o),
(445,0,cs),
(174,0,ls),
(120,0,o),
(100,26,o),
(111,80,cs),
(242,695,ls),
(248,725,o),
(266,740,o),
(296,740,cs),
(326,740,o),
(338,725,o),
(332,695,cs),
(205,100,ls),
(202,87,o),
(208,80,o),
(221,80,cs),
(397,80,ls),
(410,80,o),
(418,87,o),
(421,100,cs),
(548,695,ls),
(554,725,o),
(572,740,o),
(602,740,cs),
(632,740,o),
(644,725,o),
(638,695,cs),
(510,95,ls),
(508,85,o),
(512,80,o),
(522,80,cs),
(562,80,o),
(578,60,o),
(569,20,cs)
);
}
);
width = 600;
},
{
layerId = "50AD700C-E391-419B-B293-150AAD617642";
shapes = (
{
closed = 1;
nodes = (
(526,-115,ls),
(522,-132,o),
(512,-140,o),
(495,-140,cs),
(478,-140,o),
(472,-132,o),
(476,-115,cs),
(494,-30,ls),
(498,-10,o),
(490,0,o),
(470,0,cs),
(170,0,ls),
(130,0,o),
(114,20,o),
(123,60,cs),
(262,715,ls),
(266,732,o),
(275,740,o),
(292,740,cs),
(309,740,o),
(316,732,o),
(312,715,cs),
(173,60,ls),
(171,50,o),
(175,45,o),
(185,45,cs),
(418,45,ls),
(428,45,o),
(434,50,o),
(436,60,cs),
(575,715,ls),
(579,732,o),
(588,740,o),
(605,740,cs),
(622,740,o),
(629,732,o),
(625,715,cs),
(486,60,ls),
(483,48,o),
(489,45,o),
(500,45,cs),
(540,45,o),
(555,25,o),
(547,-15,cs)
);
}
);
width = 600;
}
);
unicode = 1062;
},
{
color = (153, 254, 255, 255);
glyphname = "Sha-cy";
layers = (
{
layerId = "E6FBA6FA-5C25-4A6C-B37B-1AAF22FBF472";
shapes = (
{
closed = 1;
nodes = (
(138,0,ls),
(71,0,o),
(45,33,o),
(59,100,cs),
(182,676,ls),
(191,719,o),
(217,740,o),
(260,740,cs),
(303,740,o),
(320,718,o),
(310,675,cs),
(200,157,ls),
(195,132,o),
(204,120,o),
(229,120,cs),
(230,120,ls),
(255,120,o),
(269,132,o),
(274,157,cs),
(386,681,ls),
(394,721,o),
(417,740,o),
(457,740,cs),
(497,740,o),
(512,721,o),
(504,681,cs),
(392,157,ls),
(387,132,o),
(396,120,o),
(421,120,cs),
(422,120,ls),
(447,120,o),
(461,132,o),
(466,157,cs),
(576,675,ls),
(586,718,o),
(612,740,o),
(655,740,cs),
(698,740,o),
(715,719,o),
(706,676,cs),
(583,100,ls),
(569,33,o),
(529,0,o),
(462,0,cs)
);
}
);
width = 600;
},
{
layerId = "044B5795-75D4-4E5A-ADC6-7EB8037CE6F5";
shapes = (
{
closed = 1;
nodes = (
(142,0,ls),
(88,0,o),
(68,26,o),
(79,80,cs),
(208,697,ls),
(214,725,o),
(232,740,o),
(260,740,cs),
(288,740,o),
(299,726,o),
(293,698,cs),
(170,118,ls),
(164,91,o),
(175,78,o),
(202,78,cs),
(241,78,ls),
(268,78,o),
(283,91,o),
(289,118,cs),
(413,703,ls),
(419,728,o),
(433,740,o),
(458,740,cs),
(483,740,o),
(493,728,o),
(487,703,cs),
(363,118,ls),
(357,91,o),
(368,78,o),
(395,78,cs),
(433,78,ls),
(460,78,o),
(475,91,o),
(481,118,cs),
(604,698,ls),
(610,726,o),
(627,740,o),
(655,740,cs),
(683,740,o),
(694,726,o),
(688,698,cs),
(557,80,ls),
(546,26,o),
(514,0,o),
(460,0,cs)
);
}
);
width = 600;
},
{
layerId = "50AD700C-E391-419B-B293-150AAD617642";
shapes = (
{
closed = 1;
nodes = (
(135,0,ls),
(95,0,o),
(79,20,o),
(88,60,cs),
(227,716,ls),
(231,732,o),
(240,740,o),
(256,740,cs),
(272,740,o),
(279,732,o),
(275,716,cs),
(139,73,ls),
(134,53,o),
(142,43,o),
(162,43,cs),
(255,43,ls),
(275,43,o),
(287,53,o),
(292,73,cs),
(428,716,ls),
(432,732,o),
(441,740,o),
(457,740,cs),
(473,740,o),
(480,732,o),
(476,716,cs),
(340,73,ls),
(335,53,o),
(343,43,o),
(363,43,cs),
(456,43,ls),
(476,43,o),
(488,53,o),
(493,73,cs),
(629,716,ls),
(633,732,o),
(642,740,o),
(658,740,cs),
(674,740,o),
(681,732,o),
(677,716,cs),
(538,60,ls),
(529,20,o),
(505,0,o),
(465,0,cs)
);
}
);
width = 600;
}
);
unicode = 1064;
},
